<?xml version="1.0" standalone="no"?>
<!DOCTYPE svg PUBLIC "-//W3C//DTD SVG 20010904//EN"
 "http://www.w3.org/TR/2001/REC-SVG-20010904/DTD/svg10.dtd">
<svg version="1.0" xmlns="http://www.w3.org/2000/svg"
 width="1024.000000pt" height="1536.000000pt" viewBox="0 0 1024.000000 1536.000000"
 preserveAspectRatio="xMidYMid meet">

<g transform="translate(0.000000,1536.000000) scale(0.100000,-0.100000)"
fill="#000000" stroke="none">
<path d="M5080 14433 c-8 -2 -22 -7 -30 -10 -8 -4 -21 -5 -29 -4 -8 1 -10 -2
-5 -10 5 -9 2 -10 -10 -6 -11 5 -15 3 -10 -5 5 -8 2 -9 -10 -5 -11 5 -15 3
-10 -5 5 -8 1 -9 -12 -4 -10 4 -15 4 -11 0 4 -4 -12 -28 -35 -53 l-43 -45 53
46 c28 25 73 53 99 62 59 20 143 21 190 1 50 -21 56 -17 8 6 -25 11 -33 19
-21 19 11 0 17 3 13 6 -7 8 -117 13 -137 7z"/>
<path d="M5231 14416 c10 -9 69 -36 69 -32 0 6 -55 36 -66 36 -4 0 -5 -2 -3
-4z"/>
<path d="M5325 14360 c10 -11 20 -20 23 -20 3 0 -3 9 -13 20 -10 11 -20 20
-23 20 -3 0 3 -9 13 -20z"/>
<path d="M4909 14353 c-13 -16 -12 -17 4 -4 16 13 21 21 13 21 -2 0 -10 -8
-17 -17z"/>
<path d="M4846 14243 c-4 -5 -11 -8 -14 -8 -4 -1 -21 -9 -39 -18 -18 -9 -41
-17 -51 -17 -11 0 -22 -9 -25 -20 -4 -14 0 -20 12 -20 20 0 100 49 120 73 13
17 11 24 -3 10z m-46 -38 c0 -2 -10 -9 -22 -15 -22 -11 -22 -10 -4 4 21 17 26
19 26 11z"/>
<path d="M5372 13958 c-7 -7 -12 -9 -12 -4 0 4 -37 -25 -82 -65 -107 -93 -113
-99 -55 -58 27 18 51 37 53 41 3 5 10 8 16 8 6 0 5 -7 -3 -17 -13 -16 -12 -17
3 -5 9 8 14 20 12 27 -4 10 1 12 18 8 18 -4 20 -3 8 6 -11 8 -12 11 -2 11 7 0
11 4 8 9 -3 5 2 15 11 22 15 12 16 12 10 -4 -9 -23 9 -13 23 14 12 22 9 24 -8
7z"/>
<path d="M5398 13413 c7 -3 16 -2 19 1 4 3 -2 6 -13 5 -11 0 -14 -3 -6 -6z"/>
<path d="M5465 13390 c27 -12 43 -12 25 0 -8 5 -22 9 -30 9 -10 0 -8 -3 5 -9z"/>
<path d="M5550 13346 c0 -2 8 -10 18 -17 15 -13 16 -12 3 4 -13 16 -21 21 -21
13z"/>
<path d="M5670 13195 c0 -8 4 -15 9 -15 5 0 20 -17 32 -37 22 -36 89 -108 89
-94 0 3 -10 18 -23 32 -12 15 -33 45 -47 67 -29 47 -60 71 -60 47z"/>
<path d="M5814 13004 c0 -13 7 -24 14 -24 7 0 11 -4 8 -9 -8 -12 33 -63 45
-55 5 3 8 0 7 -8 -2 -7 3 -12 10 -10 8 1 11 -2 7 -7 -7 -12 25 -30 43 -24 9 4
-3 21 -35 52 -26 26 -60 61 -74 78 -26 31 -27 31 -25 7z"/>
<path d="M5124 12931 c-5 -5 -81 -43 -169 -84 -88 -41 -315 -151 -505 -244
-383 -188 -390 -192 -390 -169 0 9 -4 16 -10 16 -5 0 -13 12 -16 28 -4 15 -14
35 -22 45 -8 9 -11 17 -7 17 5 0 -2 11 -15 25 -17 18 -21 31 -17 55 5 23 3 30
-9 30 -13 0 -15 -7 -10 -37 11 -61 56 -205 78 -250 18 -36 23 -40 35 -27 8 8
19 11 25 8 7 -5 8 -2 3 6 -6 10 -4 12 9 7 9 -4 15 -3 12 2 -4 5 22 22 57 38
34 17 70 38 80 47 9 10 17 15 17 11 0 -3 12 5 27 19 28 27 359 193 428 216 44
15 92 17 120 6 16 -6 16 -4 4 11 -13 15 -12 16 8 11 12 -3 31 1 42 9 16 11 25
11 42 2 15 -8 19 -8 15 0 -4 6 0 11 8 11 9 0 16 5 16 11 0 5 3 8 8 5 11 -6 84
29 75 37 -3 4 9 8 28 9 56 2 58 3 78 20 30 25 96 16 178 -26 40 -20 74 -36 77
-36 2 0 3 8 1 18 -1 10 -11 17 -24 16 -11 0 -21 3 -21 7 0 4 -48 31 -107 60
-60 29 -115 58 -124 66 -9 8 -19 9 -25 4z"/>
<path d="M5974 12842 c0 -10 8 -19 17 -19 16 -2 17 0 1 18 -9 10 -17 19 -17
19 0 0 -1 -8 -1 -18z"/>
<path d="M6030 12797 c0 -8 7 -17 15 -21 8 -3 15 -2 15 3 0 5 -7 14 -15 21
-12 10 -15 10 -15 -3z"/>
<path d="M5610 12686 c0 -2 7 -7 16 -10 8 -3 12 -2 9 4 -6 10 -25 14 -25 6z"/>
<path d="M6208 12387 c12 -7 19 -17 15 -23 -4 -5 -1 -3 7 3 16 15 14 18 -20
27 l-25 7 23 -14z"/>
<path d="M4138 12183 c7 -3 16 -2 19 1 4 3 -2 6 -13 5 -11 0 -14 -3 -6 -6z"/>
<path d="M7820 8447 c0 -42 2 -46 30 -52 17 -4 28 -11 24 -16 -3 -5 -9 -7 -13
-5 -4 3 -13 0 -21 -5 -11 -6 -2 -9 28 -7 23 2 42 8 41 13 0 6 -21 34 -45 64
l-44 53 0 -45z"/>
<path d="M2357 1896 c-88 -24 -146 -105 -147 -204 0 -122 83 -205 205 -205 68
0 130 26 164 69 28 35 27 38 -14 53 -33 11 -36 11 -57 -14 -28 -32 -93 -44
-138 -25 -88 36 -104 177 -27 232 46 33 125 32 161 -1 26 -24 27 -24 62 -7
l37 17 -28 29 c-54 57 -137 78 -218 56z"/>
<path d="M3540 1895 c-17 -20 -5 -61 19 -68 25 -6 61 19 61 42 0 38 -55 56
-80 26z"/>
<path d="M6317 1903 c-4 -3 -7 -19 -7 -35 0 -51 69 -57 85 -8 4 12 1 27 -5 35
-13 15 -61 20 -73 8z"/>
<path d="M6784 1896 c-3 -8 -4 -25 -2 -38 2 -18 10 -24 35 -26 39 -4 60 25 43
58 -13 24 -68 28 -76 6z"/>
<path d="M5000 1860 l0 -40 65 0 65 0 0 -165 0 -165 40 0 40 0 2 168 c3 188
-7 167 88 171 45 1 46 2 45 34 l0 32 -172 3 -173 2 0 -40z"/>
<path d="M6152 1825 c2 -41 1 -75 -1 -75 -2 0 -13 8 -23 17 -25 22 -96 21
-131 -2 -39 -25 -58 -68 -58 -130 0 -95 45 -145 133 -145 24 0 54 7 66 16 20
14 22 14 22 0 0 -12 10 -16 35 -16 l35 0 0 205 0 205 -41 0 -41 0 4 -75z m-17
-130 c17 -16 25 -35 25 -58 0 -94 -111 -121 -139 -34 -29 87 54 153 114 92z"/>
<path d="M7960 1695 l0 -205 40 0 40 0 0 205 0 205 -40 0 -40 0 0 -205z"/>
<path d="M4344 1851 c-2 -2 -4 -19 -4 -38 0 -26 -4 -33 -20 -33 -15 0 -20 -7
-20 -25 0 -36 3 -40 23 -37 15 3 17 -7 17 -88 0 -83 2 -93 25 -115 19 -20 34
-25 75 -25 49 0 50 1 50 29 0 26 -4 30 -32 33 l-33 3 -3 83 -3 82 36 0 c32 0
35 2 35 30 0 28 -3 30 -35 30 -34 0 -35 1 -35 39 0 39 -1 40 -36 38 -19 -1
-37 -4 -40 -6z"/>
<path d="M2726 1775 c-21 -7 -46 -21 -55 -30 -15 -15 -14 -17 8 -34 23 -17 25
-17 60 2 47 25 91 12 91 -28 0 -24 -3 -25 -55 -25 -116 0 -169 -68 -109 -139
22 -27 33 -31 73 -31 26 0 56 7 67 15 25 19 34 19 34 0 0 -10 11 -15 35 -15
l35 0 0 105 c0 111 -12 155 -48 174 -34 18 -97 21 -136 6z m104 -185 c0 -46
-71 -70 -101 -34 -24 29 14 60 79 63 18 1 22 -4 22 -29z"/>
<path d="M3120 1779 c-13 -6 -33 -17 -42 -26 -17 -15 -18 -15 -18 5 0 18 -6
22 -35 22 l-35 0 0 -145 0 -145 35 0 35 0 1 75 c1 41 3 80 4 85 1 6 3 16 4 24
3 39 71 62 99 34 8 -8 12 -48 12 -115 l0 -103 40 0 40 0 0 98 c0 109 11 132
62 132 46 0 58 -27 58 -133 l0 -97 40 0 40 0 0 100 c0 149 -24 191 -111 194
-25 0 -48 -7 -69 -23 -28 -20 -33 -21 -43 -7 -12 16 -59 36 -80 35 -7 0 -23
-5 -37 -10z"/>
<path d="M3753 1779 c-17 -5 -41 -21 -52 -35 -46 -59 -11 -114 83 -134 59 -12
77 -30 56 -55 -17 -21 -59 -19 -99 6 l-34 20 -21 -21 -21 -21 23 -19 c34 -28
90 -40 145 -31 56 9 84 33 93 78 9 45 -35 89 -99 98 -62 9 -86 27 -68 49 17
20 53 20 92 0 28 -14 32 -14 50 2 15 13 16 20 7 31 -26 32 -102 48 -155 32z"/>
<path d="M4076 1780 c-116 -37 -143 -207 -41 -270 45 -28 138 -28 184 1 l33
20 -22 24 c-21 22 -25 23 -44 10 -33 -24 -102 -19 -120 7 -9 12 -16 26 -16 30
0 5 47 8 105 8 l105 0 0 38 c0 93 -94 160 -184 132z m96 -81 c26 -31 14 -39
-58 -39 -73 0 -83 14 -37 50 32 25 69 20 95 -11z"/>
<path d="M4615 1775 c-21 -8 -45 -21 -54 -29 -14 -15 -13 -18 6 -38 21 -20 23
-21 41 -5 21 20 82 23 100 5 7 -7 12 -20 12 -30 0 -15 -9 -18 -50 -18 -90 0
-140 -34 -140 -95 0 -43 41 -75 97 -75 28 0 58 7 71 16 20 14 22 14 22 0 0
-11 10 -16 34 -16 l34 0 7 83 c3 46 3 100 0 120 -8 41 -53 87 -88 88 -12 0
-29 2 -38 4 -8 1 -33 -3 -54 -10z m105 -184 c0 -29 -34 -53 -72 -49 -29 3 -33
6 -33 33 0 28 3 30 45 35 53 7 60 5 60 -19z"/>
<path d="M6562 1780 c-71 -17 -122 -101 -107 -178 8 -45 59 -97 107 -110 53
-15 126 5 157 41 10 12 7 19 -16 35 -28 20 -29 20 -52 1 -40 -33 -83 -23 -107
23 -42 82 38 163 107 110 22 -18 26 -18 51 -3 25 16 26 18 10 38 -17 22 -81
54 -104 52 -7 -1 -28 -5 -46 -9z"/>
<path d="M7027 1776 c-51 -19 -73 -40 -93 -92 -58 -153 146 -273 254 -150 103
118 -14 294 -161 242z m98 -81 c50 -49 17 -145 -50 -145 -38 0 -75 42 -75 85
0 43 37 85 75 85 14 0 37 -11 50 -25z"/>
<path d="M7426 1779 c-15 -4 -37 -16 -47 -25 -18 -16 -19 -16 -19 4 0 18 -6
22 -35 22 l-35 0 0 -145 0 -145 40 0 40 0 0 100 c0 95 1 100 25 116 33 21 73
11 85 -22 6 -14 10 -63 10 -110 l0 -84 35 0 35 0 0 115 c0 111 -1 116 -27 144
-32 33 -65 43 -107 30z"/>
<path d="M7704 1779 c-17 -5 -39 -18 -49 -29 -18 -20 -18 -21 2 -41 l20 -20
35 21 c39 23 80 16 92 -15 11 -30 7 -33 -64 -37 -84 -4 -120 -30 -120 -85 0
-71 85 -107 160 -68 25 13 29 13 34 0 3 -10 19 -15 42 -15 l36 0 -3 114 c-4
105 -6 117 -28 140 -23 25 -78 47 -111 45 -8 0 -29 -5 -46 -10z m104 -186 c-6
-55 -108 -73 -108 -19 0 27 30 44 78 45 30 1 33 -1 30 -26z"/>
<path d="M3536 1758 c-3 -13 -6 -78 -6 -145 l0 -123 40 0 40 0 0 145 0 145
-34 0 c-26 0 -35 -5 -40 -22z"/>
<path d="M5390 1635 l0 -145 40 0 40 0 0 88 c0 105 12 129 68 134 34 3 37 6
40 36 3 30 1 32 -28 32 -20 0 -40 -9 -56 -25 -14 -14 -27 -25 -31 -25 -3 0 -3
11 -1 25 5 23 2 25 -33 25 l-39 0 0 -145z"/>
<path d="M5680 1773 c-8 -3 -25 -15 -37 -26 l-22 -20 25 -19 c23 -19 26 -19
43 -3 38 33 111 16 111 -26 0 -16 -8 -19 -50 -19 -117 0 -176 -71 -119 -144
17 -22 28 -26 73 -26 30 0 61 6 74 16 20 14 22 14 22 0 0 -12 10 -16 38 -16
l37 0 0 114 c0 113 0 115 -29 145 -27 28 -35 31 -90 30 -34 0 -68 -3 -76 -6z
m120 -177 c0 -43 -69 -73 -98 -44 -33 33 -1 66 66 67 27 1 32 -2 32 -23z"/>
<path d="M6310 1635 l0 -145 40 0 40 0 0 145 0 145 -40 0 -40 0 0 -145z"/>
<path d="M6784 1767 c-2 -7 -3 -71 -2 -143 l3 -129 38 -3 37 -3 0 145 0 146
-35 0 c-20 0 -38 -6 -41 -13z"/>
<path d="M5200 1220 c-12 -8 -11 -10 8 -10 12 0 22 5 22 10 0 13 -11 13 -30 0z"/>
<path d="M3193 1175 c-38 -16 -57 -62 -50 -121 9 -87 83 -123 144 -70 25 22
28 31 28 84 0 49 -4 65 -23 85 -29 31 -61 38 -99 22z m81 -37 c23 -33 21 -113
-4 -138 -69 -69 -147 68 -82 143 22 24 67 22 86 -5z"/>
<path d="M3433 1182 c-40 -6 -63 -48 -63 -114 0 -49 4 -63 25 -83 50 -51 142
-17 147 54 7 106 -30 155 -109 143z m71 -44 c23 -32 20 -100 -5 -132 -43 -54
-109 -13 -109 68 0 57 22 86 65 86 24 0 39 -7 49 -22z"/>
<path d="M4692 1179 c-41 -12 -72 -60 -72 -112 0 -54 52 -107 104 -107 75 0
116 42 116 120 0 33 -6 48 -29 71 -16 16 -36 29 -44 29 -9 0 -21 2 -29 4 -7 2
-28 0 -46 -5z m95 -29 c1 0 9 -13 18 -30 23 -44 19 -78 -14 -111 -35 -35 -77
-38 -114 -9 -75 59 -15 185 77 159 17 -5 32 -9 33 -9z"/>
<path d="M5424 1176 c-45 -20 -74 -62 -74 -108 0 -32 7 -47 34 -74 28 -28 42
-34 76 -34 34 0 48 6 76 34 28 28 34 41 34 78 0 52 -21 85 -66 104 -40 17 -41
17 -80 0z m101 -48 c22 -26 26 -39 21 -67 -11 -71 -86 -103 -140 -60 -21 17
-26 29 -26 68 0 62 25 91 80 91 31 0 43 -6 65 -32z"/>
<path d="M3027 1162 c-20 -22 -24 -53 -5 -34 23 23 28 11 28 -78 0 -53 4 -90
10 -90 6 0 10 43 10 110 0 116 -7 132 -43 92z"/>
<path d="M3607 1173 c-12 -11 -8 -68 5 -81 17 -17 42 -15 61 6 20 22 22 53 5
70 -13 13 -60 16 -71 5z m58 -38 c0 -23 -5 -31 -21 -33 -24 -3 -38 20 -28 50
4 13 13 18 27 16 17 -2 22 -10 22 -33z"/>
<path d="M3700 1084 c-79 -116 -83 -124 -72 -124 8 0 52 62 136 193 10 15 14
27 10 27 -5 0 -38 -44 -74 -96z"/>
<path d="M4002 1108 c-62 -144 -64 -148 -48 -148 8 0 19 14 25 30 9 28 13 30
65 30 52 0 57 -2 71 -30 9 -16 20 -30 25 -30 14 0 15 -6 -33 111 -24 57 -51
105 -59 107 -9 2 -25 -22 -46 -70z m68 -4 c11 -26 20 -50 20 -55 0 -5 -21 -9
-46 -9 -25 0 -44 3 -42 8 2 4 11 28 22 55 10 26 20 47 22 47 2 0 12 -21 24
-46z"/>
<path d="M4200 1070 l0 -110 64 0 c36 0 68 5 71 10 4 6 -17 10 -54 10 l-61 0
0 100 c0 60 -4 100 -10 100 -6 0 -10 -43 -10 -110z"/>
<path d="M4407 1160 c-53 -42 -56 -130 -7 -175 28 -25 100 -31 138 -11 29 15
32 21 32 61 0 43 -1 45 -27 44 -29 0 -75 -16 -58 -19 6 -1 22 -1 38 0 23 1 27
-2 27 -24 0 -31 -34 -56 -76 -56 -24 0 -39 8 -58 31 -73 86 33 205 117 131 9
-8 20 -12 25 -8 4 4 -4 16 -17 27 -32 26 -100 25 -134 -1z"/>
<path d="M4900 1069 l0 -111 65 4 c50 3 70 9 90 28 49 46 41 146 -15 175 -16
8 -54 15 -85 15 l-55 0 0 -111z m134 70 c21 -16 26 -29 26 -64 0 -63 -24 -88
-86 -89 l-49 -1 -3 88 -3 87 44 0 c30 0 53 -7 71 -21z"/>
<path d="M5198 1158 c-16 -25 -78 -175 -78 -189 0 -21 22 -6 31 21 10 29 13
30 69 30 56 0 59 -1 69 -30 5 -16 15 -30 22 -30 12 0 14 -4 -39 127 -20 51
-42 93 -48 93 -7 0 -18 -10 -26 -22z m45 -57 c9 -27 17 -51 17 -55 0 -3 -20
-6 -44 -6 l-44 0 21 55 c11 30 23 55 26 55 3 0 14 -22 24 -49z"/>
<path d="M5720 1070 c0 -91 3 -110 15 -110 11 0 15 12 15 45 l0 45 48 0 c57 0
82 20 82 67 0 46 -26 63 -98 63 l-62 0 0 -110z m124 74 c19 -18 20 -28 6 -55
-8 -14 -21 -19 -55 -19 l-45 0 0 45 0 45 39 0 c23 0 46 -7 55 -16z"/>
<path d="M5940 1070 c0 -67 4 -110 10 -110 6 0 10 20 10 45 0 44 1 45 33 45
28 0 36 -6 57 -45 14 -25 31 -45 38 -45 10 0 7 12 -11 43 l-24 44 24 21 c28
25 30 65 3 92 -16 16 -33 20 -80 20 l-60 0 0 -110z m118 78 c18 -18 14 -56 -7
-68 -11 -5 -36 -10 -55 -10 -36 0 -36 0 -36 45 l0 45 43 0 c24 0 48 -5 55 -12z"/>
<path d="M6160 1070 l0 -110 75 0 c43 0 75 4 75 10 0 6 -28 10 -65 10 l-65 0
0 40 0 40 55 0 c70 0 72 18 3 22 l-53 3 -3 38 -3 37 65 0 c37 0 66 4 66 10 0
6 -32 10 -75 10 l-75 0 0 -110z"/>
<path d="M6370 1071 c0 -132 18 -151 22 -23 l3 87 40 -72 c22 -40 42 -73 45
-73 3 0 23 33 45 73 l40 72 3 -87 c4 -128 22 -109 22 22 0 134 -10 140 -65 40
-21 -38 -42 -70 -46 -70 -5 0 -23 30 -42 68 -19 37 -41 68 -50 70 -15 3 -17
-9 -17 -107z"/>
<path d="M6660 1070 c0 -91 3 -110 15 -110 12 0 15 19 15 110 0 91 -3 110 -15
110 -12 0 -15 -19 -15 -110z"/>
<path d="M6759 1123 c-3 -102 0 -117 27 -140 25 -23 74 -30 109 -17 29 12 45
60 45 139 0 53 -4 75 -12 75 -9 0 -14 -25 -16 -82 -4 -93 -17 -118 -64 -118
-51 0 -68 29 -68 120 0 92 -19 112 -21 23z"/>
<path d="M7010 1070 c0 -131 18 -150 22 -22 l3 87 39 -72 c21 -40 41 -73 45
-73 3 0 24 33 46 73 l40 72 3 -87 c4 -128 22 -109 22 22 0 125 -10 139 -50 68
-12 -24 -32 -58 -43 -77 l-20 -34 -39 77 c-55 110 -68 103 -68 -34z"/>
<path d="M3732 1048 c-28 -28 -3 -88 37 -88 25 0 41 20 41 50 0 31 -17 50 -45
50 -12 0 -26 -5 -33 -12z m46 -7 c22 -13 11 -66 -13 -66 -21 0 -32 32 -21 61
6 16 15 17 34 5z"/>
</g>
</svg>
