<?xml version="1.0" standalone="no"?>
<!DOCTYPE svg PUBLIC "-//W3C//DTD SVG 20010904//EN"
 "http://www.w3.org/TR/2001/REC-SVG-20010904/DTD/svg10.dtd">
<svg version="1.0" xmlns="http://www.w3.org/2000/svg"
 width="1024.000000pt" height="1536.000000pt" viewBox="0 0 1024.000000 1536.000000"
 preserveAspectRatio="xMidYMid meet">

<g transform="translate(0.000000,1536.000000) scale(0.100000,-0.100000)"
fill="#000000" stroke="none">
<path d="M5030 14161 c-68 -22 -150 -80 -142 -100 1 -3 -4 -6 -10 -6 -7 -1
-12 -6 -10 -13 1 -7 -5 -27 -13 -45 -8 -18 -10 -23 -3 -13 36 55 89 102 143
128 52 25 71 28 135 27 81 -3 109 -13 167 -60 27 -22 25 -19 -7 11 -25 23 -58
49 -75 57 -34 18 -148 27 -185 14z"/>
<path d="M4811 13956 c-7 -8 -22 -17 -35 -20 -25 -6 -31 -36 -7 -36 15 1 62
30 48 30 -4 0 -3 9 3 20 12 23 8 26 -9 6z"/>
<path d="M5356 13785 c-9 -26 -7 -32 5 -12 6 10 9 21 6 23 -2 3 -7 -2 -11 -11z"/>
<path d="M5321 13746 c-8 -13 -42 -50 -77 -81 -59 -52 -106 -110 -73 -90 9 6
10 3 5 -10 -4 -11 20 8 53 40 33 32 59 61 58 64 -1 3 11 23 26 43 16 21 27 42
25 49 -2 6 -10 -1 -17 -15z m-129 -158 c-7 -7 -12 -8 -12 -2 0 14 12 26 19 19
2 -3 -1 -11 -7 -17z"/>
<path d="M5760 12853 c0 -5 10 -19 21 -33 11 -14 18 -19 14 -13 -4 9 3 12 24
9 26 -3 29 -1 21 14 -5 10 -17 20 -26 24 -22 8 -54 8 -54 -1z"/>
<path d="M5826 12758 c4 -7 28 -37 53 -67 41 -48 46 -51 54 -33 7 16 2 28 -24
56 -18 20 -34 34 -37 32 -2 -3 -11 1 -19 9 -18 18 -37 20 -27 3z"/>
<path d="M4380 12713 c-8 -4 -23 -16 -34 -27 -10 -12 -22 -20 -26 -19 -17 5
41 -215 85 -322 l15 -35 138 70 c75 38 195 101 266 139 101 54 136 68 160 65
17 -3 45 0 61 5 l30 9 -30 2 c-16 1 -37 1 -45 0 -8 -1 -12 1 -8 5 3 4 57 7
120 8 62 1 119 6 125 10 15 10 -35 60 -77 77 -25 10 -40 5 -139 -44 -61 -31
-111 -60 -111 -64 0 -5 -6 -9 -13 -9 -7 0 -93 -40 -191 -89 -160 -81 -178 -87
-187 -71 -6 9 -14 15 -20 12 -9 -6 -13 8 -10 33 1 6 -5 12 -12 12 -15 0 -24
20 -48 100 -7 25 -17 48 -21 51 -11 7 -13 50 -3 72 7 17 1 20 -25 10z"/>
<path d="M7692 7760 c0 -14 2 -19 5 -12 2 6 2 18 0 25 -3 6 -5 1 -5 -13z"/>
<path d="M7704 7724 c-3 -25 -2 -92 3 -147 l10 -102 1 148 c1 81 0 147 -2 147
-3 0 -8 -21 -12 -46z"/>
<path d="M7712 7445 c0 -16 2 -22 5 -12 2 9 2 23 0 30 -3 6 -5 -1 -5 -18z"/>
<path d="M2386 4368 c-8 -24 -18 -54 -21 -68 -6 -23 -5 -23 6 -5 18 30 19 31
29 15 7 -10 10 3 10 43 0 31 -2 57 -4 57 -2 0 -11 -19 -20 -42z"/>
<path d="M7911 4320 c-2 -39 30 -573 35 -579 2 -2 10 4 19 12 9 9 23 13 32 10
11 -4 14 -3 9 5 -4 7 -5 12 -1 12 11 0 22 -45 15 -60 -6 -12 -3 -16 11 -17 25
-2 32 12 19 39 -9 20 -9 21 2 7 7 -9 20 -14 28 -11 12 4 13 2 3 -9 -7 -7 -13
-17 -13 -22 0 -4 6 -5 13 -1 8 5 8 2 -2 -9 -17 -22 1 -23 33 -1 18 11 26 12
32 3 4 -7 3 -9 -4 -5 -19 12 -23 -13 -6 -39 9 -14 12 -25 5 -25 -5 0 -8 -7 -5
-15 6 -15 54 -22 54 -7 -1 4 -7 34 -14 67 -9 44 -26 79 -65 132 -66 90 -168
347 -190 477 -5 28 -9 44 -10 36z m82 -470 c-4 -17 -23 -29 -23 -16 0 2 -3 12
-6 20 -5 12 -2 15 12 9 13 -5 15 -3 9 7 -5 8 -4 11 3 7 5 -4 8 -16 5 -27z
m-20 -66 c-13 -9 -19 -9 -22 -1 -2 6 1 13 8 15 6 2 8 9 4 15 -4 7 1 6 10 -2
16 -13 16 -14 0 -27z m67 16 c-18 -12 -30 -13 -30 -2 0 4 10 9 22 9 18 2 20 0
8 -7z m130 -155 c0 -8 -2 -15 -4 -15 -2 0 -6 7 -10 15 -3 8 -1 15 4 15 6 0 10
-7 10 -15z"/>
<path d="M2350 4241 c0 -6 4 -13 10 -16 6 -3 7 1 4 9 -7 18 -14 21 -14 7z"/>
<path d="M7975 3739 c-3 -4 2 -6 10 -5 21 3 28 13 10 13 -9 0 -18 -4 -20 -8z"/>
<path d="M7980 3698 c-12 -22 -12 -22 6 -6 10 10 15 20 12 24 -4 3 -12 -5 -18
-18z"/>
<path d="M8080 3660 c0 -5 6 -10 14 -10 8 0 18 5 21 10 3 6 -3 10 -14 10 -12
0 -21 -4 -21 -10z"/>
<path d="M8192 3565 c0 -16 2 -22 5 -12 2 9 2 23 0 30 -3 6 -5 -1 -5 -18z"/>
<path d="M8150 3552 c0 -10 22 -32 32 -32 4 0 5 6 2 14 -6 16 -34 30 -34 18z"/>
<path d="M8115 3540 c-3 -6 1 -7 9 -4 18 7 21 14 7 14 -6 0 -13 -4 -16 -10z"/>
<path d="M8196 3515 c-3 -8 -1 -15 4 -15 6 0 10 7 10 15 0 8 -2 15 -4 15 -2 0
-6 -7 -10 -15z"/>
<path d="M8150 3496 c0 -2 7 -6 15 -10 8 -3 15 -1 15 4 0 6 -7 10 -15 10 -8 0
-15 -2 -15 -4z"/>
<path d="M8106 3481 c-3 -5 1 -11 9 -14 9 -4 12 -1 8 9 -6 16 -10 17 -17 5z"/>
</g>
</svg>
