<svg version="1.1" id="Layer_1" xmlns="http://www.w3.org/2000/svg" xmlns:xlink="http://www.w3.org/1999/xlink" x="0px" y="0px"
	 width="100%" viewBox="0 0 4608 3456" enable-background="new 0 0 4608 3456" xml:space="preserve">
<path fill="#000000" opacity="1.000000" stroke="none" 
	d="
M2818.000000,3458.000000 
	C1878.666626,3458.000000 940.333313,3458.000000 2.000000,3458.000000 
	C2.000000,2306.000000 2.000000,1154.000000 2.000000,2.000000 
	C1538.000000,2.000000 3074.000000,2.000000 4610.000000,2.000000 
	C4610.000000,1154.000000 4610.000000,2306.000000 4610.000000,3458.000000 
	C4013.000000,3458.000000 3416.000000,3458.000000 2818.000000,3458.000000 
M3203.191650,1525.051636 
	C3194.064453,1536.503906 3184.958008,1547.972778 3175.806396,1559.405518 
	C3145.454834,1597.323608 3113.295410,1633.694580 3079.505859,1668.532104 
	C3056.614990,1692.132812 3032.637939,1714.736328 3008.353760,1736.917603 
	C2955.640381,1785.066162 2898.807617,1827.724121 2836.976074,1863.648804 
	C2774.940430,1899.692261 2709.683594,1927.729126 2639.984619,1945.251709 
	C2597.423828,1955.951660 2554.281250,1962.430054 2510.454834,1964.175537 
	C2504.920654,1964.395874 2501.724854,1966.733032 2499.594727,1971.201782 
	C2497.312744,1975.988403 2495.291016,1980.902710 2493.260498,1985.804688 
	C2488.723633,1996.757080 2484.251709,2007.736572 2479.350342,2019.687378 
	C2482.968750,2019.687378 2485.222900,2019.682373 2487.477051,2019.687988 
	C2514.060059,2019.754639 2540.462402,2017.385742 2566.830078,2014.192627 
	C2606.083496,2009.439331 2644.338379,2000.448120 2681.929688,1988.310913 
	C2741.777588,1968.987793 2797.261475,1940.724365 2849.852539,1906.565308 
	C2904.998047,1870.747314 2955.086670,1828.629761 3001.802246,1782.520508 
	C3020.718750,1763.849243 3038.813721,1744.289185 3056.492432,1724.430542 
	C3111.702637,1662.413696 3161.172852,1596.007202 3207.544189,1525.725830 
	C3211.188721,1520.021606 3214.833496,1514.317383 3218.478027,1508.613159 
	C3217.775635,1508.128662 3217.073242,1507.644165 3216.370850,1507.159668 
	C3212.270752,1512.791260 3208.170654,1518.422974 3203.191650,1525.051636 
M1435.513184,1662.132690 
	C1435.513184,1662.132690 1435.954346,1661.930786 1435.954346,1661.930786 
	C1435.954346,1661.930786 1435.517700,1661.930664 1436.422852,1663.095825 
	C1449.653076,1688.404175 1462.101074,1714.159546 1476.262817,1738.935425 
	C1516.002197,1808.459351 1565.206787,1870.722290 1623.959961,1925.134888 
	C1658.638550,1957.251465 1696.485229,1985.458252 1737.011475,2009.902344 
	C1773.488037,2031.903809 1811.498901,2050.906494 1851.233887,2066.276367 
	C1887.695679,2080.380371 1924.949341,2091.903320 1963.015503,2101.105225 
	C2002.677979,2110.693359 2042.839233,2116.975586 2083.202637,2122.177734 
	C2102.888672,2124.715088 2122.740723,2126.026855 2142.542969,2127.566162 
	C2149.428223,2128.101318 2156.389893,2127.651367 2163.257812,2127.651367 
	C2163.945801,2124.743652 2164.381836,2122.817627 2164.857910,2120.901367 
	C2168.845459,2104.846680 2161.358887,2094.474854 2145.147217,2092.240234 
	C2121.225830,2088.942871 2097.164062,2086.097656 2073.566162,2081.136475 
	C2019.651489,2069.801758 1967.278198,2053.270996 1916.454956,2031.819946 
	C1854.143188,2005.519775 1795.270996,1972.978149 1739.225586,1935.243408 
	C1701.669556,1909.957520 1665.587402,1882.687378 1630.998535,1853.469238 
	C1593.659912,1821.928467 1557.364624,1789.213013 1523.464355,1753.989258 
	C1496.043823,1725.498291 1469.441040,1696.221069 1442.393799,1667.369263 
	C1440.506592,1665.356079 1437.941528,1663.978271 1435.513184,1662.132690 
M2998.189941,136.537003 
	C2976.285889,135.592819 2954.371826,134.825348 2932.483887,133.595230 
	C2926.038086,133.232956 2922.257080,134.802826 2919.367432,141.175262 
	C2907.850830,166.572449 2895.736328,191.699570 2883.754150,216.884445 
	C2860.630615,265.488037 2837.500000,314.088654 2814.270752,362.641724 
	C2794.345215,404.289062 2774.181152,445.822266 2754.298340,487.489899 
	C2732.001221,534.218201 2709.966797,581.071899 2687.697266,627.813477 
	C2665.116699,675.207581 2642.360352,722.518066 2619.732910,769.889893 
	C2594.814941,822.057861 2570.011475,874.280579 2545.057617,926.431396 
	C2516.537598,986.034546 2487.869385,1045.566772 2459.334717,1105.162964 
	C2433.513916,1159.091431 2407.728271,1213.037109 2382.035889,1267.026855 
	C2361.608398,1309.953247 2341.362305,1352.966064 2320.987793,1395.917847 
	C2318.061768,1402.086182 2314.867188,1408.127075 2311.290283,1415.233765 
	C2109.481445,992.090332 1908.325684,570.315857 1707.223877,148.654694 
	C1587.799683,148.654694 1468.896240,148.654694 1350.133789,148.654694 
	C1349.859863,149.281784 1349.635498,149.580475 1349.612183,149.894104 
	C1349.564453,150.537231 1349.492798,151.226685 1349.667725,151.828262 
	C1350.037476,153.100693 1350.467041,154.372437 1351.031616,155.569153 
	C1670.768311,833.220276 1990.518555,1510.865112 2310.276855,2188.506104 
	C2310.415527,2188.799805 2310.637695,2189.147705 2310.906250,2189.253906 
	C2311.099121,2189.329834 2311.435059,2189.043945 2313.029541,2188.313965 
	C2629.972900,1509.439575 2947.384766,829.561340 3264.854736,149.558884 
	C3262.887451,148.819946 3262.310303,148.423401 3261.723145,148.408401 
	C3233.801758,147.695816 3205.879639,147.009171 3177.957275,146.336563 
	C3167.308838,146.080048 3156.642090,146.171188 3146.013916,145.570496 
	C3117.877197,143.980286 3089.762451,142.010254 3061.628906,140.362625 
	C3041.081787,139.159271 3020.518799,138.227676 2998.189941,136.537003 
M2678.590576,2446.489502 
	C2676.277588,2444.095215 2673.968750,2441.697021 2671.650879,2439.307373 
	C2660.027588,2427.323975 2647.337646,2416.711914 2632.010986,2409.759033 
	C2613.638672,2401.424805 2594.238037,2397.904053 2574.103516,2397.920166 
	C2499.138672,2397.979492 2424.173828,2397.976318 2349.208984,2397.950439 
	C2345.910645,2397.949219 2342.610840,2397.266113 2339.313965,2397.284912 
	C2321.586426,2397.386230 2303.730469,2393.837891 2284.740234,2399.185059 
	C2282.899170,2455.850342 2284.282959,2512.697021 2284.047119,2569.520264 
	C2283.812256,2626.157715 2283.909424,2682.796875 2283.889648,2739.435303 
	C2283.869873,2796.329590 2283.885254,2853.223633 2283.885254,2910.413086 
	C2287.836426,2911.304688 2290.681152,2912.427734 2293.555420,2912.509033 
	C2304.524658,2912.819824 2315.503906,2912.859619 2326.479248,2912.879883 
	C2342.101318,2912.908691 2357.724121,2912.913574 2373.345215,2912.775146 
	C2387.637695,2912.648682 2401.972656,2912.920898 2416.206299,2911.885986 
	C2427.625244,2911.055908 2427.580322,2910.212646 2427.587158,2899.010010 
	C2427.610596,2860.028809 2427.674561,2821.047852 2427.769775,2782.066650 
	C2427.775879,2779.537109 2428.175293,2777.008545 2428.417725,2774.175537 
	C2447.974121,2774.175537 2466.864014,2774.175537 2486.133057,2774.175537 
	C2492.611328,2784.661133 2499.164551,2795.027832 2505.478516,2805.538086 
	C2517.932617,2826.269043 2531.216309,2846.387451 2546.769043,2864.986572 
	C2561.046631,2882.060303 2577.556152,2896.476074 2597.944580,2905.371826 
	C2623.633301,2916.580322 2650.737793,2921.919678 2678.903809,2919.523438 
	C2696.408203,2918.034424 2713.861572,2915.891602 2731.302734,2913.755859 
	C2735.028564,2913.299561 2738.602539,2911.606445 2744.575928,2909.764893 
	C2726.821533,2883.009277 2708.181396,2859.084229 2690.911865,2834.235107 
	C2673.387207,2809.018799 2653.468750,2785.480469 2636.961914,2758.929443 
	C2640.118896,2756.707520 2642.569336,2755.063721 2644.933838,2753.304199 
	C2652.370361,2747.769775 2660.610352,2743.010254 2667.020996,2736.463867 
	C2681.186035,2721.998535 2693.054932,2705.913818 2701.192139,2686.924316 
	C2714.078125,2656.852051 2720.607666,2625.644287 2721.035400,2593.121338 
	C2721.389893,2566.150146 2718.232910,2539.690186 2710.897461,2513.495605 
	C2704.183105,2489.519043 2694.484863,2467.414062 2678.590576,2446.489502 
M1820.846191,2716.999512 
	C1820.828003,2743.989990 1820.569214,2770.983398 1820.889282,2797.969727 
	C1821.058350,2812.217285 1822.074341,2826.463135 1823.005981,2840.690430 
	C1823.858154,2853.707275 1826.512817,2866.384033 1832.965576,2877.872070 
	C1843.485596,2896.601318 1860.608276,2906.416504 1880.981689,2909.540283 
	C1896.198364,2911.873047 1911.621826,2913.917480 1927.354370,2911.959473 
	C1939.183350,2910.487549 1951.294556,2911.132568 1963.280884,2911.104736 
	C1997.602295,2911.025635 2031.924194,2911.003174 2066.245605,2911.109863 
	C2100.889893,2911.217529 2135.534424,2911.450195 2170.177734,2911.748779 
	C2181.703613,2911.848145 2193.230957,2912.653564 2204.749268,2912.503174 
	C2212.188965,2912.406006 2213.226318,2911.089355 2213.254639,2903.530762 
	C2213.363281,2874.557129 2213.330322,2845.582275 2213.197266,2816.608643 
	C2213.173096,2811.326660 2212.687988,2806.012207 2211.961426,2800.775879 
	C2210.945801,2793.456055 2209.682861,2792.476074 2202.278564,2792.459229 
	C2189.949707,2792.431396 2177.620850,2792.555176 2165.291992,2792.555664 
	C2104.979492,2792.557373 2044.666870,2792.571045 1984.354248,2792.506348 
	C1969.418335,2792.490479 1965.412231,2788.396973 1965.335938,2773.522461 
	C1965.262573,2759.201172 1965.270020,2744.879639 1965.247437,2730.558105 
	C1965.239136,2725.361816 1965.246216,2720.165283 1965.246216,2713.847412 
	C1975.219482,2714.427979 1983.730347,2715.314941 1992.244751,2715.350342 
	C2027.614868,2715.497314 2062.985840,2715.387939 2098.356689,2715.372803 
	C2118.987793,2715.364258 2139.618652,2715.379639 2160.249756,2715.319580 
	C2162.894043,2715.311768 2165.570312,2715.105469 2168.174561,2714.658203 
	C2175.502930,2713.399414 2175.835205,2713.014160 2175.857178,2705.777100 
	C2175.885742,2696.448486 2175.778076,2687.119629 2175.744385,2677.790771 
	C2175.663574,2655.471924 2175.637939,2633.153076 2175.496826,2610.834717 
	C2175.425781,2599.625244 2170.400635,2594.265869 2158.190674,2594.350342 
	C2097.550293,2594.769287 2036.905884,2594.540039 1976.262939,2594.539795 
	C1972.749512,2594.539551 1969.235962,2594.539795 1965.421997,2594.539795 
	C1965.421997,2587.507080 1965.408325,2581.899658 1965.424561,2576.292236 
	C1965.466187,2561.978760 1965.033813,2547.642090 1965.710449,2533.358398 
	C1966.361084,2519.626221 1970.680176,2516.117676 1984.582031,2516.102539 
	C2049.892578,2516.032715 2115.202881,2516.001465 2180.513428,2515.966553 
	C2188.772217,2515.962158 2197.045410,2516.328857 2205.285400,2515.950195 
	C2212.287842,2515.628418 2213.384033,2514.289062 2213.380615,2507.688721 
	C2213.364502,2474.701416 2213.250488,2441.713867 2213.176758,2408.726562 
	C2213.157471,2400.075439 2212.797363,2397.410889 2200.758545,2396.188965 
	C2198.448730,2395.954590 2196.094971,2396.073975 2193.764648,2396.142090 
	C2173.503418,2396.733887 2153.244629,2397.793701 2132.981934,2397.876953 
	C2074.336426,2398.117920 2015.689087,2397.969238 1957.042603,2397.972656 
	C1954.710083,2397.972656 1952.331787,2398.260742 1950.052124,2397.911133 
	C1928.495117,2394.604004 1906.908203,2396.685547 1885.535400,2398.818359 
	C1858.472168,2401.518799 1838.373657,2415.091797 1828.338501,2441.518799 
	C1823.200562,2455.048828 1821.684082,2469.258789 1821.159424,2483.413574 
	C1820.361694,2504.939697 1820.863892,2526.514404 1820.857178,2548.068604 
	C1820.840210,2603.712158 1820.846802,2659.355713 1820.846191,2716.999512 
M1539.081909,2715.214355 
	C1556.007935,2714.845703 1572.936035,2714.095703 1589.859619,2714.186279 
	C1627.074951,2714.385498 1664.287720,2715.026367 1701.502075,2715.451660 
	C1716.200562,2715.619629 1716.171265,2715.576660 1716.158569,2700.478027 
	C1716.134399,2671.821289 1716.180176,2643.164551 1716.113525,2614.507812 
	C1716.102783,2609.855957 1715.815918,2605.190674 1715.371338,2600.558838 
	C1715.049683,2597.205322 1712.990356,2595.103027 1709.542603,2594.774658 
	C1707.227783,2594.554443 1704.886475,2594.553223 1702.557007,2594.552246 
	C1640.584473,2594.530273 1578.611938,2594.521240 1516.639404,2594.509766 
	C1513.747681,2594.509277 1510.855957,2594.509766 1507.421631,2594.509766 
	C1507.421631,2572.600586 1507.181030,2551.700195 1507.533325,2530.810303 
	C1507.686401,2521.737305 1513.773193,2516.452148 1522.996948,2516.056885 
	C1526.656372,2515.899902 1530.326294,2515.968018 1533.991455,2515.968018 
	C1603.634766,2515.964111 1673.277954,2515.973145 1742.921265,2515.943359 
	C1746.424683,2515.941895 1749.927856,2515.608398 1753.422119,2515.429932 
	C1754.177124,2508.614746 1755.323853,2503.031006 1755.325439,2497.447021 
	C1755.333496,2469.204590 1755.108765,2440.961182 1754.795654,2412.720215 
	C1754.742310,2407.908691 1753.864136,2403.106201 1753.283325,2397.489990 
	C1740.345947,2397.070068 1728.471436,2396.308594 1716.603760,2396.404053 
	C1704.380127,2396.502441 1692.163940,2397.907959 1679.943237,2397.927734 
	C1600.304321,2398.056641 1520.665161,2397.951416 1441.026001,2397.972900 
	C1435.708496,2397.974365 1430.287476,2397.796143 1425.091309,2398.708008 
	C1402.485352,2402.674561 1383.723145,2412.367920 1373.621338,2434.501953 
	C1365.903320,2451.413086 1363.964722,2469.592041 1363.354492,2487.677490 
	C1362.502563,2512.932129 1363.458008,2538.244629 1363.466064,2563.532227 
	C1363.476318,2595.801270 1363.333984,2628.070557 1363.216919,2660.339600 
	C1363.148193,2679.301758 1362.866943,2698.263672 1362.920532,2717.225098 
	C1363.002441,2746.163086 1363.898315,2775.113281 1363.284058,2804.033691 
	C1362.858154,2824.089111 1364.370361,2843.684082 1369.723022,2862.998535 
	C1375.513184,2883.890869 1387.866455,2898.652100 1408.767822,2905.862305 
	C1425.296875,2911.564209 1442.506714,2911.939941 1459.630493,2912.702148 
	C1468.118652,2913.079590 1476.664062,2911.911377 1485.189331,2911.757080 
	C1504.148071,2911.414307 1523.112183,2910.983643 1542.070923,2911.098633 
	C1597.609985,2911.434814 1653.147461,2912.005615 1708.685303,2912.520508 
	C1719.971680,2912.625000 1731.256714,2913.053467 1742.541748,2913.028076 
	C1752.416748,2913.005859 1755.235352,2910.516602 1755.827759,2900.287354 
	C1756.267456,2892.692871 1755.402954,2885.031738 1755.377319,2877.399658 
	C1755.315796,2859.077881 1755.485596,2840.754883 1755.394531,2822.433594 
	C1755.359985,2815.488770 1755.315063,2808.490723 1754.470093,2801.615967 
	C1753.347290,2792.480225 1753.009033,2792.548584 1744.362671,2792.547607 
	C1672.053589,2792.540527 1599.743408,2792.324219 1527.436157,2792.683838 
	C1513.828003,2792.751465 1507.215332,2786.354248 1507.376831,2772.971436 
	C1507.589844,2755.318115 1507.390015,2737.659912 1507.425415,2720.003906 
	C1507.428467,2718.431641 1507.855591,2716.860352 1508.128174,2714.999512 
	C1518.142090,2714.999512 1527.632446,2714.999512 1539.081909,2715.214355 
M3574.381836,2397.675781 
	C3565.011719,2399.742188 3555.563965,2401.510254 3546.285400,2403.927734 
	C3511.295166,2413.044922 3483.541748,2432.798340 3462.447754,2461.980225 
	C3453.257080,2474.694336 3446.930664,2488.907715 3442.574463,2503.913574 
	C3439.909668,2513.093506 3437.191895,2522.405762 3436.040039,2531.846680 
	C3433.544434,2552.302246 3432.923096,2572.810791 3435.659180,2593.429443 
	C3438.239014,2612.871338 3444.603271,2630.876709 3454.665283,2647.407471 
	C3466.272461,2666.476318 3484.492188,2678.040039 3504.144775,2687.452637 
	C3528.985596,2699.349609 3555.603760,2704.718018 3582.715332,2707.595947 
	C3605.111816,2709.973145 3627.604980,2711.492676 3650.076660,2713.090088 
	C3669.265869,2714.453369 3688.464844,2714.882080 3707.103760,2720.913330 
	C3731.728760,2728.881348 3740.556152,2753.667236 3726.261230,2775.225586 
	C3719.076904,2786.060791 3708.497559,2790.771973 3696.766602,2793.943359 
	C3670.741455,2800.979492 3644.328369,2801.201904 3617.805664,2797.822266 
	C3599.101807,2795.438721 3582.754150,2788.030029 3570.128662,2773.593506 
	C3563.277100,2765.759033 3557.550049,2757.413086 3557.180420,2746.335205 
	C3556.915527,2738.396973 3554.988525,2736.919189 3546.643311,2736.712891 
	C3537.667480,2736.490723 3528.688965,2736.221436 3519.711914,2736.234619 
	C3493.423584,2736.273438 3467.134766,2736.384033 3440.847168,2736.596191 
	C3432.980225,2736.659668 3430.485596,2738.246338 3430.651367,2744.273682 
	C3430.970215,2755.857910 3431.237549,2767.564453 3433.126465,2778.954834 
	C3435.669678,2794.290527 3440.766846,2809.009521 3445.820312,2823.788818 
	C3457.614502,2858.282471 3482.114258,2880.274170 3513.750244,2895.214600 
	C3530.454102,2903.102783 3548.225342,2908.495361 3566.814697,2910.620850 
	C3577.984375,2911.897461 3589.050781,2914.507080 3600.238525,2915.101074 
	C3616.843994,2915.982422 3633.516113,2915.703369 3650.160156,2915.747070 
	C3680.436035,2915.826904 3710.505127,2913.604004 3739.783203,2905.402588 
	C3760.950195,2899.472656 3781.489990,2891.843262 3799.164062,2878.176514 
	C3812.873779,2867.575439 3825.830811,2856.076904 3834.369629,2840.773438 
	C3845.912354,2820.085449 3854.458252,2798.218018 3856.650879,2774.340820 
	C3859.355713,2744.881836 3860.136963,2715.642822 3850.518555,2686.915527 
	C3843.376465,2665.584229 3830.474854,2649.009766 3812.332275,2636.293457 
	C3784.060059,2616.478027 3751.639404,2608.412354 3718.053467,2604.747070 
	C3690.380371,2601.727295 3662.569580,2599.820801 3634.778076,2598.088867 
	C3618.687012,2597.086182 3603.403564,2593.306885 3588.466797,2587.690186 
	C3578.127930,2583.802979 3569.468506,2577.663086 3566.147217,2566.579590 
	C3561.401123,2550.742676 3567.980469,2525.715576 3584.687012,2515.632812 
	C3594.825195,2509.513916 3605.829590,2505.486328 3617.602295,2505.238770 
	C3634.223389,2504.888672 3650.928955,2504.893555 3667.475098,2506.251221 
	C3675.073975,2506.874512 3682.729248,2510.362793 3689.742676,2513.806885 
	C3703.037598,2520.335449 3709.880127,2532.443604 3714.972412,2545.755127 
	C3718.327881,2554.527100 3719.887451,2563.534912 3719.972900,2572.934326 
	C3720.033691,2579.644043 3722.667725,2581.713867 3729.224365,2581.624023 
	C3734.177246,2581.556396 3739.131836,2581.634277 3744.085693,2581.622803 
	C3771.036621,2581.560303 3797.989990,2581.659180 3824.937012,2581.301270 
	C3831.431396,2581.215088 3837.905518,2579.608154 3843.999512,2578.754883 
	C3844.685791,2576.858398 3845.232178,2575.957031 3845.308350,2575.017334 
	C3845.496582,2572.699951 3845.708496,2570.342529 3845.491943,2568.040527 
	C3843.035889,2541.956299 3840.473389,2515.996338 3830.227783,2491.332275 
	C3820.583740,2468.116943 3806.457764,2448.308105 3787.096924,2432.706787 
	C3761.454102,2412.043213 3731.334229,2400.699951 3698.985107,2396.309326 
	C3678.971191,2393.592773 3658.600098,2392.270020 3638.407715,2392.444824 
	C3617.590088,2392.625244 3596.794434,2395.380371 3574.381836,2397.675781 
M1159.109863,2799.983398 
	C1160.003540,2797.477051 1160.762817,2794.913330 1161.810791,2792.473145 
	C1180.235352,2749.574707 1198.953491,2706.799805 1217.054321,2663.765381 
	C1228.730225,2636.006348 1239.310059,2607.787842 1250.736816,2579.921387 
	C1273.526001,2524.343750 1296.575317,2468.872803 1319.478760,2413.342285 
	C1323.399048,2403.837402 1321.049561,2399.586914 1310.851685,2398.643555 
	C1299.649902,2397.607178 1288.398560,2396.821777 1277.155151,2396.592041 
	C1263.501343,2396.312500 1249.832031,2396.647217 1236.171753,2396.862305 
	C1217.927734,2397.149414 1199.685913,2397.806641 1181.443359,2397.799561 
	C1176.181152,2397.797363 1173.454956,2399.993896 1171.585327,2404.302979 
	C1168.562378,2411.270264 1165.374634,2418.172119 1162.560303,2425.222656 
	C1152.871460,2449.495117 1143.347656,2473.833008 1133.697266,2498.120850 
	C1124.538086,2521.172607 1115.384521,2544.227051 1106.067993,2567.215576 
	C1098.245850,2586.516357 1090.186035,2605.720947 1082.243408,2624.972900 
	C1073.036865,2647.288086 1063.896851,2669.630859 1054.629395,2691.920654 
	C1045.739990,2713.301514 1036.855713,2734.753418 1022.707092,2753.342773 
	C1011.053101,2768.654541 995.606628,2777.907227 975.982849,2780.701660 
	C975.683960,2778.604492 975.336182,2777.321777 975.342957,2776.041504 
	C975.474915,2751.128906 975.696350,2726.216553 975.802612,2701.303955 
	C975.992798,2656.697510 976.266235,2612.091064 976.233154,2567.484619 
	C976.194153,2514.876953 975.906616,2462.268799 975.592407,2409.661865 
	C975.565735,2405.189209 976.557861,2400.243408 972.327271,2396.131592 
	C929.292603,2396.131592 886.006592,2396.094971 842.720764,2396.173096 
	C836.588562,2396.184326 835.422974,2397.562744 835.131897,2404.010742 
	C834.966797,2407.668457 835.123535,2411.340576 835.118958,2415.006104 
	C835.005249,2505.631104 834.883423,2596.256104 834.775818,2686.881104 
	C834.692810,2756.840576 834.605164,2826.799805 834.604187,2896.759277 
	C834.604126,2901.308105 835.329224,2905.856934 835.821167,2911.627441 
	C852.094910,2912.253906 867.587158,2913.278809 883.081787,2913.315918 
	C896.289062,2913.347900 909.500610,2911.736816 922.707581,2911.774902 
	C937.937927,2911.818848 953.161682,2913.193848 968.395386,2913.366943 
	C976.948608,2913.463867 985.521545,2912.367920 994.076172,2911.689941 
	C1011.829224,2910.282959 1029.533936,2910.244385 1047.253174,2906.295654 
	C1084.493286,2897.997070 1113.798462,2879.025635 1133.968018,2846.839844 
	C1143.090454,2832.282471 1150.301636,2816.527344 1159.109863,2799.983398 
M1955.709717,1763.468262 
	C1938.407959,1756.680298 1920.998901,1750.151978 1903.827148,1743.049683 
	C1869.437866,1728.826172 1836.562378,1711.537476 1805.243652,1691.517456 
	C1766.147583,1666.525879 1730.421509,1637.313843 1698.176636,1603.803223 
	C1660.775879,1564.934326 1629.577881,1521.661133 1604.143921,1474.181274 
	C1574.514282,1418.868530 1553.031250,1360.465088 1538.531860,1299.468750 
	C1534.710449,1283.392212 1531.348877,1267.206299 1527.776001,1251.070679 
	C1531.925781,1252.392944 1534.696655,1254.624878 1537.429810,1256.901855 
	C1561.451294,1276.914062 1585.145264,1297.335327 1609.550537,1316.867554 
	C1658.353027,1355.925537 1708.270264,1393.509033 1760.972412,1427.228149 
	C1795.989380,1449.632324 1831.858765,1470.513428 1870.293213,1486.641968 
	C1871.868530,1487.302979 1873.708130,1487.334106 1876.203369,1487.805908 
	C1864.061890,1462.279419 1852.234863,1437.790894 1840.822632,1413.110718 
	C1838.477539,1408.039062 1835.305420,1404.508301 1830.834595,1401.245728 
	C1803.727295,1381.463745 1776.236450,1362.132202 1750.054077,1341.175537 
	C1708.611450,1308.004150 1671.406494,1270.282593 1637.367065,1229.584595 
	C1612.613281,1199.988525 1590.277832,1168.584351 1569.593140,1135.944580 
	C1546.420288,1099.378174 1526.039673,1061.355957 1508.573853,1021.839050 
	C1486.645386,972.225098 1469.007568,921.043213 1455.440674,868.477600 
	C1443.478394,822.128296 1434.090942,775.281250 1427.889160,727.818970 
	C1425.048340,706.077209 1422.148315,684.316101 1420.322021,662.476257 
	C1418.273071,637.974792 1417.421631,613.373718 1416.019409,588.817688 
	C1415.583374,581.183655 1415.146729,573.547607 1414.542358,565.925842 
	C1413.223633,549.294678 1416.120850,532.530090 1412.924927,516.009216 
	C1413.196411,520.305908 1412.404175,524.571594 1412.198120,528.865417 
	C1411.735474,538.507324 1411.776611,548.175232 1411.228027,557.810730 
	C1410.226807,575.395020 1408.893799,592.960022 1407.795776,610.539124 
	C1406.261719,635.099792 1404.889282,659.670715 1403.309814,684.228394 
	C1401.968262,705.087830 1400.398560,725.932373 1398.990723,746.787720 
	C1397.736816,765.362915 1396.572510,783.944153 1395.357910,802.522034 
	C1393.689453,828.042969 1391.887207,853.555847 1390.371460,879.085754 
	C1388.893555,903.974731 1387.145752,928.867065 1386.534790,953.782898 
	C1385.832642,982.423828 1385.933228,1011.096008 1386.275879,1039.747559 
	C1386.566406,1064.024292 1386.833618,1088.357422 1388.689087,1112.544678 
	C1390.744751,1139.338745 1394.554321,1165.999756 1397.670410,1192.710449 
	C1401.181763,1222.809692 1407.819458,1252.309570 1415.515259,1281.550659 
	C1431.506348,1342.311035 1455.515503,1399.770264 1487.593506,1453.828125 
	C1514.702515,1499.512085 1546.887573,1541.458740 1583.048462,1580.207642 
	C1623.293091,1623.332886 1667.797607,1661.826294 1714.687134,1697.638916 
	C1764.069092,1735.355103 1816.377197,1767.805298 1874.282959,1790.950562 
	C1925.968506,1811.609741 1979.413818,1825.088745 2034.550537,1832.114990 
	C2037.877075,1832.539062 2041.304688,1832.170166 2046.576538,1832.170166 
	C2032.840210,1814.481812 2020.450073,1798.530762 2008.064575,1782.575928 
	C2004.801270,1778.371948 2000.072754,1777.068726 1995.237549,1775.627930 
	C1982.529907,1771.841431 1969.918213,1767.732666 1955.709717,1763.468262 
M2679.594482,1684.486206 
	C2681.523682,1683.986206 2683.485107,1683.585083 2685.377197,1682.971558 
	C2725.750488,1669.879395 2765.626953,1655.446655 2804.321533,1637.945435 
	C2860.464111,1612.552612 2914.023926,1582.707397 2963.912354,1546.312500 
	C3013.395508,1510.213745 3057.621582,1468.689453 3096.263672,1421.212769 
	C3150.822754,1354.180908 3190.773193,1279.162720 3218.196045,1197.342651 
	C3231.069092,1158.934204 3241.549805,1119.880981 3248.199219,1079.907104 
	C3252.602539,1053.437866 3256.315674,1026.846069 3259.862305,1000.245667 
	C3261.350586,989.082275 3261.721924,977.761841 3262.404785,966.500916 
	C3263.750000,944.306824 3265.876465,922.110107 3266.010498,899.904358 
	C3266.217041,865.647217 3264.550049,831.382202 3264.501465,797.119385 
	C3264.303467,657.798157 3264.418945,518.476501 3264.418945,379.154968 
	C3264.418945,375.645386 3264.418945,372.135803 3264.418945,366.741119 
	C3253.419189,378.338562 3243.704590,388.175323 3234.471436,398.444946 
	C3227.079590,406.666748 3223.402100,416.638672 3223.965576,427.750610 
	C3224.520508,438.693512 3225.669434,449.606110 3226.548340,460.532776 
	C3228.278564,482.043579 3230.833740,503.526886 3231.558594,525.071716 
	C3233.158691,572.635132 3233.569580,620.188904 3227.951172,667.633362 
	C3224.512207,696.672119 3220.216553,725.537781 3213.672363,754.007385 
	C3200.060303,813.223083 3178.955078,869.679565 3150.104004,923.206421 
	C3109.366455,998.786865 3055.887695,1064.748047 2996.316406,1125.988892 
	C2947.751465,1175.914795 2895.375000,1221.703003 2841.599121,1265.906250 
	C2831.416504,1274.276245 2821.225098,1282.635742 2809.290039,1292.435303 
	C2813.552490,1291.918701 2815.502686,1291.836792 2817.382812,1291.430908 
	C2841.933838,1286.133179 2864.635742,1276.093018 2886.528809,1264.104004 
	C2928.092285,1241.342773 2966.089355,1213.353027 3002.675049,1183.467529 
	C3054.768555,1140.914307 3104.106689,1095.276611 3151.948486,1048.010620 
	C3153.664307,1046.315308 3155.908691,1045.154907 3158.856201,1043.075317 
	C3158.424316,1048.419189 3158.405762,1052.436646 3157.733887,1056.341675 
	C3153.851074,1078.914185 3150.273682,1101.553101 3145.729980,1123.994995 
	C3137.411133,1165.085083 3125.054199,1205.047729 3109.194824,1243.822754 
	C3091.030273,1288.234131 3068.322754,1330.188599 3040.620361,1369.536377 
	C3012.710693,1409.177979 2981.041260,1445.319824 2945.152100,1477.822876 
	C2908.291748,1511.205322 2868.196289,1540.210693 2825.274414,1565.250488 
	C2778.728027,1592.404297 2730.602783,1616.325073 2679.464355,1633.694458 
	C2669.964111,1636.921387 2663.438232,1642.715454 2659.008789,1651.411987 
	C2652.520752,1664.150391 2645.934082,1676.838623 2639.458496,1689.583252 
	C2638.513428,1691.442627 2637.947754,1693.494873 2636.582275,1697.111206 
	C2651.488037,1692.816406 2664.800781,1688.980713 2679.594482,1684.486206 
M3049.677002,2652.819580 
	C3049.679688,2647.587158 3049.682861,2642.354736 3049.684814,2637.122314 
	C3049.697510,2602.793457 3049.643799,2568.464600 3049.786865,2534.136230 
	C3049.811035,2528.284424 3050.676758,2522.436035 3051.172119,2516.361084 
	C3054.392090,2516.125244 3056.675537,2515.812256 3058.958984,2515.812988 
	C3091.953613,2515.823975 3124.948486,2515.878906 3157.943115,2515.916260 
	C3160.271973,2515.918945 3162.620605,2516.048096 3164.926270,2515.802490 
	C3171.997070,2515.048828 3173.872314,2513.366211 3173.884766,2506.475830 
	C3173.944336,2473.570557 3173.879395,2440.664795 3173.657959,2407.760742 
	C3173.635010,2404.375244 3172.277344,2400.999023 3171.667480,2398.207764 
	C3162.338135,2397.434570 3154.451660,2396.315674 3146.552002,2396.215576 
	C3124.903564,2395.940918 3103.249268,2396.114746 3081.597412,2396.073486 
	C3056.295410,2396.025391 3030.993408,2395.855225 3005.691406,2395.887451 
	C2973.395020,2395.928711 2941.098389,2396.196289 2908.802002,2396.225342 
	C2866.821289,2396.262939 2824.840332,2396.143311 2782.859619,2396.161377 
	C2779.906006,2396.162598 2776.890137,2396.455566 2774.010254,2397.094727 
	C2764.566895,2399.190674 2763.932617,2399.759766 2763.894043,2409.583496 
	C2763.772705,2440.556396 2763.791016,2471.530518 2763.917236,2502.503418 
	C2763.958984,2512.704590 2765.745605,2514.874512 2776.127197,2515.247803 
	C2789.733887,2515.737549 2803.373291,2515.303711 2816.998535,2515.297607 
	C2842.950439,2515.285645 2868.902100,2515.278320 2894.854004,2515.316895 
	C2898.093750,2515.321777 2901.332764,2515.617676 2905.489014,2515.824463 
	C2905.683838,2519.760742 2905.979248,2522.981201 2905.980469,2526.201416 
	C2905.988037,2547.531006 2905.892578,2568.860352 2905.903809,2590.189941 
	C2905.933594,2647.162109 2906.017334,2704.134521 2906.046387,2761.106689 
	C2906.070068,2807.411377 2906.050049,2853.715820 2906.040039,2900.020508 
	C2906.037842,2909.995605 2906.831299,2911.788330 2917.023193,2912.489502 
	C2931.572998,2913.489990 2946.214844,2913.491699 2960.811768,2913.348145 
	C2971.629150,2913.241699 2982.431152,2911.933594 2993.251953,2911.683350 
	C3009.694336,2911.303223 3026.099854,2914.095459 3042.636475,2911.474121 
	C3048.146973,2910.600586 3050.307861,2908.645996 3050.626953,2903.657715 
	C3050.733154,2902.000977 3050.625732,2900.330566 3050.628906,2898.666504 
	C3050.719971,2850.764160 3050.981689,2802.861084 3050.846680,2754.959473 
	C3050.752197,2721.443848 3050.115234,2687.930176 3049.677002,2652.819580 
M3363.379150,2569.000488 
	C3363.338867,2514.025635 3363.312988,2459.051025 3363.244141,2404.076172 
	C3363.233154,2395.215576 3362.366211,2394.186279 3353.655762,2394.167236 
	C3313.338867,2394.079346 3273.021729,2394.097900 3232.704834,2394.164062 
	C3228.463867,2394.170898 3224.223877,2394.739746 3218.657227,2395.144531 
	C3218.002930,2399.896484 3216.900879,2404.344727 3216.856201,2408.803467 
	C3216.576172,2436.690674 3216.512451,2464.580322 3216.418701,2492.468994 
	C3216.372803,2506.063721 3216.224121,2519.662354 3216.474854,2533.252686 
	C3216.726318,2546.885742 3217.910645,2560.513916 3217.822266,2574.138672 
	C3217.570068,2613.054932 3216.637939,2651.966797 3216.438477,2690.883057 
	C3216.288574,2720.141113 3217.045654,2749.402832 3217.051025,2778.663086 
	C3217.056396,2807.231201 3216.565186,2835.799316 3216.407715,2864.367920 
	C3216.345459,2875.656494 3215.942627,2887.002686 3216.898438,2898.219971 
	C3217.739502,2908.086182 3216.455811,2909.728027 3228.566406,2911.358398 
	C3238.449707,2912.688965 3248.130859,2911.911133 3257.936523,2911.739258 
	C3278.588867,2911.376709 3299.251953,2911.493408 3319.909424,2911.604492 
	C3324.836670,2911.630859 3329.802734,2913.036865 3334.675537,2912.703857 
	C3344.050049,2912.063232 3353.846436,2914.771729 3363.376465,2909.657959 
	C3363.376465,2796.742676 3363.376465,2683.871826 3363.379150,2569.000488 
M3218.270508,1505.209229 
	C3219.122070,1504.862793 3219.973633,1504.516235 3220.825195,1504.169556 
	C3220.624023,1503.758423 3220.422607,1503.347412 3220.221436,1502.936279 
	C3219.704102,1503.335327 3219.186523,1503.734253 3218.270508,1505.209229 
z"/>
<path fill="#FEFEFE" opacity="1.000000" stroke="none" 
	d="
M2999.076416,136.855988 
	C3020.518799,138.227676 3041.081787,139.159271 3061.628906,140.362625 
	C3089.762451,142.010254 3117.877197,143.980286 3146.013916,145.570496 
	C3156.642090,146.171188 3167.308838,146.080048 3177.957275,146.336563 
	C3205.879639,147.009171 3233.801758,147.695816 3261.723145,148.408401 
	C3262.310303,148.423401 3262.887451,148.819946 3264.854736,149.558884 
	C2947.384766,829.561340 2629.972900,1509.439575 2313.029541,2188.313965 
	C2311.435059,2189.043945 2311.099121,2189.329834 2310.906250,2189.253906 
	C2310.637695,2189.147705 2310.415527,2188.799805 2310.276855,2188.506104 
	C1990.518555,1510.865112 1670.768311,833.220276 1351.031616,155.569153 
	C1350.467041,154.372437 1350.037476,153.100693 1349.667725,151.828262 
	C1349.492798,151.226685 1349.564453,150.537231 1349.612183,149.894104 
	C1349.635498,149.580475 1349.859863,149.281784 1350.133789,148.654694 
	C1468.896240,148.654694 1587.799683,148.654694 1707.223877,148.654694 
	C1908.325684,570.315857 2109.481445,992.090332 2311.290283,1415.233765 
	C2314.867188,1408.127075 2318.061768,1402.086182 2320.987793,1395.917847 
	C2341.362305,1352.966064 2361.608398,1309.953247 2382.035889,1267.026855 
	C2407.728271,1213.037109 2433.513916,1159.091431 2459.334717,1105.162964 
	C2487.869385,1045.566772 2516.537598,986.034546 2545.057617,926.431396 
	C2570.011475,874.280579 2594.814941,822.057861 2619.732910,769.889893 
	C2642.360352,722.518066 2665.116699,675.207581 2687.697266,627.813477 
	C2709.966797,581.071899 2732.001221,534.218201 2754.298340,487.489899 
	C2774.181152,445.822266 2794.345215,404.289062 2814.270752,362.641724 
	C2837.500000,314.088654 2860.630615,265.488037 2883.754150,216.884445 
	C2895.736328,191.699570 2907.850830,166.572449 2919.367432,141.175262 
	C2922.257080,134.802826 2926.038086,133.232956 2932.483887,133.595230 
	C2954.371826,134.825348 2976.285889,135.592819 2999.076416,136.855988 
z"/>
<path fill="#FBFBFB" opacity="1.000000" stroke="none" 
	d="
M2679.021484,2447.057861 
	C2694.484863,2467.414062 2704.183105,2489.519043 2710.897461,2513.495605 
	C2718.232910,2539.690186 2721.389893,2566.150146 2721.035400,2593.121338 
	C2720.607666,2625.644287 2714.078125,2656.852051 2701.192139,2686.924316 
	C2693.054932,2705.913818 2681.186035,2721.998535 2667.020996,2736.463867 
	C2660.610352,2743.010254 2652.370361,2747.769775 2644.933838,2753.304199 
	C2642.569336,2755.063721 2640.118896,2756.707520 2636.961914,2758.929443 
	C2653.468750,2785.480469 2673.387207,2809.018799 2690.911865,2834.235107 
	C2708.181396,2859.084229 2726.821533,2883.009277 2744.575928,2909.764893 
	C2738.602539,2911.606445 2735.028564,2913.299561 2731.302734,2913.755859 
	C2713.861572,2915.891602 2696.408203,2918.034424 2678.903809,2919.523438 
	C2650.737793,2921.919678 2623.633301,2916.580322 2597.944580,2905.371826 
	C2577.556152,2896.476074 2561.046631,2882.060303 2546.769043,2864.986572 
	C2531.216309,2846.387451 2517.932617,2826.269043 2505.478516,2805.538086 
	C2499.164551,2795.027832 2492.611328,2784.661133 2486.133057,2774.175537 
	C2466.864014,2774.175537 2447.974121,2774.175537 2428.417725,2774.175537 
	C2428.175293,2777.008545 2427.775879,2779.537109 2427.769775,2782.066650 
	C2427.674561,2821.047852 2427.610596,2860.028809 2427.587158,2899.010010 
	C2427.580322,2910.212646 2427.625244,2911.055908 2416.206299,2911.885986 
	C2401.972656,2912.920898 2387.637695,2912.648682 2373.345215,2912.775146 
	C2357.724121,2912.913574 2342.101318,2912.908691 2326.479248,2912.879883 
	C2315.503906,2912.859619 2304.524658,2912.819824 2293.555420,2912.509033 
	C2290.681152,2912.427734 2287.836426,2911.304688 2283.885254,2910.413086 
	C2283.885254,2853.223633 2283.869873,2796.329590 2283.889648,2739.435303 
	C2283.909424,2682.796875 2283.812256,2626.157715 2284.047119,2569.520264 
	C2284.282959,2512.697021 2282.899170,2455.850342 2284.740234,2399.185059 
	C2303.730469,2393.837891 2321.586426,2397.386230 2339.313965,2397.284912 
	C2342.610840,2397.266113 2345.910645,2397.949219 2349.208984,2397.950439 
	C2424.173828,2397.976318 2499.138672,2397.979492 2574.103516,2397.920166 
	C2594.238037,2397.904053 2613.638672,2401.424805 2632.010986,2409.759033 
	C2647.337646,2416.711914 2660.027588,2427.323975 2671.650879,2439.307373 
	C2673.968750,2441.697021 2676.277588,2444.095215 2679.021484,2447.057861 
M2570.662109,2563.124268 
	C2568.634521,2554.037354 2566.204346,2545.131104 2560.842285,2537.281006 
	C2551.035889,2522.923584 2538.329102,2514.124512 2520.136475,2515.393311 
	C2515.837646,2515.692871 2511.523926,2515.931152 2507.216797,2515.940430 
	C2483.262207,2515.992188 2459.307617,2515.944824 2435.353027,2515.994141 
	C2432.811035,2515.999512 2430.270020,2516.409424 2427.766602,2516.628418 
	C2427.766602,2562.157227 2427.766602,2606.915527 2427.766602,2652.217529 
	C2432.292969,2652.434814 2436.218018,2652.787109 2440.143066,2652.785400 
	C2468.703613,2652.773926 2497.264893,2652.529785 2525.824219,2652.683105 
	C2547.750732,2652.800781 2561.232910,2639.384521 2567.762695,2620.906982 
	C2574.220703,2602.632568 2573.849854,2583.765137 2570.662109,2563.124268 
z"/>
<path fill="#FAF9F9" opacity="1.000000" stroke="none" 
	d="
M1820.845093,2715.999512 
	C1820.846802,2659.355713 1820.840210,2603.712158 1820.857178,2548.068604 
	C1820.863892,2526.514404 1820.361694,2504.939697 1821.159424,2483.413574 
	C1821.684082,2469.258789 1823.200562,2455.048828 1828.338501,2441.518799 
	C1838.373657,2415.091797 1858.472168,2401.518799 1885.535400,2398.818359 
	C1906.908203,2396.685547 1928.495117,2394.604004 1950.052124,2397.911133 
	C1952.331787,2398.260742 1954.710083,2397.972656 1957.042603,2397.972656 
	C2015.689087,2397.969238 2074.336426,2398.117920 2132.981934,2397.876953 
	C2153.244629,2397.793701 2173.503418,2396.733887 2193.764648,2396.142090 
	C2196.094971,2396.073975 2198.448730,2395.954590 2200.758545,2396.188965 
	C2212.797363,2397.410889 2213.157471,2400.075439 2213.176758,2408.726562 
	C2213.250488,2441.713867 2213.364502,2474.701416 2213.380615,2507.688721 
	C2213.384033,2514.289062 2212.287842,2515.628418 2205.285400,2515.950195 
	C2197.045410,2516.328857 2188.772217,2515.962158 2180.513428,2515.966553 
	C2115.202881,2516.001465 2049.892578,2516.032715 1984.582031,2516.102539 
	C1970.680176,2516.117676 1966.361084,2519.626221 1965.710449,2533.358398 
	C1965.033813,2547.642090 1965.466187,2561.978760 1965.424561,2576.292236 
	C1965.408325,2581.899658 1965.421997,2587.507080 1965.421997,2594.539795 
	C1969.235962,2594.539795 1972.749512,2594.539551 1976.262939,2594.539795 
	C2036.905884,2594.540039 2097.550293,2594.769287 2158.190674,2594.350342 
	C2170.400635,2594.265869 2175.425781,2599.625244 2175.496826,2610.834717 
	C2175.637939,2633.153076 2175.663574,2655.471924 2175.744385,2677.790771 
	C2175.778076,2687.119629 2175.885742,2696.448486 2175.857178,2705.777100 
	C2175.835205,2713.014160 2175.502930,2713.399414 2168.174561,2714.658203 
	C2165.570312,2715.105469 2162.894043,2715.311768 2160.249756,2715.319580 
	C2139.618652,2715.379639 2118.987793,2715.364258 2098.356689,2715.372803 
	C2062.985840,2715.387939 2027.614868,2715.497314 1992.244751,2715.350342 
	C1983.730347,2715.314941 1975.219482,2714.427979 1965.246216,2713.847412 
	C1965.246216,2720.165283 1965.239136,2725.361816 1965.247437,2730.558105 
	C1965.270020,2744.879639 1965.262573,2759.201172 1965.335938,2773.522461 
	C1965.412231,2788.396973 1969.418335,2792.490479 1984.354248,2792.506348 
	C2044.666870,2792.571045 2104.979492,2792.557373 2165.291992,2792.555664 
	C2177.620850,2792.555176 2189.949707,2792.431396 2202.278564,2792.459229 
	C2209.682861,2792.476074 2210.945801,2793.456055 2211.961426,2800.775879 
	C2212.687988,2806.012207 2213.173096,2811.326660 2213.197266,2816.608643 
	C2213.330322,2845.582275 2213.363281,2874.557129 2213.254639,2903.530762 
	C2213.226318,2911.089355 2212.188965,2912.406006 2204.749268,2912.503174 
	C2193.230957,2912.653564 2181.703613,2911.848145 2170.177734,2911.748779 
	C2135.534424,2911.450195 2100.889893,2911.217529 2066.245605,2911.109863 
	C2031.924194,2911.003174 1997.602295,2911.025635 1963.280884,2911.104736 
	C1951.294556,2911.132568 1939.183350,2910.487549 1927.354370,2911.959473 
	C1911.621826,2913.917480 1896.198364,2911.873047 1880.981689,2909.540283 
	C1860.608276,2906.416504 1843.485596,2896.601318 1832.965576,2877.872070 
	C1826.512817,2866.384033 1823.858154,2853.707275 1823.005981,2840.690430 
	C1822.074341,2826.463135 1821.058350,2812.217285 1820.889282,2797.969727 
	C1820.569214,2770.983398 1820.828003,2743.989990 1820.845093,2715.999512 
z"/>
<path fill="#FAFAFA" opacity="1.000000" stroke="none" 
	d="
M1538.102295,2715.106934 
	C1527.632446,2714.999512 1518.142090,2714.999512 1508.128174,2714.999512 
	C1507.855591,2716.860352 1507.428467,2718.431641 1507.425415,2720.003906 
	C1507.390015,2737.659912 1507.589844,2755.318115 1507.376831,2772.971436 
	C1507.215332,2786.354248 1513.828003,2792.751465 1527.436157,2792.683838 
	C1599.743408,2792.324219 1672.053589,2792.540527 1744.362671,2792.547607 
	C1753.009033,2792.548584 1753.347290,2792.480225 1754.470093,2801.615967 
	C1755.315063,2808.490723 1755.359985,2815.488770 1755.394531,2822.433594 
	C1755.485596,2840.754883 1755.315796,2859.077881 1755.377319,2877.399658 
	C1755.402954,2885.031738 1756.267456,2892.692871 1755.827759,2900.287354 
	C1755.235352,2910.516602 1752.416748,2913.005859 1742.541748,2913.028076 
	C1731.256714,2913.053467 1719.971680,2912.625000 1708.685303,2912.520508 
	C1653.147461,2912.005615 1597.609985,2911.434814 1542.070923,2911.098633 
	C1523.112183,2910.983643 1504.148071,2911.414307 1485.189331,2911.757080 
	C1476.664062,2911.911377 1468.118652,2913.079590 1459.630493,2912.702148 
	C1442.506714,2911.939941 1425.296875,2911.564209 1408.767822,2905.862305 
	C1387.866455,2898.652100 1375.513184,2883.890869 1369.723022,2862.998535 
	C1364.370361,2843.684082 1362.858154,2824.089111 1363.284058,2804.033691 
	C1363.898315,2775.113281 1363.002441,2746.163086 1362.920532,2717.225098 
	C1362.866943,2698.263672 1363.148193,2679.301758 1363.216919,2660.339600 
	C1363.333984,2628.070557 1363.476318,2595.801270 1363.466064,2563.532227 
	C1363.458008,2538.244629 1362.502563,2512.932129 1363.354492,2487.677490 
	C1363.964722,2469.592041 1365.903320,2451.413086 1373.621338,2434.501953 
	C1383.723145,2412.367920 1402.485352,2402.674561 1425.091309,2398.708008 
	C1430.287476,2397.796143 1435.708496,2397.974365 1441.026001,2397.972900 
	C1520.665161,2397.951416 1600.304321,2398.056641 1679.943237,2397.927734 
	C1692.163940,2397.907959 1704.380127,2396.502441 1716.603760,2396.404053 
	C1728.471436,2396.308594 1740.345947,2397.070068 1753.283325,2397.489990 
	C1753.864136,2403.106201 1754.742310,2407.908691 1754.795654,2412.720215 
	C1755.108765,2440.961182 1755.333496,2469.204590 1755.325439,2497.447021 
	C1755.323853,2503.031006 1754.177124,2508.614746 1753.422119,2515.429932 
	C1749.927856,2515.608398 1746.424683,2515.941895 1742.921265,2515.943359 
	C1673.277954,2515.973145 1603.634766,2515.964111 1533.991455,2515.968018 
	C1530.326294,2515.968018 1526.656372,2515.899902 1522.996948,2516.056885 
	C1513.773193,2516.452148 1507.686401,2521.737305 1507.533325,2530.810303 
	C1507.181030,2551.700195 1507.421631,2572.600586 1507.421631,2594.509766 
	C1510.855957,2594.509766 1513.747681,2594.509277 1516.639404,2594.509766 
	C1578.611938,2594.521240 1640.584473,2594.530273 1702.557007,2594.552246 
	C1704.886475,2594.553223 1707.227783,2594.554443 1709.542603,2594.774658 
	C1712.990356,2595.103027 1715.049683,2597.205322 1715.371338,2600.558838 
	C1715.815918,2605.190674 1716.102783,2609.855957 1716.113525,2614.507812 
	C1716.180176,2643.164551 1716.134399,2671.821289 1716.158569,2700.478027 
	C1716.171265,2715.576660 1716.200562,2715.619629 1701.502075,2715.451660 
	C1664.287720,2715.026367 1627.074951,2714.385498 1589.859619,2714.186279 
	C1572.936035,2714.095703 1556.007935,2714.845703 1538.102295,2715.106934 
z"/>
<path fill="#FBFAFA" opacity="1.000000" stroke="none" 
	d="
M3575.185547,2397.342285 
	C3596.794434,2395.380371 3617.590088,2392.625244 3638.407715,2392.444824 
	C3658.600098,2392.270020 3678.971191,2393.592773 3698.985107,2396.309326 
	C3731.334229,2400.699951 3761.454102,2412.043213 3787.096924,2432.706787 
	C3806.457764,2448.308105 3820.583740,2468.116943 3830.227783,2491.332275 
	C3840.473389,2515.996338 3843.035889,2541.956299 3845.491943,2568.040527 
	C3845.708496,2570.342529 3845.496582,2572.699951 3845.308350,2575.017334 
	C3845.232178,2575.957031 3844.685791,2576.858398 3843.999512,2578.754883 
	C3837.905518,2579.608154 3831.431396,2581.215088 3824.937012,2581.301270 
	C3797.989990,2581.659180 3771.036621,2581.560303 3744.085693,2581.622803 
	C3739.131836,2581.634277 3734.177246,2581.556396 3729.224365,2581.624023 
	C3722.667725,2581.713867 3720.033691,2579.644043 3719.972900,2572.934326 
	C3719.887451,2563.534912 3718.327881,2554.527100 3714.972412,2545.755127 
	C3709.880127,2532.443604 3703.037598,2520.335449 3689.742676,2513.806885 
	C3682.729248,2510.362793 3675.073975,2506.874512 3667.475098,2506.251221 
	C3650.928955,2504.893555 3634.223389,2504.888672 3617.602295,2505.238770 
	C3605.829590,2505.486328 3594.825195,2509.513916 3584.687012,2515.632812 
	C3567.980469,2525.715576 3561.401123,2550.742676 3566.147217,2566.579590 
	C3569.468506,2577.663086 3578.127930,2583.802979 3588.466797,2587.690186 
	C3603.403564,2593.306885 3618.687012,2597.086182 3634.778076,2598.088867 
	C3662.569580,2599.820801 3690.380371,2601.727295 3718.053467,2604.747070 
	C3751.639404,2608.412354 3784.060059,2616.478027 3812.332275,2636.293457 
	C3830.474854,2649.009766 3843.376465,2665.584229 3850.518555,2686.915527 
	C3860.136963,2715.642822 3859.355713,2744.881836 3856.650879,2774.340820 
	C3854.458252,2798.218018 3845.912354,2820.085449 3834.369629,2840.773438 
	C3825.830811,2856.076904 3812.873779,2867.575439 3799.164062,2878.176514 
	C3781.489990,2891.843262 3760.950195,2899.472656 3739.783203,2905.402588 
	C3710.505127,2913.604004 3680.436035,2915.826904 3650.160156,2915.747070 
	C3633.516113,2915.703369 3616.843994,2915.982422 3600.238525,2915.101074 
	C3589.050781,2914.507080 3577.984375,2911.897461 3566.814697,2910.620850 
	C3548.225342,2908.495361 3530.454102,2903.102783 3513.750244,2895.214600 
	C3482.114258,2880.274170 3457.614502,2858.282471 3445.820312,2823.788818 
	C3440.766846,2809.009521 3435.669678,2794.290527 3433.126465,2778.954834 
	C3431.237549,2767.564453 3430.970215,2755.857910 3430.651367,2744.273682 
	C3430.485596,2738.246338 3432.980225,2736.659668 3440.847168,2736.596191 
	C3467.134766,2736.384033 3493.423584,2736.273438 3519.711914,2736.234619 
	C3528.688965,2736.221436 3537.667480,2736.490723 3546.643311,2736.712891 
	C3554.988525,2736.919189 3556.915527,2738.396973 3557.180420,2746.335205 
	C3557.550049,2757.413086 3563.277100,2765.759033 3570.128662,2773.593506 
	C3582.754150,2788.030029 3599.101807,2795.438721 3617.805664,2797.822266 
	C3644.328369,2801.201904 3670.741455,2800.979492 3696.766602,2793.943359 
	C3708.497559,2790.771973 3719.076904,2786.060791 3726.261230,2775.225586 
	C3740.556152,2753.667236 3731.728760,2728.881348 3707.103760,2720.913330 
	C3688.464844,2714.882080 3669.265869,2714.453369 3650.076660,2713.090088 
	C3627.604980,2711.492676 3605.111816,2709.973145 3582.715332,2707.595947 
	C3555.603760,2704.718018 3528.985596,2699.349609 3504.144775,2687.452637 
	C3484.492188,2678.040039 3466.272461,2666.476318 3454.665283,2647.407471 
	C3444.603271,2630.876709 3438.239014,2612.871338 3435.659180,2593.429443 
	C3432.923096,2572.810791 3433.544434,2552.302246 3436.040039,2531.846680 
	C3437.191895,2522.405762 3439.909668,2513.093506 3442.574463,2503.913574 
	C3446.930664,2488.907715 3453.257080,2474.694336 3462.447754,2461.980225 
	C3483.541748,2432.798340 3511.295166,2413.044922 3546.285400,2403.927734 
	C3555.563965,2401.510254 3565.011719,2399.742188 3575.185547,2397.342285 
z"/>
<path fill="#FBFAFA" opacity="1.000000" stroke="none" 
	d="
M1158.744873,2800.649414 
	C1150.301636,2816.527344 1143.090454,2832.282471 1133.968018,2846.839844 
	C1113.798462,2879.025635 1084.493286,2897.997070 1047.253174,2906.295654 
	C1029.533936,2910.244385 1011.829224,2910.282959 994.076172,2911.689941 
	C985.521545,2912.367920 976.948608,2913.463867 968.395386,2913.366943 
	C953.161682,2913.193848 937.937927,2911.818848 922.707581,2911.774902 
	C909.500610,2911.736816 896.289062,2913.347900 883.081787,2913.315918 
	C867.587158,2913.278809 852.094910,2912.253906 835.821167,2911.627441 
	C835.329224,2905.856934 834.604126,2901.308105 834.604187,2896.759277 
	C834.605164,2826.799805 834.692810,2756.840576 834.775818,2686.881104 
	C834.883423,2596.256104 835.005249,2505.631104 835.118958,2415.006104 
	C835.123535,2411.340576 834.966797,2407.668457 835.131897,2404.010742 
	C835.422974,2397.562744 836.588562,2396.184326 842.720764,2396.173096 
	C886.006592,2396.094971 929.292603,2396.131592 972.327271,2396.131592 
	C976.557861,2400.243408 975.565735,2405.189209 975.592407,2409.661865 
	C975.906616,2462.268799 976.194153,2514.876953 976.233154,2567.484619 
	C976.266235,2612.091064 975.992798,2656.697510 975.802612,2701.303955 
	C975.696350,2726.216553 975.474915,2751.128906 975.342957,2776.041504 
	C975.336182,2777.321777 975.683960,2778.604492 975.982849,2780.701660 
	C995.606628,2777.907227 1011.053101,2768.654541 1022.707092,2753.342773 
	C1036.855713,2734.753418 1045.739990,2713.301514 1054.629395,2691.920654 
	C1063.896851,2669.630859 1073.036865,2647.288086 1082.243408,2624.972900 
	C1090.186035,2605.720947 1098.245850,2586.516357 1106.067993,2567.215576 
	C1115.384521,2544.227051 1124.538086,2521.172607 1133.697266,2498.120850 
	C1143.347656,2473.833008 1152.871460,2449.495117 1162.560303,2425.222656 
	C1165.374634,2418.172119 1168.562378,2411.270264 1171.585327,2404.302979 
	C1173.454956,2399.993896 1176.181152,2397.797363 1181.443359,2397.799561 
	C1199.685913,2397.806641 1217.927734,2397.149414 1236.171753,2396.862305 
	C1249.832031,2396.647217 1263.501343,2396.312500 1277.155151,2396.592041 
	C1288.398560,2396.821777 1299.649902,2397.607178 1310.851685,2398.643555 
	C1321.049561,2399.586914 1323.399048,2403.837402 1319.478760,2413.342285 
	C1296.575317,2468.872803 1273.526001,2524.343750 1250.736816,2579.921387 
	C1239.310059,2607.787842 1228.730225,2636.006348 1217.054321,2663.765381 
	C1198.953491,2706.799805 1180.235352,2749.574707 1161.810791,2792.473145 
	C1160.762817,2794.913330 1160.003540,2797.477051 1158.744873,2800.649414 
z"/>
<path fill="#FDFDFD" opacity="1.000000" stroke="none" 
	d="
M1956.489014,1763.610229 
	C1969.918213,1767.732666 1982.529907,1771.841431 1995.237549,1775.627930 
	C2000.072754,1777.068726 2004.801270,1778.371948 2008.064575,1782.575928 
	C2020.450073,1798.530762 2032.840210,1814.481812 2046.576538,1832.170166 
	C2041.304688,1832.170166 2037.877075,1832.539062 2034.550537,1832.114990 
	C1979.413818,1825.088745 1925.968506,1811.609741 1874.282959,1790.950562 
	C1816.377197,1767.805298 1764.069092,1735.355103 1714.687134,1697.638916 
	C1667.797607,1661.826294 1623.293091,1623.332886 1583.048462,1580.207642 
	C1546.887573,1541.458740 1514.702515,1499.512085 1487.593506,1453.828125 
	C1455.515503,1399.770264 1431.506348,1342.311035 1415.515259,1281.550659 
	C1407.819458,1252.309570 1401.181763,1222.809692 1397.670410,1192.710449 
	C1394.554321,1165.999756 1390.744751,1139.338745 1388.689087,1112.544678 
	C1386.833618,1088.357422 1386.566406,1064.024292 1386.275879,1039.747559 
	C1385.933228,1011.096008 1385.832642,982.423828 1386.534790,953.782898 
	C1387.145752,928.867065 1388.893555,903.974731 1390.371460,879.085754 
	C1391.887207,853.555847 1393.689453,828.042969 1395.357910,802.522034 
	C1396.572510,783.944153 1397.736816,765.362915 1398.990723,746.787720 
	C1400.398560,725.932373 1401.968262,705.087830 1403.309814,684.228394 
	C1404.889282,659.670715 1406.261719,635.099792 1407.795776,610.539124 
	C1408.893799,592.960022 1410.226807,575.395020 1411.228027,557.810730 
	C1411.776611,548.175232 1411.735474,538.507324 1412.198120,528.865417 
	C1412.404175,524.571594 1413.196411,520.305908 1412.924927,516.009216 
	C1416.120850,532.530090 1413.223633,549.294678 1414.542358,565.925842 
	C1415.146729,573.547607 1415.583374,581.183655 1416.019409,588.817688 
	C1417.421631,613.373718 1418.273071,637.974792 1420.322021,662.476257 
	C1422.148315,684.316101 1425.048340,706.077209 1427.889160,727.818970 
	C1434.090942,775.281250 1443.478394,822.128296 1455.440674,868.477600 
	C1469.007568,921.043213 1486.645386,972.225098 1508.573853,1021.839050 
	C1526.039673,1061.355957 1546.420288,1099.378174 1569.593140,1135.944580 
	C1590.277832,1168.584351 1612.613281,1199.988525 1637.367065,1229.584595 
	C1671.406494,1270.282593 1708.611450,1308.004150 1750.054077,1341.175537 
	C1776.236450,1362.132202 1803.727295,1381.463745 1830.834595,1401.245728 
	C1835.305420,1404.508301 1838.477539,1408.039062 1840.822632,1413.110718 
	C1852.234863,1437.790894 1864.061890,1462.279419 1876.203369,1487.805908 
	C1873.708130,1487.334106 1871.868530,1487.302979 1870.293213,1486.641968 
	C1831.858765,1470.513428 1795.989380,1449.632324 1760.972412,1427.228149 
	C1708.270264,1393.509033 1658.353027,1355.925537 1609.550537,1316.867554 
	C1585.145264,1297.335327 1561.451294,1276.914062 1537.429810,1256.901855 
	C1534.696655,1254.624878 1531.925781,1252.392944 1527.776001,1251.070679 
	C1531.348877,1267.206299 1534.710449,1283.392212 1538.531860,1299.468750 
	C1553.031250,1360.465088 1574.514282,1418.868530 1604.143921,1474.181274 
	C1629.577881,1521.661133 1660.775879,1564.934326 1698.176636,1603.803223 
	C1730.421509,1637.313843 1766.147583,1666.525879 1805.243652,1691.517456 
	C1836.562378,1711.537476 1869.437866,1728.826172 1903.827148,1743.049683 
	C1920.998901,1750.151978 1938.407959,1756.680298 1956.489014,1763.610229 
z"/>
<path fill="#FDFDFD" opacity="1.000000" stroke="none" 
	d="
M2678.854004,1684.815674 
	C2664.800781,1688.980713 2651.488037,1692.816406 2636.582275,1697.111206 
	C2637.947754,1693.494873 2638.513428,1691.442627 2639.458496,1689.583252 
	C2645.934082,1676.838623 2652.520752,1664.150391 2659.008789,1651.411987 
	C2663.438232,1642.715454 2669.964111,1636.921387 2679.464355,1633.694458 
	C2730.602783,1616.325073 2778.728027,1592.404297 2825.274414,1565.250488 
	C2868.196289,1540.210693 2908.291748,1511.205322 2945.152100,1477.822876 
	C2981.041260,1445.319824 3012.710693,1409.177979 3040.620361,1369.536377 
	C3068.322754,1330.188599 3091.030273,1288.234131 3109.194824,1243.822754 
	C3125.054199,1205.047729 3137.411133,1165.085083 3145.729980,1123.994995 
	C3150.273682,1101.553101 3153.851074,1078.914185 3157.733887,1056.341675 
	C3158.405762,1052.436646 3158.424316,1048.419189 3158.856201,1043.075317 
	C3155.908691,1045.154907 3153.664307,1046.315308 3151.948486,1048.010620 
	C3104.106689,1095.276611 3054.768555,1140.914307 3002.675049,1183.467529 
	C2966.089355,1213.353027 2928.092285,1241.342773 2886.528809,1264.104004 
	C2864.635742,1276.093018 2841.933838,1286.133179 2817.382812,1291.430908 
	C2815.502686,1291.836792 2813.552490,1291.918701 2809.290039,1292.435303 
	C2821.225098,1282.635742 2831.416504,1274.276245 2841.599121,1265.906250 
	C2895.375000,1221.703003 2947.751465,1175.914795 2996.316406,1125.988892 
	C3055.887695,1064.748047 3109.366455,998.786865 3150.104004,923.206421 
	C3178.955078,869.679565 3200.060303,813.223083 3213.672363,754.007385 
	C3220.216553,725.537781 3224.512207,696.672119 3227.951172,667.633362 
	C3233.569580,620.188904 3233.158691,572.635132 3231.558594,525.071716 
	C3230.833740,503.526886 3228.278564,482.043579 3226.548340,460.532776 
	C3225.669434,449.606110 3224.520508,438.693512 3223.965576,427.750610 
	C3223.402100,416.638672 3227.079590,406.666748 3234.471436,398.444946 
	C3243.704590,388.175323 3253.419189,378.338562 3264.418945,366.741119 
	C3264.418945,372.135803 3264.418945,375.645386 3264.418945,379.154968 
	C3264.418945,518.476501 3264.303467,657.798157 3264.501465,797.119385 
	C3264.550049,831.382202 3266.217041,865.647217 3266.010498,899.904358 
	C3265.876465,922.110107 3263.750000,944.306824 3262.404785,966.500916 
	C3261.721924,977.761841 3261.350586,989.082275 3259.862305,1000.245667 
	C3256.315674,1026.846069 3252.602539,1053.437866 3248.199219,1079.907104 
	C3241.549805,1119.880981 3231.069092,1158.934204 3218.196045,1197.342651 
	C3190.773193,1279.162720 3150.822754,1354.180908 3096.263672,1421.212769 
	C3057.621582,1468.689453 3013.395508,1510.213745 2963.912354,1546.312500 
	C2914.023926,1582.707397 2860.464111,1612.552612 2804.321533,1637.945435 
	C2765.626953,1655.446655 2725.750488,1669.879395 2685.377197,1682.971558 
	C2683.485107,1683.585083 2681.523682,1683.986206 2678.854004,1684.815674 
z"/>
<path fill="#FAF9F9" opacity="1.000000" stroke="none" 
	d="
M3049.698730,2653.617676 
	C3050.115234,2687.930176 3050.752197,2721.443848 3050.846680,2754.959473 
	C3050.981689,2802.861084 3050.719971,2850.764160 3050.628906,2898.666504 
	C3050.625732,2900.330566 3050.733154,2902.000977 3050.626953,2903.657715 
	C3050.307861,2908.645996 3048.146973,2910.600586 3042.636475,2911.474121 
	C3026.099854,2914.095459 3009.694336,2911.303223 2993.251953,2911.683350 
	C2982.431152,2911.933594 2971.629150,2913.241699 2960.811768,2913.348145 
	C2946.214844,2913.491699 2931.572998,2913.489990 2917.023193,2912.489502 
	C2906.831299,2911.788330 2906.037842,2909.995605 2906.040039,2900.020508 
	C2906.050049,2853.715820 2906.070068,2807.411377 2906.046387,2761.106689 
	C2906.017334,2704.134521 2905.933594,2647.162109 2905.903809,2590.189941 
	C2905.892578,2568.860352 2905.988037,2547.531006 2905.980469,2526.201416 
	C2905.979248,2522.981201 2905.683838,2519.760742 2905.489014,2515.824463 
	C2901.332764,2515.617676 2898.093750,2515.321777 2894.854004,2515.316895 
	C2868.902100,2515.278320 2842.950439,2515.285645 2816.998535,2515.297607 
	C2803.373291,2515.303711 2789.733887,2515.737549 2776.127197,2515.247803 
	C2765.745605,2514.874512 2763.958984,2512.704590 2763.917236,2502.503418 
	C2763.791016,2471.530518 2763.772705,2440.556396 2763.894043,2409.583496 
	C2763.932617,2399.759766 2764.566895,2399.190674 2774.010254,2397.094727 
	C2776.890137,2396.455566 2779.906006,2396.162598 2782.859619,2396.161377 
	C2824.840332,2396.143311 2866.821289,2396.262939 2908.802002,2396.225342 
	C2941.098389,2396.196289 2973.395020,2395.928711 3005.691406,2395.887451 
	C3030.993408,2395.855225 3056.295410,2396.025391 3081.597412,2396.073486 
	C3103.249268,2396.114746 3124.903564,2395.940918 3146.552002,2396.215576 
	C3154.451660,2396.315674 3162.338135,2397.434570 3171.667480,2398.207764 
	C3172.277344,2400.999023 3173.635010,2404.375244 3173.657959,2407.760742 
	C3173.879395,2440.664795 3173.944336,2473.570557 3173.884766,2506.475830 
	C3173.872314,2513.366211 3171.997070,2515.048828 3164.926270,2515.802490 
	C3162.620605,2516.048096 3160.271973,2515.918945 3157.943115,2515.916260 
	C3124.948486,2515.878906 3091.953613,2515.823975 3058.958984,2515.812988 
	C3056.675537,2515.812256 3054.392090,2516.125244 3051.172119,2516.361084 
	C3050.676758,2522.436035 3049.811035,2528.284424 3049.786865,2534.136230 
	C3049.643799,2568.464600 3049.697510,2602.793457 3049.684814,2637.122314 
	C3049.682861,2642.354736 3049.679688,2647.587158 3049.698730,2653.617676 
z"/>
<path fill="#FAFAFA" opacity="1.000000" stroke="none" 
	d="
M3363.377930,2570.000732 
	C3363.376465,2683.871826 3363.376465,2796.742676 3363.376465,2909.657959 
	C3353.846436,2914.771729 3344.050049,2912.063232 3334.675537,2912.703857 
	C3329.802734,2913.036865 3324.836670,2911.630859 3319.909424,2911.604492 
	C3299.251953,2911.493408 3278.588867,2911.376709 3257.936523,2911.739258 
	C3248.130859,2911.911133 3238.449707,2912.688965 3228.566406,2911.358398 
	C3216.455811,2909.728027 3217.739502,2908.086182 3216.898438,2898.219971 
	C3215.942627,2887.002686 3216.345459,2875.656494 3216.407715,2864.367920 
	C3216.565186,2835.799316 3217.056396,2807.231201 3217.051025,2778.663086 
	C3217.045654,2749.402832 3216.288574,2720.141113 3216.438477,2690.883057 
	C3216.637939,2651.966797 3217.570068,2613.054932 3217.822266,2574.138672 
	C3217.910645,2560.513916 3216.726318,2546.885742 3216.474854,2533.252686 
	C3216.224121,2519.662354 3216.372803,2506.063721 3216.418701,2492.468994 
	C3216.512451,2464.580322 3216.576172,2436.690674 3216.856201,2408.803467 
	C3216.900879,2404.344727 3218.002930,2399.896484 3218.657227,2395.144531 
	C3224.223877,2394.739746 3228.463867,2394.170898 3232.704834,2394.164062 
	C3273.021729,2394.097900 3313.338867,2394.079346 3353.655762,2394.167236 
	C3362.366211,2394.186279 3363.233154,2395.215576 3363.244141,2404.076172 
	C3363.312988,2459.051025 3363.338867,2514.025635 3363.377930,2570.000732 
z"/>
<path fill="#FCFCFC" opacity="1.000000" stroke="none" 
	d="
M1435.691650,1662.305054 
	C1437.941528,1663.978271 1440.506592,1665.356079 1442.393799,1667.369263 
	C1469.441040,1696.221069 1496.043823,1725.498291 1523.464355,1753.989258 
	C1557.364624,1789.213013 1593.659912,1821.928467 1630.998535,1853.469238 
	C1665.587402,1882.687378 1701.669556,1909.957520 1739.225586,1935.243408 
	C1795.270996,1972.978149 1854.143188,2005.519775 1916.454956,2031.819946 
	C1967.278198,2053.270996 2019.651489,2069.801758 2073.566162,2081.136475 
	C2097.164062,2086.097656 2121.225830,2088.942871 2145.147217,2092.240234 
	C2161.358887,2094.474854 2168.845459,2104.846680 2164.857910,2120.901367 
	C2164.381836,2122.817627 2163.945801,2124.743652 2163.257812,2127.651367 
	C2156.389893,2127.651367 2149.428223,2128.101318 2142.542969,2127.566162 
	C2122.740723,2126.026855 2102.888672,2124.715088 2083.202637,2122.177734 
	C2042.839233,2116.975586 2002.677979,2110.693359 1963.015503,2101.105225 
	C1924.949341,2091.903320 1887.695679,2080.380371 1851.233887,2066.276367 
	C1811.498901,2050.906494 1773.488037,2031.903809 1737.011475,2009.902344 
	C1696.485229,1985.458252 1658.638550,1957.251465 1623.959961,1925.134888 
	C1565.206787,1870.722290 1516.002197,1808.459351 1476.262817,1738.935425 
	C1462.101074,1714.159546 1449.653076,1688.404175 1436.054321,1662.588135 
	C1435.685791,1662.080322 1435.691650,1662.305054 1435.691650,1662.305054 
z"/>
<path fill="#FAFAFA" opacity="1.000000" stroke="none" 
	d="
M3206.344238,1526.370850 
	C3161.172852,1596.007202 3111.702637,1662.413696 3056.492432,1724.430542 
	C3038.813721,1744.289185 3020.718750,1763.849243 3001.802246,1782.520508 
	C2955.086670,1828.629761 2904.998047,1870.747314 2849.852539,1906.565308 
	C2797.261475,1940.724365 2741.777588,1968.987793 2681.929688,1988.310913 
	C2644.338379,2000.448120 2606.083496,2009.439331 2566.830078,2014.192627 
	C2540.462402,2017.385742 2514.060059,2019.754639 2487.477051,2019.687988 
	C2485.222900,2019.682373 2482.968750,2019.687378 2479.350342,2019.687378 
	C2484.251709,2007.736572 2488.723633,1996.757080 2493.260498,1985.804688 
	C2495.291016,1980.902710 2497.312744,1975.988403 2499.594727,1971.201782 
	C2501.724854,1966.733032 2504.920654,1964.395874 2510.454834,1964.175537 
	C2554.281250,1962.430054 2597.423828,1955.951660 2639.984619,1945.251709 
	C2709.683594,1927.729126 2774.940430,1899.692261 2836.976074,1863.648804 
	C2898.807617,1827.724121 2955.640381,1785.066162 3008.353760,1736.917603 
	C3032.637939,1714.736328 3056.614990,1692.132812 3079.505859,1668.532104 
	C3113.295410,1633.694580 3145.454834,1597.323608 3175.806396,1559.405518 
	C3184.958008,1547.972778 3194.064453,1536.503906 3204.141113,1524.783691 
	C3205.508545,1525.134033 3205.926514,1525.752441 3206.344238,1526.370850 
z"/>
<path fill="#A8A8A8" opacity="1.000000" stroke="none" 
	d="
M3206.944336,1526.048340 
	C3205.926514,1525.752441 3205.508545,1525.134033 3204.580566,1524.285156 
	C3208.170654,1518.422974 3212.270752,1512.791260 3216.370850,1507.159668 
	C3217.073242,1507.644165 3217.775635,1508.128662 3218.478027,1508.613159 
	C3214.833496,1514.317383 3211.188721,1520.021606 3206.944336,1526.048340 
z"/>
<path fill="#A8A8A8" opacity="1.000000" stroke="none" 
	d="
M3218.469727,1504.671265 
	C3219.186523,1503.734253 3219.704102,1503.335327 3220.221436,1502.936279 
	C3220.422607,1503.347412 3220.624023,1503.758423 3220.825195,1504.169678 
	C3219.973633,1504.516235 3219.122070,1504.862793 3218.469727,1504.671265 
z"/>
<path fill="#FCFCFC" opacity="1.000000" stroke="none" 
	d="
M1435.601807,1662.005493 
	C1435.517700,1661.930664 1435.954346,1661.930786 1435.954346,1661.930786 
	C1435.954346,1661.930786 1435.513184,1662.132690 1435.602417,1662.218872 
	C1435.691650,1662.305054 1435.685791,1662.080322 1435.601807,1662.005493 
z"/>
<path fill="#010101" opacity="1.000000" stroke="none" 
	d="
M2570.712402,2563.993164 
	C2573.849854,2583.765137 2574.220703,2602.632568 2567.762695,2620.906982 
	C2561.232910,2639.384521 2547.750732,2652.800781 2525.824219,2652.683105 
	C2497.264893,2652.529785 2468.703613,2652.773926 2440.143066,2652.785400 
	C2436.218018,2652.787109 2432.292969,2652.434814 2427.766602,2652.217529 
	C2427.766602,2606.915527 2427.766602,2562.157227 2427.766602,2516.628418 
	C2430.270020,2516.409424 2432.811035,2515.999512 2435.353027,2515.994141 
	C2459.307617,2515.944824 2483.262207,2515.992188 2507.216797,2515.940430 
	C2511.523926,2515.931152 2515.837646,2515.692871 2520.136475,2515.393311 
	C2538.329102,2514.124512 2551.035889,2522.923584 2560.842285,2537.281006 
	C2566.204346,2545.131104 2568.634521,2554.037354 2570.712402,2563.993164 
z"/>
</svg>