<?xml version="1.0" standalone="no"?>
<!DOCTYPE svg PUBLIC "-//W3C//DTD SVG 20010904//EN"
 "http://www.w3.org/TR/2001/REC-SVG-20010904/DTD/svg10.dtd">
<svg version="1.0" xmlns="http://www.w3.org/2000/svg"
 width="1024.000000pt" height="1536.000000pt" viewBox="0 0 1024.000000 1536.000000"
 preserveAspectRatio="xMidYMid meet">

<g transform="translate(0.000000,1536.000000) scale(0.100000,-0.100000)"
fill="#000000" stroke="none">
<path d="M5123 14443 c9 -2 23 -2 30 0 6 3 -1 5 -18 5 -16 0 -22 -2 -12 -5z"/>
<path d="M4950 12856 c-91 -45 -261 -131 -378 -189 -196 -99 -252 -122 -237
-98 3 5 -4 12 -15 16 -11 3 -20 15 -20 26 0 10 -4 19 -9 19 -5 0 -13 10 -16
23 -8 27 -55 98 -75 113 -11 10 -12 17 -2 38 11 25 10 26 -16 26 -16 0 -40 -6
-55 -12 -31 -15 -31 -25 5 -138 17 -53 85 -227 93 -238 3 -3 278 137 428 218
l79 43 156 0 c87 0 142 2 125 4 -18 2 -33 8 -33 12 0 12 30 36 30 25 0 -5 5
-2 10 6 6 10 34 17 87 21 98 8 125 15 136 34 5 10 16 13 35 9 25 -5 25 -4 -13
30 -32 29 -115 82 -145 93 -3 1 -79 -36 -170 -81z"/>
<path d="M6000 12845 c0 -7 78 -84 108 -107 16 -13 22 -14 22 -5 0 8 -10 19
-22 26 -13 7 -36 30 -52 52 -25 33 -56 52 -56 34z"/>
<path d="M7864 8466 c3 -27 6 -57 6 -67 0 -11 7 -19 16 -19 8 0 12 -5 8 -11
-5 -8 -1 -8 13 0 11 6 23 8 25 5 3 -2 16 -7 28 -9 13 -2 35 -15 49 -27 l26
-23 -20 24 c-11 13 -42 47 -70 76 -27 28 -58 62 -68 76 l-18 24 5 -49z"/>
<path d="M2416 8463 c-6 -14 -5 -15 5 -6 7 7 10 15 7 18 -3 3 -9 -2 -12 -12z"/>
<path d="M3766 2366 c-40 -18 -91 -70 -112 -114 -12 -25 -18 -61 -18 -113 -1
-67 3 -82 30 -125 56 -91 180 -129 278 -85 27 11 52 18 58 15 5 -3 20 -3 34 0
24 6 24 8 24 116 l0 110 -95 0 -95 0 0 -40 0 -40 53 0 54 0 -5 -31 c-9 -60
-96 -87 -169 -52 -51 24 -73 66 -73 139 0 97 49 154 133 154 43 0 89 -21 109
-49 13 -18 15 -18 46 10 41 37 33 57 -40 93 -41 20 -66 26 -117 25 -37 0 -79
-6 -95 -13z"/>
<path d="M4550 2150 l0 -230 45 0 45 0 0 230 0 230 -45 0 -45 0 0 -230z"/>
<path d="M5338 2373 l-48 -4 0 -225 0 -224 45 0 45 0 0 80 0 80 75 0 c43 0 90
6 110 14 96 41 102 212 8 259 -30 15 -158 26 -235 20z m184 -95 c24 -12 33
-54 19 -84 -14 -31 -52 -46 -110 -42 l-46 3 -3 59 c-4 86 -2 89 65 80 32 -3
66 -11 75 -16z"/>
<path d="M6100 2150 l0 -230 40 0 40 0 0 230 0 230 -40 0 -40 0 0 -230z"/>
<path d="M4220 2237 c-100 -53 -120 -195 -38 -274 60 -58 133 -69 208 -30 130
65 128 248 -4 308 -56 25 -114 24 -166 -4z m123 -58 c68 -31 68 -157 0 -188
-55 -25 -123 29 -123 98 0 36 24 73 55 87 37 16 39 16 68 3z"/>
<path d="M4783 2240 c-30 -18 -53 -48 -53 -68 0 -5 16 -13 36 -17 30 -5 39 -3
51 14 20 29 88 29 103 0 18 -32 5 -49 -37 -49 -114 -2 -173 -38 -173 -106 0
-48 15 -73 55 -90 47 -19 84 -18 123 6 39 24 52 25 52 5 0 -11 11 -15 38 -15
l37 0 -3 127 c-2 71 -9 139 -15 153 -27 56 -150 80 -214 40z m143 -202 c-15
-77 -126 -96 -126 -22 0 35 29 50 99 53 33 1 33 0 27 -31z"/>
<path d="M5784 2249 c-42 -12 -91 -69 -100 -114 -22 -120 38 -212 144 -223 27
-2 66 1 85 7 52 17 104 80 112 133 21 142 -98 239 -241 197z m100 -69 c29 -11
56 -57 56 -97 0 -39 -34 -91 -65 -99 -34 -8 -79 12 -96 43 -7 14 -13 44 -13
66 1 32 8 47 33 69 34 30 46 33 85 18z"/>
<path d="M6357 2246 c-50 -18 -67 -34 -88 -81 -25 -54 -24 -112 4 -165 63
-125 261 -115 319 17 64 144 -79 284 -235 229z m101 -67 c30 -10 62 -58 62
-93 0 -37 -28 -83 -59 -95 -104 -44 -172 135 -71 186 31 15 30 15 68 2z"/>
<path d="M4842 1605 c-26 -29 -27 -35 -8 -35 12 0 46 40 46 55 0 12 -18 3 -38
-20z"/>
<path d="M3140 1478 l0 -143 95 1 c97 0 132 18 40 20 -27 1 -65 2 -82 3 l-33
1 0 55 0 55 75 0 c43 0 75 4 75 10 0 6 -32 10 -76 10 l-75 0 3 53 3 52 83 3
c114 4 104 22 -13 22 l-95 0 0 -142z"/>
<path d="M3400 1475 c0 -90 4 -145 10 -145 6 0 10 55 10 145 0 90 -4 145 -10
145 -6 0 -10 -55 -10 -145z"/>
<path d="M4675 1612 c-9 -9 -5 -32 5 -32 5 0 14 8 19 18 8 14 6 19 -5 19 -7 0
-16 -3 -19 -5z"/>
<path d="M5550 1607 c-89 -45 -94 -204 -8 -257 57 -35 136 -20 172 32 20 28
20 38 1 38 -8 0 -15 -7 -15 -15 0 -20 -58 -55 -92 -55 -38 0 -88 47 -97 90
-26 125 80 208 169 134 42 -36 54 -20 12 17 -36 32 -96 39 -142 16z"/>
<path d="M6300 1601 c-5 -11 -10 -29 -10 -40 0 -12 -7 -21 -15 -21 -8 0 -15
-4 -15 -10 0 -5 7 -10 15 -10 12 0 15 -17 15 -95 0 -57 4 -95 10 -95 6 0 10
22 10 49 0 92 11 141 31 141 11 0 19 5 19 10 0 6 -9 10 -20 10 -16 0 -20 7
-20 30 0 25 4 30 25 30 14 0 25 5 25 10 0 19 -59 11 -70 -9z"/>
<path d="M6818 1594 c-5 -4 -8 -18 -8 -31 0 -14 -6 -23 -15 -23 -8 0 -15 -4
-15 -10 0 -5 7 -10 15 -10 12 0 15 -16 15 -85 0 -73 3 -86 19 -95 24 -13 51
-13 51 -1 0 5 -10 11 -22 13 -22 3 -23 8 -23 83 l0 80 30 6 c17 4 27 8 23 9
-15 5 -28 8 -42 9 -9 0 -16 14 -18 32 -2 17 -6 27 -10 23z"/>
<path d="M3515 1516 c-46 -46 -42 -136 9 -171 31 -22 81 -18 112 8 15 13 24
29 20 35 -4 7 -15 2 -31 -14 -13 -13 -36 -24 -50 -24 -30 0 -65 32 -65 60 0
18 7 20 81 20 l82 0 -7 32 c-15 75 -99 105 -151 54z m107 -13 c10 -9 18 -24
18 -35 0 -16 -8 -18 -65 -18 -70 0 -78 7 -49 48 18 27 69 30 96 5z"/>
<path d="M3745 1515 c-34 -33 -35 -112 -2 -150 28 -33 86 -38 117 -10 20 18
20 18 20 -13 0 -64 -76 -96 -121 -51 -24 24 -35 19 -20 -10 20 -37 103 -39
144 -3 14 13 17 33 17 139 0 75 -4 123 -10 123 -5 0 -10 -7 -10 -16 0 -14 -2
-14 -22 0 -34 24 -85 20 -113 -9z m119 -17 c9 -12 16 -38 16 -58 0 -53 -23
-80 -70 -80 -29 0 -43 6 -54 22 -23 32 -20 90 4 116 28 30 83 30 104 0z"/>
<path d="M3998 1529 c-10 -5 -18 -19 -18 -29 0 -26 16 -26 23 1 5 17 12 20 48
17 45 -3 67 -24 56 -52 -5 -12 -19 -16 -57 -16 -37 0 -55 -5 -70 -20 -25 -25
-25 -41 1 -74 23 -30 72 -35 104 -12 17 12 21 12 31 -3 7 -9 14 -14 17 -11 2
3 1 45 -2 93 -5 72 -10 92 -26 103 -22 16 -82 18 -107 3z m112 -112 c0 -36
-36 -69 -72 -65 -62 6 -63 66 -2 79 60 13 74 10 74 -14z"/>
<path d="M4210 1435 c0 -63 4 -105 10 -105 6 0 10 32 10 75 0 85 18 115 69
115 41 0 50 -16 53 -103 4 -105 23 -95 23 11 0 71 -3 86 -19 98 -26 19 -76 18
-104 -2 -20 -14 -22 -14 -22 0 0 9 -4 16 -10 16 -6 0 -10 -42 -10 -105z"/>
<path d="M4473 1525 c-13 -9 -27 -33 -33 -55 -27 -100 78 -183 145 -115 24 23
33 45 19 45 -4 0 -17 -11 -30 -25 -30 -33 -67 -32 -93 1 -31 40 -24 112 13
136 21 14 60 8 83 -14 31 -29 42 -14 13 17 -28 29 -83 34 -117 10z"/>
<path d="M4670 1435 c0 -63 4 -105 10 -105 6 0 10 42 10 105 0 63 -4 105 -10
105 -6 0 -10 -42 -10 -105z"/>
<path d="M4780 1520 c-12 -12 -18 -25 -15 -30 10 -16 22 -11 28 10 8 29 82 29
97 -1 16 -29 -4 -49 -50 -49 -43 0 -90 -32 -90 -61 0 -49 72 -76 118 -43 22
15 24 15 37 -2 7 -11 15 -17 17 -14 3 3 2 45 -2 94 -5 70 -10 91 -25 102 -29
21 -91 18 -115 -6z m112 -110 c-5 -34 -30 -60 -58 -60 -40 0 -54 11 -54 41 0
23 5 30 28 35 15 3 32 7 37 9 6 2 19 3 30 2 15 -2 19 -8 17 -27z"/>
<path d="M5135 1508 c-24 -28 -27 -39 -22 -82 5 -60 39 -96 91 -96 32 0 86 32
86 51 0 15 -19 10 -40 -11 -37 -37 -99 -16 -115 38 -6 22 -5 22 80 22 75 0 86
2 81 16 -3 9 -6 22 -6 30 0 30 -47 64 -89 64 -32 0 -44 -6 -66 -32z m117 -5
c10 -9 18 -24 18 -35 0 -16 -9 -18 -70 -18 -38 0 -70 3 -70 6 0 11 23 49 34
56 20 13 69 8 88 -9z"/>
<path d="M5815 1516 c-33 -33 -41 -85 -20 -129 34 -73 134 -75 169 -4 37 76
-6 157 -84 157 -30 0 -47 -6 -65 -24z m117 -13 c27 -24 25 -100 -4 -130 -49
-52 -118 -16 -118 62 0 32 6 51 20 65 24 24 77 26 102 3z"/>
<path d="M6040 1435 c0 -120 16 -143 22 -31 4 84 23 116 68 116 40 0 49 -17
52 -103 4 -95 22 -107 26 -17 4 74 -2 102 -24 124 -20 20 -73 20 -102 0 -20
-14 -22 -14 -22 0 0 9 -4 16 -10 16 -6 0 -10 -42 -10 -105z"/>
<path d="M6426 1514 c-21 -22 -26 -36 -26 -76 0 -41 5 -54 29 -79 69 -69 171
-7 158 95 -11 82 -104 116 -161 60z m111 -9 c27 -19 37 -59 23 -101 -29 -88
-140 -64 -140 31 0 72 62 109 117 70z"/>
<path d="M6650 1435 c0 -63 4 -105 10 -105 6 0 10 27 10 60 0 72 19 115 55
124 14 4 25 11 25 16 0 18 -33 11 -57 -12 l-23 -21 0 21 c0 12 -4 22 -10 22
-6 0 -10 -42 -10 -105z"/>
<path d="M6955 1516 c-57 -57 -35 -162 38 -180 53 -14 88 1 111 47 37 76 -6
157 -84 157 -30 0 -47 -6 -65 -24z m115 -16 c49 -49 14 -150 -52 -150 -43 0
-68 32 -68 85 0 54 25 85 70 85 17 0 39 -9 50 -20z"/>
</g>
</svg>
