<?xml version="1.0" standalone="no"?>
<!DOCTYPE svg PUBLIC "-//W3C//DTD SVG 20010904//EN"
 "http://www.w3.org/TR/2001/REC-SVG-20010904/DTD/svg10.dtd">
<svg version="1.0" xmlns="http://www.w3.org/2000/svg"
 width="1684.000000pt" height="2528.000000pt" viewBox="0 0 1684.000000 2528.000000"
 preserveAspectRatio="xMidYMid meet">

<g transform="translate(0.000000,2528.000000) scale(0.100000,-0.100000)"
fill="#000000" stroke="none">
<path d="M16832 24920 c0 -14 2 -19 5 -12 2 6 2 18 0 25 -3 6 -5 1 -5 -13z"/>
<path d="M8381 23351 c-11 -11 -45 -25 -78 -31 -134 -27 -260 -117 -328 -235
-46 -80 -67 -97 -123 -103 -51 -4 -77 -27 -47 -38 21 -8 19 -22 -5 -29 -11 -3
-20 -10 -20 -15 0 -18 40 -20 77 -5 49 21 85 55 135 130 78 115 176 191 277
214 41 9 58 -2 22 -14 -11 -3 -23 -15 -26 -26 -4 -11 -20 -34 -36 -50 -16 -17
-27 -34 -24 -40 11 -17 23 -9 18 11 -5 19 5 25 31 21 5 -1 16 5 26 14 9 8 20
12 23 8 4 -3 7 -1 7 6 0 24 20 -1 21 -27 2 -26 11 18 25 118 6 46 23 78 25 47
2 -46 1 -73 -5 -87 -5 -13 -24 -164 -27 -210 0 -10 -3 -8 -9 5 -5 12 -9 -49
-10 -160 -1 -99 -3 -188 -5 -197 -2 -10 1 -20 6 -24 5 -3 10 57 10 143 l2 148
9 -110 c5 -60 6 -204 3 -320 -4 -115 -6 -280 -6 -365 0 -132 -12 -276 -23
-288 -2 -2 -47 -12 -100 -23 -120 -24 -160 -41 -214 -91 -15 -14 -42 -31 -60
-38 -18 -7 -36 -18 -40 -24 -4 -7 -38 -36 -77 -65 -81 -61 -198 -183 -277
-291 -54 -74 -198 -297 -198 -307 0 -6 -71 -92 -169 -203 -67 -76 -116 -125
-216 -218 -52 -49 -236 -182 -251 -182 -3 0 -24 -12 -47 -27 -51 -34 -66 -43
-137 -84 -30 -17 -86 -53 -125 -78 -38 -26 -82 -52 -97 -58 -25 -11 -40 -35
-20 -32 38 6 44 -18 7 -27 -14 -4 -24 -9 -21 -11 10 -11 75 -20 80 -12 2 5 3
4 2 -3 -2 -7 -11 -12 -20 -12 -9 1 -16 -2 -16 -6 0 -4 -13 -13 -30 -20 -16 -7
-30 -16 -30 -21 0 -5 -8 -9 -17 -9 -10 0 -31 -7 -47 -15 -24 -13 -31 -13 -38
-3 -10 16 -4 34 10 31 5 -1 13 4 16 13 4 11 2 13 -10 6 -11 -6 -33 -4 -63 5
-25 7 -48 12 -51 11 -3 -2 -6 12 -8 30 -3 25 -8 32 -24 32 -20 0 -21 -4 -15
-102 5 -101 34 -269 61 -358 8 -25 28 -106 45 -180 17 -74 36 -153 41 -175 6
-22 12 -51 14 -65 6 -33 55 -211 63 -230 8 -18 7 -16 16 -62 5 -21 12 -38 18
-38 6 0 8 -3 5 -8 -2 -4 11 -66 30 -137 19 -72 44 -164 54 -205 25 -95 69
-221 85 -240 7 -8 18 -36 26 -62 16 -56 39 -66 30 -13 -1 6 5 3 14 -6 12 -11
15 -24 10 -39 -6 -18 -9 -20 -16 -9 -6 9 -9 10 -9 2 0 -6 5 -15 10 -18 6 -4 8
-10 5 -15 -3 -5 3 -8 13 -7 11 0 18 8 17 17 -1 8 0 9 2 2 3 -7 9 -10 14 -7 5
3 6 0 4 -7 -3 -8 4 -23 15 -35 23 -26 26 -37 6 -30 -16 6 -30 -19 -16 -28 4
-3 11 1 13 7 3 7 6 2 6 -11 1 -24 1 -24 17 -5 15 19 15 18 11 -4 -5 -23 23
-49 37 -34 4 3 0 -7 -8 -23 -20 -38 -20 -46 0 -38 14 5 15 1 9 -25 -5 -25 -4
-31 8 -27 7 3 14 0 14 -8 0 -7 -9 -13 -20 -13 -11 1 -22 -6 -25 -14 -4 -12 -3
-13 10 -2 13 10 16 9 21 -8 3 -11 1 -20 -4 -20 -5 0 -9 -7 -9 -16 0 -13 3 -14
13 -5 10 8 14 7 14 -4 0 -8 -4 -15 -8 -15 -5 0 -6 -7 -3 -15 5 -12 10 -10 25
8 18 20 19 20 17 3 -2 -10 3 -21 11 -24 8 -2 11 0 7 6 -3 5 -2 21 3 34 8 20 9
18 9 -14 0 -21 -4 -38 -9 -38 -5 0 -9 -7 -9 -15 0 -8 7 -15 15 -15 9 0 12 6 8
17 -5 12 -2 15 9 11 9 -4 20 -2 26 4 8 8 13 7 18 -5 3 -9 11 -14 17 -10 5 3 7
1 4 -5 -4 -5 -17 -8 -30 -4 -19 5 -20 3 -10 -10 7 -8 10 -18 6 -21 -3 -4 -1
-7 5 -7 7 0 11 -5 9 -12 -1 -7 3 -12 10 -13 17 0 29 -15 12 -15 -12 0 -12 -2
0 -9 22 -14 44 -2 30 15 -9 11 -8 14 5 14 18 0 23 -46 6 -52 -5 -1 2 -8 15
-15 22 -10 25 -9 25 8 0 10 -4 19 -10 19 -6 0 -6 9 0 25 5 14 6 25 3 25 -4 0
-2 5 4 11 8 8 4 18 -15 36 -15 14 -22 22 -15 19 6 -4 14 -2 18 4 3 6 -1 13 -9
16 -9 3 -16 16 -16 28 0 12 -9 25 -22 31 -13 6 -21 17 -19 25 2 8 4 27 5 42 1
15 5 30 9 34 4 4 2 13 -4 20 -7 8 -6 14 2 20 8 4 4 11 -12 20 l-24 13 25 1
c16 0 20 3 13 8 -7 4 -12 16 -11 27 0 11 -2 42 -6 68 -4 42 -3 47 9 37 12 -10
13 -8 10 9 -3 16 1 21 17 21 l22 0 -22 20 c-12 11 -25 20 -30 20 -5 0 -15 7
-22 15 -10 11 -10 15 0 15 18 0 6 23 -14 26 -21 3 -42 21 -35 29 3 2 203 7
445 10 241 3 581 7 754 10 354 5 470 -1 470 -21 0 -8 7 -14 15 -14 9 0 12 6 9
15 -4 9 0 15 10 15 10 0 13 -6 10 -15 -4 -8 -1 -15 5 -15 6 0 11 7 11 15 0 12
14 15 64 15 l63 0 9 -137 9 -138 25 0 c24 0 25 4 36 85 5 47 7 90 3 95 -7 11
-3 85 6 94 4 3 268 7 588 9 909 4 1155 7 1161 12 11 11 16 70 6 70 -5 0 -10 6
-10 14 0 17 -41 24 -88 15 -17 -4 -34 -3 -37 1 -6 9 -83 25 -104 21 -7 -1 -10
2 -6 9 4 6 14 9 22 6 8 -3 11 -1 8 4 -3 6 -30 10 -58 9 -29 0 -46 -3 -39 -6 6
-2 10 -8 8 -12 -7 -10 -66 -1 -66 10 0 5 -10 9 -22 8 -22 0 -22 -1 -3 -9 19
-8 19 -9 -2 -9 -13 -1 -23 4 -23 9 0 6 -8 10 -17 9 -11 0 -13 -3 -5 -6 29 -11
8 -19 -53 -19 -51 1 -64 4 -60 15 4 11 2 11 -8 3 -8 -7 -17 -9 -20 -5 -4 3 -7
1 -7 -5 0 -6 -9 -10 -20 -9 -11 1 -19 6 -17 12 3 5 -6 11 -19 11 -13 1 -22 -1
-21 -5 2 -7 -7 -11 -30 -11 -15 0 -16 2 -3 10 12 8 9 10 -12 10 -18 0 -26 -4
-23 -13 4 -9 -11 -13 -52 -15 -32 -1 -62 -7 -67 -12 -6 -6 -15 -10 -20 -10 -6
0 -4 5 4 11 12 8 9 10 -12 6 -16 -2 -28 0 -28 5 0 5 -13 7 -29 3 -17 -3 -39
-2 -50 4 -14 8 -22 8 -26 0 -8 -12 -71 -10 -97 3 -11 5 -18 5 -18 -1 0 -6 -88
-9 -238 -8 -200 2 -242 0 -257 -13 -21 -17 -107 -19 -285 -6 -120 9 -349 9
-410 0 -19 -2 -128 -6 -242 -7 -114 -1 -210 -6 -214 -9 -4 -4 -15 -3 -26 3
-11 6 -27 7 -36 3 -24 -10 -33 -11 -70 -3 -18 4 -46 2 -63 -4 -22 -9 -32 -9
-37 -1 -4 6 -16 10 -27 8 -49 -9 -165 -11 -170 -4 -3 5 -19 5 -35 0 -17 -5
-30 -5 -30 0 0 4 -19 6 -42 3 -24 -2 -70 -6 -103 -7 -33 -1 -71 -7 -85 -13
-32 -14 -316 -17 -325 -4 -3 6 -12 8 -19 5 -7 -3 -19 2 -26 11 -7 8 -18 15
-25 15 -19 0 -28 32 -13 46 7 7 40 16 73 20 68 7 77 11 53 25 -10 5 -15 16
-12 24 4 9 0 15 -10 15 -15 0 -21 16 -18 52 1 9 -5 21 -12 27 -8 7 -12 21 -9
31 3 11 0 20 -6 20 -6 0 -11 9 -11 19 0 11 -6 22 -12 24 -10 4 -9 8 2 16 10 7
11 11 3 11 -9 0 -11 10 -6 30 3 19 1 30 -5 30 -6 0 -9 6 -6 14 3 8 1 17 -5 21
-6 3 -11 18 -11 33 0 21 2 24 10 12 5 -8 10 -10 10 -4 0 5 -6 19 -14 29 -8 11
-12 25 -9 32 3 7 0 13 -6 13 -6 0 -11 15 -11 33 0 19 -3 37 -7 41 -15 14 -30
84 -22 97 5 8 2 20 -8 31 -11 12 -13 22 -6 30 8 11 11 73 4 73 -2 0 -5 20 -7
45 -3 25 -10 47 -15 48 -5 2 -9 12 -9 23 0 10 -4 19 -10 19 -5 0 -10 5 -10 10
0 6 12 10 26 10 23 0 25 3 19 30 -4 18 -3 30 4 30 5 0 11 15 13 32 2 23 10 36
28 45 17 8 24 19 22 33 -4 27 13 25 67 -9 64 -40 277 -149 334 -171 51 -20 65
-12 20 11 -35 17 -68 48 -76 72 -3 9 -13 17 -22 17 -17 0 -20 16 -5 25 6 4 8
10 5 15 -3 5 -3 20 0 33 5 18 12 23 26 20 10 -3 19 0 19 6 0 6 9 11 19 11 11
0 23 9 26 20 7 23 21 26 28 8 3 -8 6 -6 6 5 1 9 6 17 12 17 5 0 8 3 6 8 -6 12
42 52 49 41 4 -6 14 -2 25 10 11 12 27 21 35 21 8 0 12 5 9 10 -3 6 0 10 7 11
7 1 22 2 33 3 12 0 21 9 23 22 2 12 13 24 25 28 26 7 37 -2 17 -14 -12 -8 -10
-10 7 -10 12 0 25 5 28 10 3 6 15 10 26 10 12 0 17 4 13 11 -3 6 -1 21 6 34
13 23 37 24 52 1 7 -11 12 14 9 42 -3 19 19 14 27 -6 5 -14 13 -17 32 -11 14
4 18 8 10 8 -13 1 -13 2 0 11 12 8 13 13 2 30 -14 23 0 27 18 5 18 -22 33 -19
20 4 -16 30 -12 36 10 16 13 -11 20 -14 20 -6 0 8 7 10 20 6 12 -4 20 -2 20 5
0 7 7 10 15 6 8 -3 15 -1 15 4 0 5 -7 10 -15 12 -13 2 -12 6 5 20 19 17 20 17
20 -2 0 -11 3 -20 6 -20 10 0 34 28 34 39 0 6 7 11 15 11 8 0 15 4 15 9 0 5
11 8 25 5 19 -3 23 -1 19 11 -4 8 -10 15 -15 15 -5 0 -9 10 -9 22 0 19 2 20
13 6 16 -20 51 -33 44 -16 -5 15 17 40 27 31 3 -4 6 1 6 10 0 9 5 17 10 17 15
0 12 -11 -7 -32 -16 -17 -15 -18 8 -14 13 3 29 5 36 5 6 1 14 9 16 19 4 15 5
15 6 -2 1 -11 6 -16 15 -13 8 3 17 1 19 -6 3 -7 10 0 16 16 10 27 19 31 54 28
19 -2 22 11 7 40 -15 27 -3 24 26 -8 l25 -27 6 22 6 23 14 -21 c8 -11 18 -18
22 -16 29 18 38 -38 44 -276 2 -48 6 -90 10 -94 4 -4 7 0 7 9 0 9 7 17 15 17
20 0 19 20 -2 35 -15 11 -15 14 5 31 24 21 30 46 8 38 -19 -7 -27 8 -15 26 8
12 12 12 16 3 2 -7 10 -13 17 -13 8 0 13 -10 12 -22 -2 -30 13 -78 25 -78 5 0
6 12 3 26 -5 20 -3 25 6 22 15 -5 21 -46 8 -54 -4 -3 -8 -10 -8 -16 0 -5 8 0
18 13 15 18 17 28 9 49 -7 19 -16 26 -28 23 -14 -4 -16 0 -12 16 7 28 14 26
39 -10 17 -24 23 -27 27 -15 4 9 1 16 -5 16 -7 0 -6 5 2 15 6 8 10 20 8 27 -6
17 22 47 38 41 9 -3 14 2 14 16 0 12 6 20 13 18 6 -1 12 5 12 13 0 8 -6 16
-12 16 -26 3 -28 5 -10 15 9 5 17 19 17 31 0 13 5 18 14 15 10 -4 13 -1 10 7
-3 8 10 17 35 26 23 7 43 21 47 32 5 16 8 17 22 7 14 -11 15 -11 5 1 -7 8 -13
20 -13 27 0 7 6 12 13 11 6 -2 11 5 11 15 -2 13 3 16 19 11 16 -5 19 -3 13 12
-4 10 -4 15 0 11 4 -4 14 -1 22 6 13 10 14 9 8 -1 -7 -11 -4 -11 12 -1 19 12
19 14 4 26 -20 15 -36 17 -28 4 4 -5 -4 -7 -16 -3 -17 4 -19 7 -6 11 8 3 14
14 12 24 -3 21 12 23 20 2 8 -23 23 -18 38 13 8 15 22 27 33 28 11 1 25 2 30
4 6 1 17 2 26 1 10 -1 15 6 15 21 -1 13 5 23 13 23 8 0 16 6 19 13 2 6 -1 12
-7 12 -6 0 -11 7 -11 16 0 11 6 14 22 8 20 -6 21 -5 9 10 -8 9 -11 19 -9 22 3
3 16 -10 29 -28 l24 -33 3 -434 3 -434 -22 -23 c-18 -19 -29 -22 -53 -17 -17
3 -60 5 -96 5 -36 -1 -72 -2 -80 -2 -8 0 -51 1 -95 1 -44 1 -88 -2 -98 -6 -24
-10 -36 4 -14 16 21 12 22 29 2 29 -8 0 -15 -7 -15 -15 0 -18 -28 -34 -61 -35
-74 -2 -82 1 -105 25 -13 14 -24 33 -24 43 0 10 -3 12 -9 7 -5 -6 -6 -26 -2
-45 8 -40 38 -59 91 -60 49 -1 123 -19 131 -32 6 -9 12 -8 24 2 12 10 18 11
24 2 4 -7 26 -11 52 -10 24 1 50 -1 58 -6 8 -5 16 -4 22 5 6 11 14 11 38 2 20
-7 31 -8 33 -1 3 7 11 7 25 0 16 -9 22 -9 26 1 3 9 9 9 24 1 18 -11 59 -11
112 0 64 14 91 29 110 62 19 31 22 57 27 227 8 254 8 604 0 642 -3 16 -14 41
-24 55 -40 55 -60 106 -50 124 7 13 7 21 -2 26 -19 12 6 22 27 11 10 -5 52
-24 93 -42 106 -45 283 -132 297 -146 7 -6 22 -9 33 -6 12 3 20 0 20 -7 0 -7
7 -10 15 -7 8 4 17 2 20 -3 4 -6 15 -10 26 -10 10 0 19 -7 19 -15 0 -8 5 -15
11 -15 5 0 8 4 5 9 -3 4 6 6 19 3 14 -2 23 -8 20 -12 -3 -4 6 -10 20 -12 13
-3 22 -1 19 3 -3 5 2 9 10 9 9 0 16 -7 16 -16 0 -11 5 -14 16 -10 9 3 27 -3
41 -13 13 -11 31 -17 40 -14 11 4 14 2 9 -5 -4 -7 -1 -12 10 -12 27 0 -4 30
-53 51 -24 10 -43 23 -43 29 0 15 3 14 68 -25 33 -19 62 -42 66 -50 3 -10 11
-13 18 -9 9 5 9 3 -1 -9 -7 -9 -10 -18 -5 -18 5 -1 22 -3 38 -5 15 -1 36 -10
45 -18 10 -9 22 -16 28 -16 12 0 27 -29 24 -46 0 -6 6 -18 16 -25 14 -12 16
-12 9 0 -6 9 -5 12 5 9 8 -3 13 -15 11 -26 -2 -12 2 -22 7 -22 6 0 11 4 11 9
0 8 8 8 39 2 2 -1 -3 -9 -10 -18 -10 -11 -10 -14 -1 -9 7 4 12 2 12 -6 0 -10
2 -11 8 0 7 10 14 8 33 -6 13 -11 40 -22 59 -26 19 -3 29 -3 22 0 -6 3 -10 10
-7 15 4 5 -2 6 -11 2 -11 -4 -15 -3 -10 5 3 6 -3 13 -14 17 -11 3 -20 11 -20
17 0 7 4 7 13 0 6 -5 50 -29 97 -52 167 -85 420 -235 420 -251 0 -4 11 -9 23
-13 13 -3 37 -16 52 -28 16 -12 34 -23 39 -24 6 -1 36 -13 66 -27 76 -35 82
-36 86 -7 3 13 13 33 23 45 10 11 16 26 14 33 -3 7 -2 20 3 30 10 23 11 82 2
82 -5 0 -8 5 -8 11 0 5 4 8 9 4 5 -3 12 -1 16 5 3 5 1 10 -4 10 -6 0 -11 16
-11 35 0 19 5 35 11 35 5 0 7 -6 4 -12 -4 -7 1 -4 10 7 9 11 19 18 23 15 4 -3
8 5 10 18 4 25 -23 62 -44 62 -8 0 -19 9 -26 20 -7 11 -18 20 -25 20 -7 0 -17
8 -22 18 -5 10 -19 18 -31 19 -12 1 -28 10 -36 20 -7 10 -14 14 -14 9 0 -5 -9
-1 -20 9 -11 10 -20 14 -20 9 0 -5 -5 -2 -10 6 -5 8 -15 15 -22 16 -7 0 -21 2
-30 2 -19 2 -26 32 -8 32 6 0 10 -4 10 -10 0 -5 7 -10 16 -10 9 0 14 6 11 13
-3 7 -19 11 -46 9 -39 -2 -41 -1 -31 17 13 25 13 34 0 26 -6 -3 -18 1 -27 11
-11 11 -18 13 -21 5 -6 -19 -20 -12 -15 8 3 13 -4 24 -26 37 -33 20 -38 30
-18 37 6 2 -1 2 -17 -1 -17 -2 -26 0 -22 6 3 5 -2 13 -11 16 -9 4 -20 1 -25
-6 -6 -11 -8 -11 -8 0 0 7 9 16 21 20 19 7 19 9 5 21 -9 8 -16 21 -17 30 -1 9
-4 7 -7 -7 -10 -32 -27 -23 -25 13 0 17 -1 25 -4 18 -3 -9 -9 -10 -23 -1 -14
9 -16 16 -8 25 6 7 8 14 4 14 -3 1 -9 2 -13 3 -5 1 -14 5 -20 9 -8 5 -13 4
-13 -3 0 -6 -5 -8 -11 -5 -6 4 -8 9 -5 12 5 6 -9 26 -38 51 -43 39 -56 57 -51
70 3 9 0 12 -9 9 -7 -3 -19 0 -25 6 -8 8 -5 17 10 33 14 15 17 24 9 29 -7 4
-14 -1 -17 -14 -6 -25 -35 -29 -32 -3 4 20 -20 67 -28 58 -4 -3 -14 8 -24 24
-11 17 -26 30 -34 30 -8 0 -16 8 -17 18 -2 32 -4 37 -12 50 -4 7 -15 11 -23 8
-8 -3 -11 -1 -8 5 4 6 -1 19 -10 29 -15 16 -16 22 -5 35 11 13 10 19 -4 33
-16 16 -17 16 -10 0 9 -25 -18 -23 -34 2 -7 12 -17 18 -22 15 -5 -3 -11 -1
-15 5 -3 5 1 10 11 10 13 0 14 3 4 15 -7 8 -9 15 -6 15 17 0 -24 30 -49 36
-23 6 -26 10 -20 33 3 16 2 21 -3 13 -7 -10 -13 -7 -25 12 -10 14 -17 29 -17
35 0 9 -26 22 -36 18 -3 -1 -12 13 -21 31 -14 30 -28 36 -70 35 -18 -1 -16 8
5 23 13 9 14 16 6 24 -8 8 -14 9 -18 1 -11 -17 -23 -13 -29 10 -3 12 -10 18
-15 15 -6 -3 -8 2 -6 11 3 10 -2 27 -11 38 -16 20 -16 20 -10 -3 4 -13 1 -28
-9 -37 -20 -21 -29 -19 -23 5 3 13 0 20 -9 20 -9 0 -28 15 -45 32 -18 20 -29
27 -29 18 -1 -8 -8 -2 -16 13 -9 17 -20 25 -27 20 -16 -10 -47 -11 -47 -3 0 4
7 13 15 20 12 10 13 16 5 24 -8 8 -18 3 -35 -16 -27 -31 -37 -36 -29 -13 4 10
-3 18 -21 25 -27 10 -27 11 -10 30 15 16 15 20 3 20 -8 0 -18 -3 -22 -7 -12
-12 -46 -10 -46 3 0 7 -13 15 -30 19 -26 6 -28 9 -20 26 12 21 1 26 -18 7 -9
-9 -18 -7 -39 9 -16 11 -45 26 -65 33 -21 8 -38 18 -38 22 0 4 -6 8 -13 8 -7
0 -39 13 -70 29 -31 16 -57 27 -57 24 0 -4 -8 1 -17 9 -10 8 -26 18 -37 22
-12 4 -16 12 -11 24 4 9 8 22 9 29 1 7 5 16 9 19 4 4 7 12 7 18 0 7 -3 7 -8
-1 -4 -6 -16 -13 -26 -15 -18 -3 -19 3 -18 87 1 101 5 135 16 153 4 7 0 22 -8
34 -9 12 -16 27 -16 33 0 5 5 3 10 -5 7 -11 10 -8 10 16 0 31 -1 31 -50 33
-76 1 -90 -20 -85 -123 2 -48 0 -85 -7 -93 -7 -9 -7 -13 0 -13 15 0 12 -58 -4
-71 -10 -8 -11 -16 -3 -31 6 -11 7 -18 2 -15 -5 3 -15 2 -23 -3 -12 -7 -11
-12 4 -29 19 -21 19 -21 -23 -21 l-42 0 4 183 c5 239 5 241 140 382 37 40 64
75 60 80 -5 4 -3 5 4 2 23 -14 132 142 148 210 2 10 11 45 19 77 8 33 13 64
11 70 -2 6 -6 41 -9 78 -2 37 -9 76 -15 87 -15 28 -14 38 5 38 9 0 19 -8 21
-17 4 -15 9 -16 34 -7 34 13 36 26 9 58 -20 23 -20 23 -8 2 9 -16 9 -26 2 -33
-8 -8 -11 -7 -12 2 -3 31 -20 92 -21 78 -1 -8 -9 0 -17 18 -18 35 -25 38 -56
21 -18 -10 -19 -8 -13 11 6 19 4 21 -15 15 -15 -5 -20 -4 -16 4 4 6 -1 14 -11
17 -19 6 -96 40 -125 55 -10 5 -27 9 -38 9 -31 0 -100 33 -105 51 -5 15 -45
29 -81 29 -8 0 -23 -9 -33 -19z m364 -212 c75 -80 108 -162 106 -266 -1 -82
-50 -212 -88 -236 -7 -5 -11 -12 -8 -16 2 -5 -7 -17 -20 -27 -14 -10 -25 -23
-25 -29 0 -5 -18 -26 -41 -45 -89 -77 -139 -132 -166 -182 -28 -52 -28 -56
-33 -273 l-5 -220 -34 2 c-19 1 -38 8 -43 15 -9 15 -5 1209 5 1225 4 6 27 13
53 17 40 5 49 3 65 -16 11 -11 19 -32 19 -45 0 -12 5 -23 11 -23 8 0 8 -4 0
-14 -12 -15 -5 -46 11 -46 5 0 6 -9 3 -20 -3 -11 -2 -20 3 -20 15 0 21 25 11
41 -13 21 -11 33 5 20 17 -15 27 7 19 41 -6 19 -4 21 8 11 12 -10 18 -8 32 7
9 11 17 30 17 41 0 12 8 23 19 26 12 3 17 11 14 19 -3 8 -3 14 0 14 11 0 68
-65 83 -93 25 -46 28 -23 4 24 -12 23 -47 67 -79 97 -46 45 -50 51 -23 36 19
-11 53 -40 77 -65z m-119 -86 c-10 -10 -19 5 -10 18 6 11 8 11 12 0 2 -7 1
-15 -2 -18z m-279 -85 c-3 -8 -6 -5 -6 6 -1 11 2 17 5 13 3 -3 4 -12 1 -19z
m276 -813 c-3 -9 -8 -14 -10 -11 -3 3 -2 9 2 15 9 16 15 13 8 -4z m597 -1010
c-7 -8 -18 -15 -24 -15 -6 0 -2 7 8 15 25 19 32 19 16 0z m65 -55 c3 -5 2 -10
-4 -10 -5 0 -13 5 -16 10 -3 6 -2 10 4 10 5 0 13 -4 16 -10z m55 -41 c0 -4 -7
-6 -15 -3 -8 4 -15 10 -15 15 0 4 7 6 15 3 8 -4 15 -10 15 -15z m-35 -29 c3
-5 1 -10 -4 -10 -6 0 -11 5 -11 10 0 6 2 10 4 10 3 0 8 -4 11 -10z m-390 -251
c11 -17 -1 -21 -15 -4 -8 9 -8 15 -2 15 6 0 14 -5 17 -11z m-45 -13 c0 -2 -7
-6 -15 -10 -8 -3 -15 -1 -15 4 0 6 7 10 15 10 8 0 15 -2 15 -4z m115 -18 c25
-11 34 -28 15 -28 -5 0 -10 -7 -10 -15 0 -8 5 -15 10 -15 6 0 10 7 10 16 0 10
7 14 23 12 12 -2 21 -9 20 -16 -2 -6 2 -12 8 -12 6 0 9 -7 5 -15 -6 -17 9 -21
19 -5 9 15 25 12 25 -6 0 -8 -5 -12 -11 -8 -6 3 -14 1 -18 -5 -4 -6 -15 -9
-24 -5 -9 3 -14 10 -11 15 3 5 -6 9 -19 9 -14 0 -30 7 -37 15 -7 8 -16 12 -21
9 -5 -3 -12 1 -15 9 -3 8 -15 17 -26 20 -11 3 -17 10 -13 17 5 8 10 8 21 0 7
-7 19 -10 26 -7 8 3 6 6 -5 6 -10 1 -15 6 -12 11 8 13 9 12 40 -2z m141 -113
c-8 -8 -18 -15 -22 -15 -3 0 -1 7 6 15 7 8 17 15 22 15 5 0 3 -7 -6 -15z m58
-33 c3 -5 -1 -9 -9 -9 -8 0 -12 4 -9 9 3 4 7 8 9 8 2 0 6 -4 9 -8z m96 -62 c0
-5 -2 -10 -4 -10 -3 0 -8 5 -11 10 -3 6 -1 10 4 10 6 0 11 -4 11 -10z m-803
-266 c-3 -3 -12 -4 -19 -1 -8 3 -5 6 6 6 11 1 17 -2 13 -5z m-581 -101 c-7 -7
-26 7 -26 19 0 6 6 6 15 -2 9 -7 13 -15 11 -17z m-1546 -23 c0 -5 -4 -10 -10
-10 -5 0 -10 5 -10 10 0 6 5 10 10 10 6 0 10 -4 10 -10z m1810 -58 c0 -13 -12
-22 -22 -16 -10 6 -1 24 13 24 5 0 9 -4 9 -8z m-533 -44 c-3 -8 -6 -5 -6 6 -1
11 2 17 5 13 3 -3 4 -12 1 -19z m554 -43 c-9 -30 -9 -30 -8 8 0 21 4 34 8 30
5 -5 5 -22 0 -38z m-21 14 c0 -5 -4 -9 -10 -9 -5 0 -10 7 -10 16 0 8 5 12 10
9 6 -3 10 -10 10 -16z m105 2 c-3 -6 -11 -8 -17 -5 -6 4 -5 9 3 15 16 10 23 4
14 -10z m-1955 -15 c13 13 53 7 45 -7 -3 -4 -12 -6 -20 -2 -8 3 -15 0 -15 -6
0 -15 -30 -14 -30 2 0 7 -7 4 -15 -7 -11 -15 -15 -16 -15 -5 0 23 22 42 32 27
5 -10 10 -10 18 -2z m1130 -66 c0 -5 -2 -10 -4 -10 -3 0 -8 5 -11 10 -3 6 -1
10 4 10 6 0 11 -4 11 -10z m-640 -2155 c0 -1 -9 -5 -19 -8 -13 -3 -18 -1 -14
9 4 10 33 10 33 -1z"/>
<path d="M8537 22813 c-13 -12 -7 -43 8 -43 17 0 20 16 5 25 -6 4 -8 11 -5 16
7 10 1 12 -8 2z"/>
<path d="M8536 22752 c-3 -6 -1 -14 5 -17 15 -10 25 3 12 16 -7 7 -13 7 -17 1z"/>
<path d="M8520 22686 c0 -30 25 -53 34 -31 3 9 -1 18 -10 22 -8 3 -13 12 -10
19 3 8 1 14 -4 14 -6 0 -10 -11 -10 -24z"/>
<path d="M8510 22521 c-13 -26 -13 -51 1 -51 7 0 5 -10 -6 -26 -9 -14 -14 -28
-12 -31 9 -9 45 30 40 43 -3 8 0 14 6 14 6 0 11 9 11 21 0 15 -5 19 -16 15
-12 -4 -14 -1 -9 14 8 26 -1 26 -15 1z"/>
<path d="M8490 22378 c0 -10 2 -18 5 -18 2 0 9 8 14 18 8 14 6 19 -5 19 -7 0
-14 -9 -14 -19z"/>
<path d="M8466 22334 c-5 -14 -4 -15 9 -4 17 14 19 20 6 20 -5 0 -12 -7 -15
-16z"/>
<path d="M8416 21928 c3 -4 9 -8 15 -8 5 0 9 4 9 8 0 5 -7 9 -15 9 -8 0 -12
-4 -9 -9z"/>
<path d="M8170 23065 c0 -8 5 -15 10 -15 6 0 10 7 10 15 0 8 -4 15 -10 15 -5
0 -10 -7 -10 -15z"/>
<path d="M8916 23022 c-8 -13 18 -46 33 -41 9 3 6 11 -7 27 -11 13 -23 19 -26
14z"/>
<path d="M8093 22994 c-7 -19 0 -26 21 -18 20 8 21 20 1 28 -9 3 -18 -1 -22
-10z"/>
<path d="M8955 22960 c-3 -5 -1 -10 4 -10 6 0 11 5 11 10 0 6 -2 10 -4 10 -3
0 -8 -4 -11 -10z"/>
<path d="M8987 22926 c-17 -13 -23 -36 -9 -36 8 0 35 40 30 45 -2 2 -11 -2
-21 -9z"/>
<path d="M9007 22797 c-5 -14 9 -45 16 -37 3 3 8 15 11 28 5 16 3 22 -7 22 -8
0 -17 -6 -20 -13z"/>
<path d="M8320 22445 c0 -98 2 -176 5 -174 7 7 8 340 1 347 -3 3 -6 -75 -6
-173z"/>
<path d="M8730 22296 c0 -11 -5 -15 -12 -10 -10 6 -10 4 0 -7 9 -10 15 -10 24
-1 9 9 9 15 0 24 -9 9 -12 8 -12 -6z"/>
<path d="M8667 22280 c3 -11 9 -20 14 -20 5 0 9 9 9 20 0 11 -6 20 -14 20 -9
0 -12 -7 -9 -20z"/>
<path d="M8730 21981 c0 -5 5 -13 10 -16 6 -3 10 -2 10 4 0 5 -4 13 -10 16 -5
3 -10 2 -10 -4z"/>
<path d="M8735 21941 c-3 -5 -1 -12 5 -16 5 -3 10 1 10 9 0 18 -6 21 -15 7z"/>
<path d="M9770 21211 c0 -6 4 -13 10 -16 6 -3 7 1 4 9 -7 18 -14 21 -14 7z"/>
<path d="M9856 21102 c-3 -5 1 -9 9 -9 8 0 12 4 9 9 -3 4 -7 8 -9 8 -2 0 -6
-4 -9 -8z"/>
<path d="M10155 20720 c3 -5 8 -10 11 -10 2 0 4 5 4 10 0 6 -5 10 -11 10 -5 0
-7 -4 -4 -10z"/>
<path d="M10150 20696 c0 -2 7 -7 16 -10 8 -3 12 -2 9 4 -6 10 -25 14 -25 6z"/>
<path d="M8730 20319 c0 -5 5 -7 10 -4 6 3 10 8 10 11 0 2 -4 4 -10 4 -5 0
-10 -5 -10 -11z"/>
<path d="M9710 20261 c0 -6 4 -13 10 -16 6 -3 7 1 4 9 -7 18 -14 21 -14 7z"/>
<path d="M9760 20220 c0 -5 4 -10 9 -10 6 0 13 5 16 10 3 6 -1 10 -9 10 -9 0
-16 -4 -16 -10z"/>
<path d="M8395 20131 c-3 -5 0 -13 6 -17 7 -4 9 -3 5 4 -3 5 0 13 6 15 9 4 10
6 1 6 -6 1 -14 -3 -18 -8z"/>
<path d="M6240 20045 c0 -8 6 -15 14 -15 8 0 16 7 20 15 4 10 -1 15 -14 15
-11 0 -20 -7 -20 -15z"/>
<path d="M10060 20049 c0 -5 5 -7 10 -4 6 3 10 8 10 11 0 2 -4 4 -10 4 -5 0
-10 -5 -10 -11z"/>
<path d="M8730 20039 c0 -5 5 -7 10 -4 6 3 10 8 10 11 0 2 -4 4 -10 4 -5 0
-10 -5 -10 -11z"/>
<path d="M10087 20023 c-4 -3 -7 -11 -7 -17 0 -6 5 -5 12 2 6 6 9 14 7 17 -3
3 -9 2 -12 -2z"/>
<path d="M8285 19930 c4 -6 11 -8 16 -5 14 9 11 15 -7 15 -8 0 -12 -5 -9 -10z"/>
<path d="M8730 19909 c0 -5 5 -7 10 -4 6 3 10 8 10 11 0 2 -4 4 -10 4 -5 0
-10 -5 -10 -11z"/>
<path d="M11425 19900 c-3 -5 -1 -10 4 -10 6 0 11 5 11 10 0 6 -2 10 -4 10 -3
0 -8 -4 -11 -10z"/>
<path d="M11480 19880 c0 -5 5 -10 10 -10 6 0 10 5 10 10 0 6 -4 10 -10 10 -5
0 -10 -4 -10 -10z"/>
<path d="M8327 19854 c-3 -3 -2 -17 3 -30 6 -16 5 -37 -6 -66 -9 -27 -11 -44
-5 -46 19 -6 25 3 22 36 -3 42 6 41 25 -3 8 -19 19 -35 24 -35 17 0 11 41 -15
97 -24 51 -34 60 -48 47z"/>
<path d="M8437 19854 c-4 -4 -7 -38 -7 -76 0 -60 2 -68 19 -68 17 0 18 8 17
72 -1 65 -11 90 -29 72z"/>
<path d="M8512 19851 c-22 -15 -21 -43 3 -67 13 -13 29 -24 35 -24 5 0 10 -9
10 -20 0 -26 -26 -26 -41 1 -13 24 -33 12 -23 -14 4 -11 17 -17 38 -17 63 0
76 49 21 81 -39 23 -42 31 -20 49 12 10 16 9 21 -4 8 -22 26 -20 22 2 -3 17
-47 26 -66 13z"/>
<path d="M8136 19791 c-3 -5 1 -14 9 -21 12 -10 15 -10 15 3 0 19 -16 31 -24
18z"/>
<path d="M8142 19713 c5 -25 28 -28 28 -4 0 12 -6 21 -16 21 -9 0 -14 -7 -12
-17z"/>
<path d="M7045 19701 c-10 -17 12 -21 25 -6 10 12 10 15 -3 15 -9 0 -18 -4
-22 -9z"/>
<path d="M8114 19679 c-3 -6 -1 -16 5 -22 8 -8 11 -5 11 11 0 24 -5 28 -16 11z"/>
<path d="M8155 19649 c-4 -6 -3 -15 3 -21 6 -6 11 -4 15 6 7 18 -9 31 -18 15z"/>
<path d="M8166 19595 c-3 -9 1 -18 10 -22 19 -7 26 0 18 21 -8 20 -20 21 -28
1z"/>
<path d="M8460 19595 c0 -8 5 -15 10 -15 6 0 10 7 10 15 0 8 -4 15 -10 15 -5
0 -10 -7 -10 -15z"/>
<path d="M8706 19601 c-4 -5 -2 -12 3 -15 5 -4 12 -2 15 3 4 5 2 12 -3 15 -5
4 -12 2 -15 -3z"/>
<path d="M8256 19591 c-4 -5 -2 -12 3 -15 5 -4 12 -2 15 3 4 5 2 12 -3 15 -5
4 -12 2 -15 -3z"/>
<path d="M8390 19585 c0 -8 5 -15 10 -15 6 0 10 7 10 15 0 8 -4 15 -10 15 -5
0 -10 -7 -10 -15z"/>
<path d="M8530 19590 c0 -5 7 -10 15 -10 8 0 15 5 15 10 0 6 -7 10 -15 10 -8
0 -15 -4 -15 -10z"/>
<path d="M8600 19590 c0 -5 7 -10 15 -10 8 0 15 5 15 10 0 6 -7 10 -15 10 -8
0 -15 -4 -15 -10z"/>
<path d="M8675 19590 c-3 -5 -1 -10 4 -10 6 0 11 5 11 10 0 6 -2 10 -4 10 -3
0 -8 -4 -11 -10z"/>
<path d="M6895 19540 c-3 -5 -1 -10 4 -10 6 0 11 5 11 10 0 6 -2 10 -4 10 -3
0 -8 -4 -11 -10z"/>
<path d="M12120 19494 c0 -13 -3 -14 -15 -4 -11 10 -16 6 -28 -22 -27 -65 -73
-270 -122 -545 -14 -79 -37 -207 -51 -285 -113 -628 -170 -1398 -133 -1818 13
-149 39 -414 43 -435 2 -11 9 -56 16 -100 23 -158 80 -383 145 -580 70 -210
238 -567 346 -735 152 -235 333 -423 557 -577 18 -13 35 -23 38 -23 2 0 21
-11 42 -23 139 -88 212 -112 156 -52 -15 17 -29 38 -29 48 -1 9 -10 24 -21 33
-10 8 -14 13 -7 10 6 -4 15 -2 18 4 8 13 -14 42 -26 34 -8 -5 -13 19 -6 30 1
2 -11 16 -28 31 -20 18 -26 29 -17 32 17 7 15 23 -3 23 -8 0 -15 -5 -15 -11 0
-5 -5 -7 -10 -4 -8 5 -7 11 0 20 15 18 3 38 -20 32 -13 -3 -16 0 -13 14 3 11
-1 27 -8 36 -12 15 -12 16 4 10 11 -4 20 -1 24 9 3 9 12 13 21 9 12 -4 12 -3
3 9 -14 17 -61 27 -61 13 0 -6 -3 -7 -6 -4 -4 4 -2 12 4 19 12 15 -15 91 -29
82 -8 -5 -12 1 -25 46 -4 12 -7 12 -13 1 -7 -11 -13 -11 -32 0 -13 7 -27 12
-31 11 -5 -1 -8 9 -8 22 0 13 -7 29 -15 36 -8 7 -15 23 -15 35 0 13 -5 25 -11
27 -5 2 -7 11 -3 21 4 12 10 15 19 7 8 -7 12 -6 12 4 0 8 -9 13 -23 11 -18 -2
-23 4 -28 36 -3 20 -12 40 -18 42 -9 4 -9 8 -3 14 17 14 16 35 -2 48 -10 7
-22 11 -28 8 -5 -2 -2 2 8 10 19 16 23 37 6 37 -6 0 -9 7 -6 14 4 10 1 13 -8
10 -11 -5 -13 4 -12 35 2 29 -1 41 -11 41 -7 0 -10 5 -7 10 4 6 11 7 17 4 7
-4 8 -2 4 4 -4 7 -14 12 -23 12 -15 0 -15 12 1 51 4 9 -2 25 -14 39 -11 13
-20 31 -20 40 0 10 -9 20 -20 23 -11 3 -20 10 -20 15 0 13 42 3 52 -12 5 -7 8
-5 8 5 0 9 -7 22 -15 29 -18 15 -19 36 -2 44 6 3 1 3 -12 0 -25 -6 -45 12 -33
31 13 20 7 40 -18 64 -14 14 -25 29 -25 35 -1 6 -6 10 -13 9 -7 -2 -12 5 -13
15 0 9 -2 25 -4 34 -2 10 4 22 13 28 16 9 16 9 1 10 -9 0 -20 -7 -23 -16 -5
-14 -8 -14 -21 0 -20 20 -19 26 6 26 15 0 19 4 15 16 -3 8 1 22 8 30 13 12 13
18 -2 43 -9 16 -22 27 -29 24 -7 -3 -13 1 -13 8 0 19 15 41 26 38 16 -4 64 24
64 38 0 11 -5 10 -25 -3 -23 -15 -25 -15 -31 0 -3 9 -10 16 -15 16 -14 0 -11
-28 4 -33 7 -4 6 -6 -4 -6 -10 -1 -19 9 -22 24 -2 14 -2 23 1 20 8 -8 42 26
42 42 0 17 -10 17 -37 -2 -14 -10 -24 -12 -28 -5 -8 13 4 32 16 25 5 -3 6 1 3
9 -3 9 -1 16 6 16 6 0 8 5 4 12 -5 8 -2 9 10 5 12 -5 16 -3 14 5 -3 7 -17 12
-33 13 -35 0 -44 20 -13 30 19 6 20 8 6 12 -25 6 -23 33 2 33 11 0 20 -4 20
-10 0 -5 7 -10 15 -10 19 0 19 2 -6 44 -11 19 -18 40 -14 45 3 6 1 19 -4 29
-7 13 -6 23 2 31 9 9 8 14 -3 21 -13 9 -13 11 0 20 13 8 13 11 1 19 -8 5 -10
14 -6 22 6 9 3 11 -8 6 -22 -8 -21 -1 3 25 11 12 20 30 20 40 0 10 4 18 10 18
5 0 7 7 3 16 -3 8 -11 13 -18 10 -20 -7 -25 3 -14 31 5 15 5 22 0 18 -5 -3
-12 -1 -15 4 -4 5 -2 12 4 16 5 3 10 18 10 33 0 20 -3 23 -9 13 -7 -11 -12 -6
-19 20 -7 27 -5 39 10 62 16 22 17 27 4 27 -26 0 -28 20 -4 40 19 16 21 22 11
38 -10 18 -8 20 18 26 30 6 41 26 13 26 -8 0 -13 4 -9 9 3 5 -4 12 -15 16 -26
8 -25 26 2 49 15 13 23 15 26 8 2 -7 8 -10 12 -7 5 3 7 12 3 21 -5 13 -8 13
-30 -1 -14 -9 -27 -14 -31 -11 -3 3 -1 6 5 6 13 0 13 33 0 42 -13 8 11 40 24
32 8 -5 2 19 -10 41 -13 23 -8 37 15 45 13 5 24 14 24 19 0 6 -7 8 -15 5 -8
-4 -15 -1 -15 5 0 6 -10 11 -22 11 -22 -1 -22 -1 -4 -15 11 -8 16 -18 12 -22
-4 -4 -12 0 -17 10 -6 9 -14 15 -20 12 -15 -10 -10 12 6 25 8 7 15 9 15 6 0
-4 9 -2 20 4 25 14 26 30 1 30 -11 0 -23 6 -27 13 -4 6 -4 9 1 5 4 -4 15 -3
22 4 11 9 16 9 22 -1 6 -10 10 -9 14 2 5 12 -1 15 -29 12 -18 -2 -31 1 -28 6
3 5 13 9 23 9 13 0 17 9 18 35 1 32 -6 40 -30 36 -5 -1 -6 3 -2 9 3 5 13 10
21 10 9 0 12 5 8 11 -4 7 4 20 17 31 13 11 17 18 8 15 -12 -4 -16 2 -16 24 0
32 11 38 25 12 9 -14 11 -14 21 5 10 19 9 22 -9 22 -13 0 -18 4 -15 11 4 6 13
8 21 5 19 -7 18 18 -1 34 -18 15 -10 31 11 23 15 -6 15 11 -2 93 -2 14 2 24
13 28 9 4 13 9 10 13 -4 3 -3 11 2 17 4 6 11 21 14 34 4 17 1 22 -13 22 -11 0
-23 -8 -29 -17 -5 -10 -12 -15 -15 -12 -3 3 4 17 16 31 18 24 22 25 36 12 17
-17 37 -14 37 7 0 8 -10 15 -21 17 -30 4 -39 39 -10 38 15 -1 20 4 18 18 -3
17 -2 17 18 -1 12 -12 18 -27 15 -35 -4 -9 -2 -19 4 -22 14 -9 25 37 17 68 -5
19 -12 24 -30 23 -14 -1 -26 3 -27 8 -2 14 45 37 49 25 6 -16 21 -11 32 10 8
16 8 18 -4 14 -8 -3 -23 -1 -33 5 -17 10 -17 10 2 12 11 1 26 1 33 0 6 -1 12
2 12 8 0 5 18 7 40 4 45 -6 49 2 30 66 -5 19 -7 31 -3 28 3 -4 14 -2 25 4 28
15 35 3 13 -21 -10 -11 -15 -23 -10 -28 4 -4 10 -1 12 6 4 10 9 8 19 -5 10
-13 13 -14 14 -4 0 8 10 25 22 38 12 13 16 23 10 23 -7 0 -12 8 -12 18 0 14 4
13 19 -7 11 -15 21 -20 25 -13 4 6 13 9 21 5 8 -3 15 0 15 6 0 8 8 7 22 -3 12
-9 32 -16 43 -16 15 0 17 2 6 9 -11 7 -10 13 8 32 21 23 21 23 21 1 0 -11 5
-24 10 -27 6 -3 10 0 10 8 0 21 50 28 68 11 17 -17 37 -13 37 7 0 21 6 23 48
15 22 -4 37 -13 37 -21 0 -8 6 -12 15 -9 11 5 12 10 2 24 -13 22 -3 37 15 23
7 -6 20 -11 28 -12 8 -1 28 -3 44 -5 17 -1 32 -8 34 -14 2 -7 8 -9 13 -6 6 3
17 0 26 -8 15 -11 16 -11 10 5 -8 22 28 24 41 2 9 -18 62 -31 62 -15 0 5 -11
12 -25 16 -14 3 -25 12 -25 20 0 12 5 12 33 1 17 -7 32 -20 32 -27 0 -7 6 -15
13 -17 6 -3 12 0 12 6 0 6 5 11 10 11 14 0 12 -28 -2 -33 -10 -3 -10 -7 1 -20
7 -10 19 -17 25 -17 6 0 5 4 -3 9 -12 8 -12 12 2 26 10 9 17 21 17 26 0 6 5 7
10 4 6 -4 8 -10 5 -15 -3 -5 8 -7 25 -5 21 3 30 0 30 -10 0 -8 5 -15 11 -15 5
0 7 5 4 10 -3 6 0 10 8 10 8 0 18 -8 22 -17 6 -17 7 -17 16 0 12 21 44 23 35
2 -6 -18 11 -19 49 -5 14 5 23 14 20 20 -3 5 -2 10 2 10 5 0 7 16 5 35 -3 25
0 36 12 41 11 4 13 11 6 24 -5 9 -7 20 -4 23 3 3 7 28 9 56 3 41 1 51 -12 51
-13 0 -13 3 -3 15 10 12 9 21 -3 48 -9 18 -12 33 -7 35 6 2 10 11 10 19 0 12
-8 14 -37 10 l-38 -6 32 20 c39 25 35 41 -6 29 -28 -8 -51 2 -51 23 0 5 -7 15
-15 24 -8 8 -13 18 -10 23 3 4 -5 10 -17 13 -18 5 -19 9 -9 21 11 13 8 14 -23
9 -35 -5 -50 7 -26 22 6 4 7 11 4 17 -4 6 -10 5 -15 -3 -5 -9 -9 -9 -9 -3 0 7
-9 14 -20 17 -11 3 -19 11 -18 19 2 10 -8 12 -41 10 l-44 -4 22 30 c25 35 22
38 -39 37 -54 -1 -66 12 -39 41 23 25 9 43 -15 19 -13 -13 -15 -13 -21 5 -3
11 -11 20 -16 20 -6 0 -5 -8 1 -20 17 -32 0 -47 -21 -19 -13 17 -15 27 -7 36
7 9 7 13 -1 13 -18 0 -66 52 -63 67 4 19 -15 16 -38 -7 -23 -23 -47 -17 -52
13 -2 12 -9 21 -16 20 -6 -2 -12 2 -12 8 0 8 -13 9 -38 5 -33 -5 -40 -3 -48
17 -6 12 -9 16 -7 10 3 -17 -7 -16 -30 1 -12 9 -14 16 -8 21 6 3 11 11 11 18
0 8 -4 7 -12 -1 -10 -10 -16 -8 -30 10 -12 16 -16 17 -12 6 4 -13 1 -18 -11
-18 -12 0 -16 6 -12 19 3 14 1 18 -9 14 -8 -3 -14 -10 -14 -17 0 -6 -4 -4 -10
4 -6 9 -5 19 3 29 10 12 9 13 -11 2 -21 -11 -24 -10 -29 9 -4 15 -11 19 -27
15 -11 -4 -16 -3 -11 2 20 16 17 43 -4 43 -14 0 -19 5 -15 15 5 13 3 13 -22 0
-30 -15 -40 -14 -29 4 3 6 11 8 17 5 5 -4 4 4 -3 17 l-12 23 -15 -22 c-8 -12
-19 -22 -25 -22 -8 0 -8 3 0 11 16 16 5 39 -18 39 -10 0 -22 6 -26 13 -15 23
-75 67 -84 61 -5 -3 -9 -1 -9 4 0 14 -64 21 -72 8 -5 -6 -8 -2 -8 12 0 15 -6
22 -20 22 -11 0 -20 5 -20 10 0 6 -11 10 -24 10 -22 0 -42 23 -37 44 1 4 -10
5 -24 2 -14 -4 -25 -2 -25 4 0 5 5 10 10 10 6 0 10 8 10 18 -1 16 -1 16 -11 0
-13 -23 -25 -23 -50 0 -12 12 -17 25 -13 36 4 12 2 15 -9 11 -8 -4 -17 1 -21
11 -6 16 -8 16 -26 -1 -19 -17 -20 -17 -26 0 -7 17 -8 17 -21 -1 -15 -21 -18
-2 -3 27 13 23 2 24 -29 3 -17 -12 -25 -14 -30 -5 -5 7 -15 9 -26 5 -13 -5
-16 -4 -11 4 4 7 2 12 -3 12 -6 0 -11 -7 -11 -16z m190 -66 c0 -13 -23 -5 -28
10 -2 7 2 10 12 6 9 -3 16 -11 16 -16z m297 -210 c-3 -8 -6 -5 -6 6 -1 11 2
17 5 13 3 -3 4 -12 1 -19z m48 12 c3 -5 -1 -10 -10 -10 -9 0 -13 5 -10 10 3 6
8 10 10 10 2 0 7 -4 10 -10z m30 -20 c3 -5 1 -10 -4 -10 -6 0 -11 5 -11 10 0
6 2 10 4 10 3 0 8 -4 11 -10z m590 -350 c-5 -8 -11 -8 -17 -2 -6 6 -7 16 -3
22 5 8 11 8 17 2 6 -6 7 -16 3 -22z m285 -200 c0 -5 -4 -10 -10 -10 -5 0 -10
5 -10 10 0 6 5 10 10 10 6 0 10 -4 10 -10z m-825 -190 c3 -6 -1 -7 -9 -4 -18
7 -21 14 -7 14 6 0 13 -4 16 -10z m-105 -471 c0 -6 -4 -7 -10 -4 -5 3 -10 11
-10 16 0 6 5 7 10 4 6 -3 10 -11 10 -16z m70 -4 c11 -13 10 -14 -4 -9 -9 3
-16 10 -16 15 0 13 6 11 20 -6z m-230 -415 c0 -5 -2 -10 -4 -10 -3 0 -8 5 -11
10 -3 6 -1 10 4 10 6 0 11 -4 11 -10z m-50 -495 c10 -12 10 -15 -4 -15 -9 0
-16 7 -16 15 0 8 2 15 4 15 2 0 9 -7 16 -15z m-35 -674 c3 -5 2 -12 -3 -15 -5
-3 -9 1 -9 9 0 17 3 19 12 6z m85 -548 c0 -5 -12 -9 -27 -10 -19 -1 -22 1 -12
8 17 11 39 12 39 2z m-14 -36 c4 -4 0 -7 -9 -7 -9 0 -18 4 -21 9 -7 10 20 9
30 -2z m76 -202 c18 -24 8 -35 -16 -20 -14 9 -24 25 -23 35 1 16 4 17 17 7 8
-7 18 -16 22 -22z m8 -95 c0 -5 -2 -10 -4 -10 -3 0 -8 5 -11 10 -3 6 -1 10 4
10 6 0 11 -4 11 -10z m95 -260 c3 -5 -1 -10 -9 -10 -9 0 -16 5 -16 10 0 6 4
10 9 10 6 0 13 -4 16 -10z m243 -525 c6 -14 16 -25 22 -25 5 0 10 -5 10 -12 0
-7 -6 -6 -17 4 -10 8 -31 18 -46 22 -16 4 -25 11 -21 17 4 8 9 7 15 -2 8 -13
13 -5 10 14 -3 17 17 5 27 -18z m49 -91 c-3 -3 -12 -4 -19 -1 -8 3 -5 6 6 6
11 1 17 -2 13 -5z"/>
<path d="M12265 19499 c-4 -6 -5 -12 -2 -15 2 -3 7 2 10 11 7 17 1 20 -8 4z"/>
<path d="M12450 19365 c0 -8 5 -15 10 -15 6 0 10 7 10 15 0 8 -4 15 -10 15 -5
0 -10 -7 -10 -15z"/>
<path d="M4585 19189 c-4 -6 -5 -12 -2 -15 2 -3 7 2 10 11 7 17 1 20 -8 4z"/>
<path d="M4650 19186 c0 -9 5 -16 10 -16 6 0 10 4 10 9 0 6 -4 13 -10 16 -5 3
-10 -1 -10 -9z"/>
<path d="M4600 19120 c0 -6 7 -10 15 -10 8 0 15 2 15 4 0 2 -7 6 -15 10 -8 3
-15 1 -15 -4z"/>
<path d="M4503 19100 c-13 -5 -23 -14 -23 -20 0 -6 12 -4 30 5 45 23 39 33 -7
15z"/>
<path d="M4910 19001 c0 -9 -8 -11 -25 -7 -15 4 -25 2 -25 -4 0 -6 5 -8 12 -4
7 4 8 3 4 -4 -4 -6 -13 -9 -21 -6 -8 4 -12 10 -9 15 8 14 -10 11 -32 -6 -10
-8 -29 -15 -41 -15 -12 0 -23 -6 -26 -12 -3 -10 -8 -10 -18 -2 -13 9 -30 11
-44 4 -3 -1 -9 -3 -14 -4 -18 -2 -24 -16 -7 -16 9 0 14 -5 11 -10 -4 -6 -10
-8 -15 -5 -4 3 -11 -2 -14 -11 -3 -9 -13 -14 -20 -11 -8 3 -20 -1 -26 -9 -10
-11 -10 -14 -1 -14 9 0 8 -5 -2 -14 -8 -8 -24 -12 -35 -9 -17 4 -21 1 -17 -15
2 -12 -3 -23 -11 -26 -9 -3 -12 -1 -9 4 3 6 1 10 -4 10 -6 0 -11 -7 -11 -15 0
-13 -18 -20 -42 -16 -4 0 -5 -5 -2 -13 3 -7 -3 -15 -13 -18 -23 -6 -45 1 -37
13 7 12 -7 11 -26 -1 -8 -5 -10 -10 -5 -10 6 0 -5 -8 -22 -16 -36 -18 -44 -35
-13 -27 11 3 18 9 15 12 -2 4 3 8 11 8 22 0 10 -22 -14 -25 -12 -2 -20 -7 -17
-12 3 -5 0 -12 -6 -16 -8 -4 -9 -3 -5 4 11 18 -84 3 -114 -17 -14 -10 -38 -21
-55 -26 -22 -6 -25 -9 -12 -12 9 -3 15 -9 11 -14 -3 -5 -10 -7 -15 -4 -5 4
-16 -1 -25 -10 -9 -9 -24 -13 -34 -10 -10 3 -22 0 -26 -6 -5 -9 -2 -10 9 -6
11 4 17 1 17 -8 0 -11 -8 -13 -30 -8 -23 4 -30 2 -30 -10 0 -11 5 -14 18 -10
11 4 8 -1 -8 -15 -20 -17 -22 -23 -11 -31 9 -6 10 -11 2 -15 -6 -4 -11 -2 -11
3 0 16 -22 13 -45 -5 -19 -15 -19 -15 10 -8 39 9 28 -2 -60 -56 -40 -25 -71
-38 -73 -32 -4 12 -54 6 -86 -10 -13 -7 -16 -7 -12 1 11 17 -2 13 -23 -6 -40
-38 -93 -78 -119 -89 -35 -14 -92 -63 -92 -77 0 -9 3 -8 8 0 5 7 20 14 35 15
15 1 27 6 27 11 0 4 6 7 13 6 6 -2 29 5 51 14 52 23 60 21 13 -4 -69 -36 -31
-31 42 5 39 20 84 36 100 36 16 0 33 5 36 10 4 6 10 8 15 5 5 -3 12 0 15 6 4
6 18 8 31 5 17 -5 24 -2 24 9 0 8 -6 15 -13 15 -8 0 -14 7 -14 15 0 8 7 15 14
15 9 0 11 -5 7 -12 -4 -8 -3 -10 2 -5 5 5 9 14 9 20 0 6 18 20 40 30 22 11 47
23 56 27 32 16 208 49 312 59 58 6 191 11 294 12 192 1 258 11 258 39 1 8 6
14 13 13 6 -2 9 4 6 12 -5 11 1 15 20 15 19 0 24 4 19 16 -4 10 1 17 14 20 24
7 23 19 -7 179 -10 55 -22 118 -25 140 -6 42 -25 83 -25 56z m-190 -55 c0 -3
-4 -8 -10 -11 -5 -3 -10 -1 -10 4 0 6 5 11 10 11 6 0 10 -2 10 -4z m-170 -146
c0 -5 -5 -10 -11 -10 -5 0 -7 5 -4 10 3 6 8 10 11 10 2 0 4 -4 4 -10z m417
-147 c0 -17 -12 -17 -27 1 -9 12 -8 15 8 13 10 0 19 -7 19 -14z m-887 -127 c0
-2 -7 -7 -16 -10 -8 -3 -12 -2 -9 4 6 10 25 14 25 6z"/>
<path d="M4614 18943 c2 -9 8 -19 15 -21 10 -3 10 0 2 17 -14 25 -20 27 -17 4z"/>
<path d="M8633 18685 c2 -158 2 -160 25 -161 22 -1 22 0 17 90 -3 50 -8 102
-11 116 -2 14 -7 38 -10 54 -3 16 -9 37 -14 45 -6 10 -9 -42 -7 -144z"/>
<path d="M13450 18820 c0 -5 4 -10 9 -10 6 0 13 5 16 10 3 6 -1 10 -9 10 -9 0
-16 -4 -16 -10z"/>
<path d="M4458 18813 c7 -3 16 -2 19 1 4 3 -2 6 -13 5 -11 0 -14 -3 -6 -6z"/>
<path d="M9698 18503 c7 -3 16 -2 19 1 4 3 -2 6 -13 5 -11 0 -14 -3 -6 -6z"/>
<path d="M9798 18503 c7 -3 16 -2 19 1 4 3 -2 6 -13 5 -11 0 -14 -3 -6 -6z"/>
<path d="M9838 18503 c6 -2 18 -2 25 0 6 3 1 5 -13 5 -14 0 -19 -2 -12 -5z"/>
<path d="M9893 18503 c9 -2 25 -2 35 0 9 3 1 5 -18 5 -19 0 -27 -2 -17 -5z"/>
<path d="M9993 18503 c26 -2 68 -2 95 0 26 2 4 3 -48 3 -52 0 -74 -1 -47 -3z"/>
<path d="M10148 18503 c7 -3 16 -2 19 1 4 3 -2 6 -13 5 -11 0 -14 -3 -6 -6z"/>
<path d="M9010 18490 c0 -5 5 -10 11 -10 5 0 7 5 4 10 -3 6 -8 10 -11 10 -2 0
-4 -4 -4 -10z"/>
<path d="M9058 18493 c7 -3 16 -2 19 1 4 3 -2 6 -13 5 -11 0 -14 -3 -6 -6z"/>
<path d="M9620 18480 c0 -5 12 -10 28 -9 24 0 25 1 7 9 -27 12 -35 12 -35 0z"/>
<path d="M8238 18473 c6 -2 18 -2 25 0 6 3 1 5 -13 5 -14 0 -19 -2 -12 -5z"/>
<path d="M8288 18473 c6 -2 18 -2 25 0 6 3 1 5 -13 5 -14 0 -19 -2 -12 -5z"/>
<path d="M3776 18418 c3 -5 10 -6 15 -3 13 9 11 12 -6 12 -8 0 -12 -4 -9 -9z"/>
<path d="M13841 18384 c0 -11 3 -14 6 -6 3 7 2 16 -1 19 -3 4 -6 -2 -5 -13z"/>
<path d="M4162 18379 c-13 -5 -11 -8 12 -14 29 -8 29 -8 8 -16 -12 -5 -53 -8
-90 -8 -89 1 -89 1 -95 -13 -3 -10 11 -12 54 -10 48 2 63 -2 79 -18 11 -11 17
-26 14 -35 -5 -13 -11 -10 -32 12 -14 16 -23 21 -20 11 4 -9 -2 -33 -12 -53
-19 -37 -14 -85 9 -85 12 0 2 32 -12 41 -13 9 14 48 29 42 6 -2 10 -13 7 -24
-4 -13 0 -19 11 -19 9 0 16 -4 16 -10 0 -5 7 -10 15 -10 8 0 15 5 15 11 0 6 5
9 11 7 6 -2 9 -6 7 -9 -3 -6 27 -39 36 -39 3 0 3 6 1 13 -3 7 4 13 20 13 21 2
24 -1 19 -21 -5 -22 -4 -23 23 -16 16 5 27 14 25 22 -2 9 4 7 17 -5 12 -11 22
-16 22 -13 1 4 2 12 3 19 2 16 36 19 36 2 0 -8 5 -14 11 -14 6 0 8 7 5 16 -5
13 -1 15 18 10 15 -4 26 -1 29 7 4 7 8 4 12 -8 3 -12 15 -22 27 -22 19 -2 19
-1 3 17 -27 30 -13 43 18 15 26 -24 27 -25 27 -5 0 21 15 27 25 10 5 -8 12 -7
23 2 12 10 16 10 19 1 4 -10 9 -10 24 0 16 10 21 9 29 -3 7 -11 8 -5 5 20 -3
19 -3 29 1 23 7 -16 34 -17 34 -2 0 5 5 7 10 4 6 -3 10 -1 10 4 0 6 6 11 13
11 8 0 19 11 25 25 12 26 26 32 37 15 4 -6 12 -7 18 -3 17 11 41 10 49 -2 4
-5 8 2 8 18 0 18 5 27 16 27 8 0 12 -5 9 -10 -7 -12 22 -26 33 -16 3 4 0 11
-8 16 -12 8 -10 10 7 10 12 0 25 5 28 10 4 6 11 8 16 5 5 -4 9 -2 9 4 0 6 -10
13 -22 16 -32 7 -178 11 -178 5 0 -10 -213 0 -225 10 -9 7 -15 8 -19 1 -5 -7
-15 -7 -32 -1 -14 6 -30 7 -35 4 -6 -3 -16 0 -24 6 -9 8 -15 8 -15 2 0 -6 -8
-9 -17 -7 -10 2 -18 4 -18 5 0 5 -219 4 -233 -1z m493 -59 c3 -5 1 -10 -4 -10
-6 0 -11 5 -11 10 0 6 2 10 4 10 3 0 8 -4 11 -10z m65 -9 c0 -5 -6 -11 -13
-14 -8 -3 -14 1 -14 9 0 8 6 14 14 14 7 0 13 -4 13 -9z m56 -4 c4 -4 -2 -7
-14 -7 -11 0 -24 5 -27 10 -7 11 30 8 41 -3z m49 3 c-3 -5 -13 -10 -21 -10 -8
0 -12 5 -9 10 3 6 13 10 21 10 8 0 12 -4 9 -10z m-655 -85 c0 -14 -2 -25 -4
-25 -2 0 -6 11 -8 25 -3 14 -1 25 3 25 5 0 9 -11 9 -25z m121 -48 c-10 -9 -11
-8 -5 6 3 10 9 15 12 12 3 -3 0 -11 -7 -18z"/>
<path d="M3955 18340 c-3 -5 3 -10 15 -10 12 0 18 5 15 10 -3 6 -10 10 -15 10
-5 0 -12 -4 -15 -10z"/>
<path d="M13855 18341 c-6 -11 9 -23 19 -14 9 9 7 23 -3 23 -6 0 -12 -4 -16
-9z"/>
<path d="M8430 18250 c0 -5 5 -10 11 -10 5 0 7 5 4 10 -3 6 -8 10 -11 10 -2 0
-4 -4 -4 -10z"/>
<path d="M8470 18250 c0 -5 5 -10 10 -10 6 0 10 5 10 10 0 6 -4 10 -10 10 -5
0 -10 -4 -10 -10z"/>
<path d="M3595 18220 c-3 -6 1 -7 9 -4 18 7 21 14 7 14 -6 0 -13 -4 -16 -10z"/>
<path d="M8430 18208 c0 -4 14 -8 30 -8 17 0 30 4 30 8 0 5 -13 9 -30 9 -16 0
-30 -4 -30 -9z"/>
<path d="M4036 18161 c-4 -7 -5 -15 -2 -18 9 -9 19 4 14 18 -4 11 -6 11 -12 0z"/>
<path d="M4175 18140 c3 -5 8 -10 11 -10 2 0 4 5 4 10 0 6 -5 10 -11 10 -5 0
-7 -4 -4 -10z"/>
<path d="M4130 18135 c0 -5 5 -17 10 -25 5 -8 10 -10 10 -5 0 6 -5 17 -10 25
-5 8 -10 11 -10 5z"/>
<path d="M6715 17701 c-3 -5 -1 -12 5 -16 5 -3 10 1 10 9 0 18 -6 21 -15 7z"/>
<path d="M12560 17702 c0 -5 7 -9 15 -9 8 0 15 4 15 9 0 4 -7 8 -15 8 -8 0
-15 -4 -15 -8z"/>
<path d="M13170 17585 c0 -8 5 -15 10 -15 6 0 10 7 10 15 0 8 -4 15 -10 15 -5
0 -10 -7 -10 -15z"/>
<path d="M13055 17570 c-3 -5 1 -10 9 -10 9 0 16 5 16 10 0 6 -4 10 -9 10 -6
0 -13 -4 -16 -10z"/>
<path d="M6896 17493 c-6 -14 -5 -15 5 -6 7 7 10 15 7 18 -3 3 -9 -2 -12 -12z"/>
<path d="M14011 17444 c0 -11 3 -14 6 -6 3 7 2 16 -1 19 -3 4 -6 -2 -5 -13z"/>
<path d="M12582 17338 c-19 -19 -14 -23 28 -24 45 -2 53 12 14 26 -31 12 -28
12 -42 -2z"/>
<path d="M15210 17221 c0 -6 4 -13 10 -16 6 -3 7 1 4 9 -7 18 -14 21 -14 7z"/>
<path d="M12546 17192 c-2 -4 -1 -14 5 -22 7 -12 9 -10 9 8 0 23 -5 28 -14 14z"/>
<path d="M12605 17130 c-3 -5 1 -10 9 -10 9 0 16 5 16 10 0 6 -4 10 -9 10 -6
0 -13 -4 -16 -10z"/>
<path d="M12457 17113 c-4 -3 -7 -12 -7 -19 0 -17 27 -7 34 12 5 14 -15 20
-27 7z"/>
<path d="M7140 17061 c0 -7 -4 -9 -10 -6 -5 3 -10 -2 -10 -12 0 -16 1 -16 17
0 9 9 14 20 10 23 -4 4 -7 2 -7 -5z"/>
<path d="M7193 16995 c0 -8 4 -12 9 -9 5 3 6 10 3 15 -9 13 -12 11 -12 -6z"/>
<path d="M7195 16950 c3 -5 11 -10 16 -10 6 0 7 5 4 10 -3 6 -11 10 -16 10 -6
0 -7 -4 -4 -10z"/>
<path d="M7226 16934 c-9 -24 -7 -27 9 -10 17 17 19 26 6 26 -5 0 -12 -7 -15
-16z"/>
<path d="M15465 16940 c-3 -5 -1 -10 4 -10 6 0 11 5 11 10 0 6 -2 10 -4 10 -3
0 -8 -4 -11 -10z"/>
<path d="M7240 16901 c0 -6 4 -13 10 -16 6 -3 7 1 4 9 -7 18 -14 21 -14 7z"/>
<path d="M7284 16883 c4 -8 2 -13 -5 -13 -9 0 -8 -4 1 -15 11 -13 14 -13 27 1
9 8 13 18 9 21 -3 4 -6 3 -6 -2 0 -4 -8 -1 -17 6 -11 10 -14 10 -9 2z"/>
<path d="M16831 16754 c0 -11 3 -14 6 -6 3 7 2 16 -1 19 -3 4 -6 -2 -5 -13z"/>
<path d="M12426 16704 c-5 -13 -4 -14 7 -6 8 7 17 9 20 5 4 -3 7 -1 7 5 0 18
-27 14 -34 -4z"/>
<path d="M13930 16640 c0 -5 5 -10 10 -10 6 0 10 5 10 10 0 6 -4 10 -10 10 -5
0 -10 -4 -10 -10z"/>
<path d="M12612 16459 c2 -6 8 -10 13 -10 5 0 11 4 13 10 2 6 -4 11 -13 11 -9
0 -15 -5 -13 -11z"/>
<path d="M12460 16299 c0 -5 5 -7 10 -4 6 3 10 8 10 11 0 2 -4 4 -10 4 -5 0
-10 -5 -10 -11z"/>
<path d="M4006 16281 c-4 -5 -2 -12 3 -15 5 -4 12 -2 15 3 4 5 2 12 -3 15 -5
4 -12 2 -15 -3z"/>
<path d="M12996 16281 c-4 -7 -5 -15 -2 -18 9 -9 19 4 14 18 -4 11 -6 11 -12
0z"/>
<path d="M12585 15591 c-3 -5 -1 -12 5 -16 5 -3 10 1 10 9 0 18 -6 21 -15 7z"/>
<path d="M12658 15348 c-2 -7 4 -21 14 -30 17 -17 18 -17 15 2 -4 28 -23 46
-29 28z"/>
<path d="M13165 14280 c-19 -7 -19 -7 -1 -11 13 -3 24 -21 35 -56 16 -52 17
-52 34 -33 13 16 14 20 2 20 -19 0 -29 19 -27 51 2 30 -13 40 -43 29z"/>
<path d="M13245 14281 c-6 -11 9 -23 19 -14 9 9 7 23 -3 23 -6 0 -12 -4 -16
-9z"/>
<path d="M13230 14149 c0 -5 5 -7 10 -4 6 3 10 8 10 11 0 2 -4 4 -10 4 -5 0
-10 -5 -10 -11z"/>
<path d="M13206 14139 c-2 -8 -14 -69 -26 -136 -12 -67 -26 -123 -30 -125 -5
-2 -16 -95 -25 -208 -9 -113 -20 -243 -25 -290 -5 -47 -12 -155 -15 -240 -4
-85 -10 -221 -15 -301 -5 -81 -12 -223 -15 -315 -9 -273 -25 -618 -35 -774
-15 -225 -19 -341 -25 -670 -3 -168 -8 -404 -11 -525 -6 -221 -5 -2292 1
-2395 1 -30 6 -203 9 -385 3 -181 9 -445 12 -585 11 -452 19 -958 19 -1237 0
-173 4 -274 10 -277 6 -2 5 -11 -2 -25 -7 -11 -13 -26 -12 -33 0 -7 4 -4 8 7
5 11 9 -86 9 -215 0 -129 3 -284 6 -345 3 -60 8 -189 11 -285 3 -96 8 -195 10
-220 3 -25 7 -83 10 -130 3 -47 10 -119 16 -160 7 -47 9 -121 4 -200 -4 -69
-8 -157 -10 -196 -2 -84 -19 -115 -61 -114 -16 1 -83 1 -149 0 -66 0 -199 5
-295 11 -222 14 -750 16 -1770 5 -576 -6 -840 -6 -930 2 -445 40 -676 50
-1125 46 -247 -2 -497 -6 -555 -9 -58 -3 -179 -10 -270 -15 -91 -5 -228 -12
-305 -16 -77 -3 -147 -8 -155 -9 -117 -22 -948 -24 -1240 -4 -261 18 -984 23
-1301 9 -292 -13 -289 -12 -306 -23 -6 -4 -14 -3 -18 3 -9 15 -25 2 -18 -15 3
-8 0 -15 -5 -15 -6 0 -12 9 -14 19 -3 17 -5 18 -22 6 -17 -13 -17 -15 -3 -29
9 -9 22 -13 30 -10 8 3 17 -2 20 -10 7 -18 -8 -30 -25 -20 -6 4 -8 3 -4 -4 3
-6 2 -13 -4 -17 -5 -3 -10 -14 -10 -23 0 -15 2 -15 10 -2 7 11 10 12 10 2 0
-8 6 -12 13 -9 6 2 11 13 9 23 -2 16 1 15 17 -6 11 -14 21 -19 21 -12 0 6 4
12 10 12 5 0 7 -7 3 -16 -4 -12 -2 -15 8 -12 8 3 13 10 12 16 -2 7 4 9 14 5
11 -4 13 -8 5 -11 -7 -2 -9 -8 -6 -14 4 -6 0 -14 -7 -19 -11 -7 -11 -9 2 -9 9
0 20 7 23 16 8 22 29 0 46 -49 10 -25 17 -33 25 -27 7 6 16 6 20 2 5 -4 5 -1
1 6 -4 7 -12 10 -17 7 -5 -4 -9 1 -9 9 0 9 -1 19 -2 23 -2 3 5 7 14 9 11 1 15
-3 11 -12 -3 -8 0 -14 6 -14 6 0 11 5 11 11 0 7 10 9 28 4 26 -6 26 -6 7 10
-20 16 -20 16 2 5 12 -5 25 -15 28 -20 4 -6 10 -8 15 -5 5 3 12 1 15 -5 5 -8
11 -8 19 -1 10 8 16 4 26 -17 l14 -27 4 24 c2 13 7 20 10 14 4 -6 17 -13 29
-17 18 -6 22 -4 17 8 -9 23 14 20 28 -4 15 -24 31 -25 48 -5 14 17 50 20 50 5
0 -6 10 -2 22 9 11 11 26 17 32 13 16 -10 40 -8 48 3 5 6 8 4 8 -5 0 -13 1
-13 10 0 9 13 12 13 25 -4 8 -11 21 -16 30 -13 8 4 15 2 15 -3 0 -18 19 -10
25 9 4 13 12 18 22 14 8 -3 19 0 24 8 6 10 9 10 9 2 0 -7 5 -13 11 -13 5 0 7
5 3 12 -5 7 -1 9 12 6 10 -3 25 -7 33 -9 7 -2 16 2 18 9 3 8 -1 10 -11 6 -9
-3 -16 -1 -16 4 0 6 10 8 23 5 12 -3 32 -5 45 -5 12 0 22 -5 22 -12 0 -6 5 -4
11 4 8 12 12 12 16 2 4 -10 10 -9 26 5 11 10 17 13 14 6 -4 -6 -3 -14 3 -18 5
-3 10 -1 10 4 0 6 6 11 14 11 8 0 17 6 19 13 4 9 6 9 6 0 1 -7 7 -13 15 -13 9
0 12 7 9 20 -3 11 0 20 6 20 6 0 11 -7 11 -15 0 -8 5 -15 10 -15 6 0 10 -7 10
-15 0 -16 16 -20 24 -6 3 5 -1 11 -9 15 -8 3 -15 10 -15 17 0 6 6 9 14 6 7 -3
18 -1 24 5 6 6 16 7 22 3 9 -6 9 -10 -1 -16 -11 -7 -11 -9 -1 -9 7 0 15 7 19
16 5 13 10 11 33 -11 16 -15 34 -24 40 -20 8 5 6 11 -7 21 -17 13 -17 13 5 14
12 0 22 5 22 11 0 8 4 8 13 1 7 -6 18 -8 24 -4 17 10 58 8 60 -4 3 -13 47 -22
55 -10 10 15 38 16 38 0 0 -18 8 -18 26 0 19 19 18 27 -3 19 -10 -4 -14 -2 -9
5 7 12 73 9 84 -4 4 -4 0 -5 -9 -1 -18 6 -54 -29 -39 -38 6 -4 10 -2 10 3 0
16 47 23 75 10 16 -7 24 -17 20 -26 -4 -12 -3 -13 10 -2 8 7 15 9 15 4 0 -4
11 2 23 15 21 19 25 20 37 6 7 -8 19 -15 27 -15 8 0 11 -4 8 -10 -4 -6 6 -7
25 -4 23 5 34 2 45 -12 8 -11 15 -14 15 -8 0 7 7 15 16 18 8 3 12 2 9 -4 -3
-6 3 -10 15 -10 12 0 18 5 15 10 -3 6 -4 10 -1 10 3 0 10 -10 17 -21 8 -16 8
-20 -1 -14 -8 5 -11 1 -8 -10 1 -10 10 -20 18 -22 13 -4 13 -3 0 6 -12 9 -11
11 7 11 12 0 24 6 27 13 3 6 4 -1 2 -16 -3 -25 -2 -26 13 -12 13 11 20 12 29
3 9 -9 12 -7 12 12 0 13 3 20 7 16 4 -4 7 -19 8 -33 0 -14 6 -28 13 -31 7 -2
12 0 11 5 -3 19 3 21 28 8 24 -13 29 -12 45 2 14 13 18 13 18 2 0 -11 2 -11
10 1 5 8 10 10 10 4 0 -18 32 -26 42 -12 8 10 11 10 15 1 6 -17 50 -17 56 0 4
8 8 9 14 1 10 -13 85 -16 77 -3 -3 5 0 9 5 9 14 0 14 -13 0 -27 -16 -16 -4
-44 16 -37 10 4 15 0 15 -10 0 -9 4 -16 9 -16 4 0 6 12 3 26 -3 17 -9 23 -19
20 -8 -3 -12 -2 -9 3 3 5 15 11 27 14 18 5 20 2 15 -20 -8 -30 10 -22 25 11 9
21 10 21 5 -1 -2 -13 0 -26 5 -29 5 -3 9 1 9 8 0 10 2 10 9 -1 5 -7 13 -11 19
-7 6 3 12 0 15 -6 3 -8 9 -3 15 12 6 15 6 29 1 34 -12 13 -11 26 1 26 6 0 9
-6 8 -12 -2 -7 4 -12 14 -10 12 2 15 -3 11 -19 -4 -16 -8 -17 -14 -7 -7 10 -9
10 -9 0 0 -7 8 -16 18 -19 9 -4 23 -14 30 -22 9 -12 12 -12 10 -2 -2 7 3 16
11 19 10 3 13 -2 9 -22 -6 -29 6 -35 20 -10 6 11 11 13 16 5 4 -6 2 -11 -3
-11 -6 0 -11 -7 -11 -15 0 -8 5 -15 10 -15 10 0 14 21 11 48 -2 10 2 10 21 0
13 -7 25 -16 28 -20 3 -4 16 -6 28 -3 22 4 30 -9 12 -20 -17 -10 12 -57 32
-52 11 3 18 0 18 -10 0 -10 6 -13 16 -9 9 3 18 6 20 6 2 0 4 5 4 11 0 6 -7 9
-15 5 -8 -3 -15 -1 -15 4 0 6 -7 10 -15 10 -8 0 -15 5 -15 11 0 5 -4 7 -10 4
-5 -3 -10 -1 -10 4 0 6 5 11 10 11 6 0 10 5 10 11 0 20 26 39 39 26 8 -8 11
-7 11 4 1 9 7 6 20 -10 12 -14 26 -21 36 -17 9 3 27 -3 41 -13 28 -23 51 -18
63 13 9 21 9 21 9 -1 1 -25 16 -31 25 -10 3 6 3 2 1 -10 -3 -12 -1 -24 5 -28
5 -3 10 1 10 9 0 9 5 16 11 16 6 0 8 9 4 23 -6 21 -5 21 7 2 6 -11 11 -32 9
-48 -2 -17 3 -29 13 -33 9 -3 16 -12 16 -20 0 -18 14 -18 30 1 10 13 9 15 -9
15 -29 0 -29 50 0 68 20 13 21 12 15 -12 -5 -19 -3 -26 9 -26 8 0 14 6 13 13
-2 6 3 12 10 11 37 -3 41 -5 36 -19 -4 -8 -3 -15 0 -15 4 0 12 13 17 30 6 16
15 27 20 24 5 -3 7 -10 4 -15 -4 -5 3 -9 13 -9 11 0 22 -7 26 -15 3 -8 13 -15
23 -14 13 0 14 2 4 6 -19 8 -50 40 -44 47 3 2 14 -4 26 -14 27 -26 32 -19 14
17 -15 27 -14 28 12 29 14 1 20 -1 14 -3 -16 -6 -17 -29 -1 -39 6 -4 9 -3 5 2
-3 5 0 20 7 33 8 15 16 19 20 13 4 -6 13 -9 21 -6 8 4 12 11 8 17 -17 28 -10
43 19 39 15 -2 28 -8 28 -13 0 -5 5 -9 11 -9 5 0 7 5 3 12 -5 8 -2 9 11 4 15
-5 16 -4 6 8 -7 8 -19 12 -27 9 -8 -3 -14 0 -14 6 0 6 6 10 13 9 6 -2 11 2 10
9 -2 7 4 10 13 6 13 -5 13 -7 2 -14 -9 -6 -4 -9 15 -9 16 0 26 4 22 10 -3 6
-1 10 4 10 6 0 11 -4 11 -10 0 -19 28 2 34 26 4 14 11 22 16 19 6 -4 6 3 0 19
-6 17 -6 26 0 26 6 0 10 -6 10 -12 0 -9 3 -9 8 -3 8 12 22 13 40 2 12 -8 17 8
14 47 -2 13 3 16 13 12 9 -3 18 1 22 9 6 17 33 16 45 0 5 -6 8 -5 8 3 0 6 6
12 14 12 8 0 17 7 20 16 5 12 10 13 19 5 10 -8 17 -7 26 2 9 9 14 9 21 -3 8
-12 10 -10 10 9 0 20 3 22 27 16 16 -4 25 -3 20 1 -10 10 64 35 85 28 10 -3
21 3 27 13 8 14 12 16 22 6 15 -15 33 -17 25 -4 -3 5 3 11 13 14 14 3 21 -2
25 -17 6 -21 7 -21 20 3 10 18 15 20 19 10 3 -9 8 -10 14 -4 4 6 22 10 38 11
17 0 42 3 57 7 22 6 26 4 22 -8 -4 -8 -2 -15 4 -15 6 0 12 6 14 13 6 17 168
18 168 0 0 -7 5 -13 11 -13 6 0 8 7 5 16 -4 11 -1 14 12 12 9 -1 23 1 31 6 9
6 12 5 8 -1 -4 -6 0 -14 9 -17 8 -3 12 -2 9 4 -4 6 7 9 28 8 19 -2 33 -6 30
-10 -2 -5 0 -8 6 -8 5 0 13 5 16 10 8 12 65 13 65 1 0 -5 11 -8 25 -8 14 0 25
4 25 9 0 5 14 0 30 -12 28 -20 36 -17 31 13 -1 4 7 3 18 -2 10 -6 21 -7 25 -4
3 3 6 -1 6 -10 0 -21 18 -31 33 -19 15 12 61 -3 52 -17 -3 -5 -1 -12 5 -16 5
-3 10 1 10 9 0 21 14 20 48 -1 21 -14 24 -14 15 -2 -10 12 -8 15 8 16 10 1 19
-2 19 -8 0 -5 9 -9 19 -9 11 0 22 -6 25 -12 5 -10 7 -10 12 0 3 6 10 12 15 12
6 0 7 -5 3 -11 -4 -7 2 -9 17 -7 13 1 32 -3 41 -11 22 -19 88 -26 88 -10 0 7
3 9 6 6 4 -4 1 -13 -6 -22 -7 -9 -10 -19 -6 -23 4 -4 12 1 17 10 8 14 18 16
47 12 20 -3 39 -8 41 -10 2 -2 10 1 18 7 10 9 13 4 13 -24 0 -20 4 -38 9 -41
14 -9 20 17 8 38 -8 16 -6 18 8 13 9 -4 19 -7 21 -7 3 0 3 -4 0 -9 -7 -11 34
-2 50 10 6 5 14 6 18 2 4 -4 19 -8 34 -9 43 -2 45 -3 32 -19 -10 -12 -10 -15
4 -15 9 0 16 6 16 13 0 9 2 9 8 0 4 -6 20 -17 35 -22 16 -6 25 -15 22 -21 -3
-5 -1 -10 4 -10 10 0 15 14 12 32 -2 12 37 10 60 -2 10 -6 19 -17 19 -25 0 -8
7 -15 15 -15 12 0 14 4 5 19 -7 14 -7 22 2 27 6 4 8 3 4 -4 -3 -6 3 -14 15
-17 12 -4 18 -12 15 -21 -6 -16 3 -18 23 -5 10 7 19 4 27 -7 11 -15 13 -15 22
7 6 18 11 21 17 12 4 -8 3 -16 -4 -20 -8 -5 -5 -13 9 -26 11 -10 17 -23 13
-29 -3 -6 0 -5 8 2 16 15 33 16 23 0 -4 -7 -3 -8 5 -4 6 4 8 12 5 18 -5 7 0 9
14 6 16 -5 22 -2 23 10 0 14 2 13 9 -3 6 -14 9 -16 10 -5 1 8 7 2 14 -14 12
-27 13 -27 19 -7 3 11 12 21 21 21 18 0 21 -15 6 -25 -6 -4 -8 -10 -5 -15 8
-13 35 0 35 17 0 12 3 12 16 -2 12 -11 20 -13 29 -5 9 8 14 6 19 -6 9 -23 7
-28 -6 -17 -13 11 -45 9 -56 -1 -3 -4 0 -12 8 -19 9 -8 11 -8 6 0 -8 14 10 27
19 13 3 -5 15 -10 26 -10 10 0 29 -10 41 -22 14 -14 19 -16 15 -5 -7 18 7 31
42 42 23 7 23 6 17 -29 -4 -23 -3 -36 4 -36 5 0 9 3 9 8 -3 20 3 23 19 11 15
-13 16 -12 3 4 -11 14 -11 17 1 17 8 0 19 -5 25 -11 7 -7 9 -3 6 15 -3 14 -10
26 -15 26 -5 0 -7 -4 -4 -9 3 -5 -3 -11 -14 -14 -23 -6 -26 3 -8 21 20 20 58
15 58 -8 0 -22 16 -27 23 -7 3 8 12 5 30 -12 17 -15 33 -22 47 -18 21 5 29 -8
8 -16 -7 -2 2 -4 19 -3 19 1 33 6 33 14 0 16 5 15 41 -4 19 -9 29 -22 27 -32
-1 -9 2 -18 7 -19 6 -2 9 8 9 22 -1 14 3 25 8 25 14 0 68 -62 62 -72 -3 -4 -2
-8 3 -9 4 0 22 -2 40 -5 25 -3 36 1 48 18 15 22 15 22 15 2 0 -13 -11 -26 -27
-34 -20 -9 -24 -14 -14 -18 8 -3 17 0 19 7 3 9 7 9 18 0 11 -9 14 -7 14 10 0
11 5 21 11 21 5 0 7 5 3 12 -4 7 -3 8 4 4 7 -4 12 -17 12 -29 0 -16 3 -18 9
-9 7 11 11 11 22 -1 36 -36 80 -44 78 -14 0 9 -2 9 -6 0 -2 -7 -9 -13 -14 -13
-6 0 -7 4 -4 10 3 5 -1 10 -9 10 -9 0 -16 7 -16 15 0 8 -4 15 -10 15 -5 0 -10
5 -10 11 0 5 10 3 22 -5 12 -9 30 -16 40 -16 10 0 18 -6 18 -14 0 -8 7 -17 16
-20 8 -3 13 -9 10 -14 -2 -4 4 -13 15 -20 15 -10 19 -10 19 1 0 8 9 18 20 23
14 7 17 13 10 24 -8 13 -10 12 -10 -2 0 -24 -12 -23 -41 3 l-24 21 23 -7 c18
-5 25 -2 29 14 5 19 6 19 25 1 22 -20 62 -34 52 -18 -3 5 0 9 7 7 8 -1 25 0
39 1 18 2 20 4 8 7 -29 7 -21 26 9 20 36 -7 53 1 53 24 0 10 6 18 13 17 6 -2
12 6 13 17 2 47 4 51 13 36 5 -8 16 -11 26 -7 14 5 15 9 6 20 -9 10 -9 16 -1
21 6 4 9 1 8 -5 -4 -16 38 -23 60 -11 12 6 24 3 41 -10 17 -14 27 -17 35 -9 7
7 7 13 -1 21 -6 6 -9 18 -6 25 3 8 0 14 -7 14 -6 0 -8 -5 -5 -10 3 -6 0 -10
-7 -11 -7 0 -20 -2 -29 -4 -12 -2 -17 4 -16 19 0 11 -3 30 -8 40 -7 17 -5 18
19 14 14 -3 29 -1 32 3 3 5 0 9 -5 9 -6 0 -11 5 -11 12 0 6 10 3 21 -8 l22
-19 -7 30 c-6 29 -6 29 10 10 13 -16 15 -16 11 -3 -3 10 -2 20 2 23 10 6 21
-18 21 -45 0 -10 9 -28 20 -41 l19 -24 -9 34 c-5 19 -7 38 -4 43 3 5 0 15 -6
23 -20 24 1 17 23 -8 14 -15 18 -17 14 -5 -4 12 2 19 23 26 15 6 31 8 34 5 3
-4 6 -2 6 4 0 6 11 13 25 15 30 6 34 -11 5 -19 -11 -3 -20 -11 -20 -19 0 -16
30 -7 46 15 10 12 16 10 45 -17 46 -43 71 -44 29 -2 -24 24 -17 48 8 28 10 -7
14 -9 10 -4 -8 10 15 36 31 36 6 0 11 -5 11 -11 0 -12 66 -10 93 3 19 10 61
-8 52 -22 -3 -5 0 -12 6 -16 9 -5 10 0 7 14 -7 25 6 37 25 25 6 -4 21 -7 33
-8 11 0 28 -6 37 -13 12 -11 19 -11 35 -1 17 10 24 10 38 -2 11 -9 15 -9 10
-1 -10 18 19 15 34 -3 14 -16 55 -21 45 -5 -3 6 1 10 9 10 23 0 20 -21 -4 -27
-11 -3 -20 -10 -20 -15 0 -5 5 -6 10 -3 6 3 10 1 10 -4 0 -6 5 -11 11 -11 5 0
8 4 4 9 -9 15 15 24 30 11 11 -9 19 -8 35 3 11 7 17 18 12 23 -4 5 2 1 13 -7
30 -25 62 -31 86 -18 19 10 21 9 16 -5 -4 -10 -1 -16 8 -16 9 0 15 9 15 21 0
18 2 19 15 9 18 -15 75 -22 75 -9 0 19 21 8 30 -15 5 -13 14 -27 21 -32 8 -4
10 -3 5 4 -7 12 10 16 44 13 12 -2 12 0 2 7 -9 6 1 8 29 6 26 -2 46 -9 51 -18
10 -18 48 -22 48 -5 0 6 7 3 16 -5 22 -23 53 -20 64 7 9 21 9 21 9 -4 1 -15 8
-29 16 -33 8 -3 15 -13 15 -22 0 -11 5 -14 16 -10 9 3 20 6 25 6 4 0 6 6 3 14
-3 7 2 16 11 20 9 3 14 2 11 -3 -3 -5 0 -14 8 -20 11 -9 17 -8 28 2 8 8 29 18
47 22 25 5 30 10 21 20 -9 11 -7 13 14 9 18 -3 26 0 26 10 0 10 -6 13 -15 10
-8 -4 -15 -1 -15 5 0 6 4 11 9 11 6 0 8 9 6 20 -5 26 12 26 20 0 4 -11 11 -17
17 -14 6 4 5 9 -3 15 -10 6 -5 15 19 39 24 22 31 37 27 51 -4 11 -3 19 2 18
27 -5 32 3 26 34 -3 17 -3 29 1 25 4 -3 16 2 27 13 11 11 24 17 29 14 6 -4 10
-1 10 4 0 6 -6 12 -12 12 -7 1 -17 2 -23 4 -5 1 -13 3 -17 3 -4 1 -3 15 2 32
5 18 5 32 -1 35 -5 4 -9 10 -9 16 0 11 36 12 43 2 2 -5 2 -3 1 4 -2 6 2 13 7
15 6 2 0 12 -12 23 -12 11 -19 14 -15 8 4 -7 2 -13 -3 -13 -6 0 -11 9 -11 20
0 17 4 18 25 10 16 -6 26 -6 31 1 8 14 -22 56 -46 64 -11 4 -18 11 -14 16 4 6
11 6 20 -2 10 -8 14 -8 14 0 0 6 10 11 22 11 18 0 15 5 -21 38 -32 29 -40 42
-35 57 4 12 -3 8 -16 -10 -12 -16 -20 -23 -17 -14 3 9 0 22 -6 28 -9 9 -6 17
13 31 14 11 21 20 16 20 -5 0 -3 7 4 15 10 13 9 15 -9 15 -11 0 -21 6 -21 14
0 10 7 12 23 9 22 -5 22 -5 2 10 -13 10 -24 12 -31 6 -7 -6 -16 -4 -24 6 -10
12 -9 17 3 30 9 8 20 15 26 15 6 0 11 9 11 20 0 11 -7 20 -15 20 -8 0 -15 -7
-15 -15 0 -8 -4 -15 -10 -15 -5 0 -10 7 -10 15 0 8 5 15 11 15 5 0 7 5 4 11
-4 6 -1 10 6 8 37 -5 47 1 41 23 -3 12 -7 17 -10 10 -4 -14 -22 -16 -22 -3 0
5 7 17 16 25 14 15 13 17 -10 26 -29 10 -33 16 -13 18 6 0 21 3 32 6 11 2 22
5 24 5 8 2 -34 30 -44 31 -5 0 -3 -5 5 -10 12 -8 9 -10 -11 -10 -15 0 -29 7
-33 16 -9 23 -9 23 21 21 19 -1 28 3 31 16 4 19 -27 49 -40 41 -5 -3 -8 1 -8
8 0 8 12 13 30 14 16 1 27 -3 24 -7 -3 -5 0 -9 5 -9 6 0 11 7 11 15 0 14 -12
20 -33 16 -5 -1 -6 3 -2 8 3 6 -4 15 -16 21 -11 7 -18 14 -15 17 3 3 12 1 19
-6 8 -6 22 -9 31 -5 18 7 22 24 6 24 -5 0 -10 -5 -10 -11 0 -19 -44 43 -47 65
-1 12 1 15 3 9 8 -19 20 -16 21 6 1 14 -3 18 -13 14 -9 -3 -12 0 -9 9 4 9 -3
19 -17 27 -13 6 -16 10 -7 7 13 -3 15 1 11 17 -2 12 -9 28 -15 35 -6 8 -6 12
2 12 6 0 11 -5 11 -11 0 -5 5 -7 11 -3 6 3 8 16 5 27 -3 13 1 25 12 33 15 12
14 13 -12 14 -16 0 -27 -3 -23 -6 8 -8 -16 -33 -26 -27 -4 2 -4 10 0 16 4 7 9
21 10 31 4 25 14 35 20 19 3 -7 9 -13 15 -13 6 0 5 7 -3 16 -7 9 -22 14 -36
11 -25 -5 -51 17 -33 28 5 3 15 3 20 0 6 -3 10 -1 10 4 0 6 8 11 18 12 12 0
10 3 -8 11 -14 6 -31 10 -37 9 -24 -4 -13 19 12 25 24 6 26 19 4 19 -5 0 -9 3
-9 8 0 4 0 14 0 23 0 12 5 10 19 -7 23 -28 38 -20 21 11 -10 18 -9 24 1 31 21
13 -7 12 -31 -1 -15 -8 -21 -6 -29 8 -8 14 -4 25 15 47 29 34 29 35 3 35 -12
0 -17 -4 -13 -11 4 -8 0 -8 -15 0 -23 13 -29 34 -7 25 8 -3 16 3 19 16 4 14
10 19 18 14 8 -4 10 -3 5 4 -4 6 -14 8 -24 5 -14 -6 -15 -4 -4 9 9 12 10 18 2
23 -7 4 -10 16 -7 26 4 13 0 19 -13 19 -13 0 -17 6 -13 18 5 20 43 48 43 32 0
-5 4 -10 9 -10 5 0 7 9 4 19 -3 13 -10 17 -20 14 -12 -5 -14 -1 -8 18 4 13 12
30 17 37 14 16 -13 17 -30 0 -9 -9 -12 -7 -12 9 0 11 7 23 15 27 8 3 15 12 15
21 0 8 7 15 16 15 9 0 12 -5 8 -12 -6 -9 -3 -9 9 0 9 8 21 11 26 8 21 -14 17
10 -5 27 -19 14 -23 15 -18 2 5 -11 2 -14 -10 -9 -9 3 -22 1 -29 -4 -10 -8
-13 -6 -14 9 -1 13 5 19 19 19 16 0 18 3 9 13 -6 8 -8 17 -4 20 3 4 0 7 -7 7
-11 0 -11 3 -2 12 10 10 16 7 28 -11 13 -18 18 -20 25 -10 9 16 -16 43 -49 53
-12 4 -22 12 -22 17 0 6 4 8 8 5 4 -2 14 4 21 16 7 11 8 17 3 14 -6 -3 -13 2
-16 11 -8 19 8 40 18 24 8 -12 36 -4 36 10 0 5 -10 13 -22 18 -16 6 -27 4 -36
-8 -7 -9 -11 -10 -7 -3 3 6 1 12 -6 12 -7 0 -9 3 -5 8 4 4 13 7 19 7 7 0 11
13 10 30 -4 49 -6 54 -20 59 -7 3 -13 10 -13 16 0 6 4 9 9 6 5 -3 12 1 15 10
9 23 8 27 -9 20 -8 -3 -15 -1 -15 4 0 6 5 10 10 10 7 0 8 6 2 16 -5 9 -7 25
-4 36 3 11 -3 25 -14 33 -11 8 -16 15 -11 16 4 1 12 3 17 4 6 1 15 3 21 4 8 1
8 6 -1 16 -9 11 -10 18 -1 28 11 14 5 27 -11 27 -5 0 -6 -6 -2 -12 4 -7 -2 -5
-14 6 -21 18 -21 18 -1 39 10 11 19 26 18 31 0 6 -3 5 -6 -2 -4 -10 -8 -9 -18
5 -9 13 -10 22 -3 30 7 9 6 20 -5 37 -15 23 -15 23 13 20 17 -2 33 3 42 13 7
9 8 14 3 11 -6 -4 -17 -2 -25 3 -11 8 -12 12 -3 15 9 4 7 11 -7 26 -22 24 -16
87 7 64 4 -4 1 -11 -6 -15 -9 -6 -10 -11 -2 -15 12 -8 20 8 18 35 0 11 -7 15
-19 11 -19 -5 -26 14 -7 20 8 3 6 10 -5 20 -18 19 -21 38 -6 38 6 0 10 -4 10
-9 0 -5 9 -11 20 -14 30 -8 25 21 -5 33 -22 8 -24 12 -13 35 11 24 19 29 45
26 17 -2 27 19 15 31 -8 8 -21 2 -43 -20 -18 -18 -39 -32 -48 -32 -8 0 -11 3
-8 7 4 3 1 13 -6 21 -10 13 -9 15 5 9 10 -3 20 -2 23 3 3 5 12 7 20 3 17 -6
21 22 4 32 -7 5 -5 15 6 31 9 14 13 29 10 34 -3 6 -1 10 6 10 7 0 9 3 6 7 -13
12 -47 -36 -47 -67 0 -16 -4 -30 -10 -30 -14 0 -12 25 4 65 9 21 11 35 5 35
-6 0 -7 5 -3 11 3 6 0 15 -7 20 -12 8 -12 11 1 19 10 6 11 10 3 10 -17 0 -16
15 0 32 25 24 30 69 10 84 -12 9 -13 13 -5 14 7 0 11 4 7 10 -3 5 -12 7 -19 4
-15 -6 -10 -44 7 -55 10 -7 1 -29 -12 -29 -10 0 -23 35 -25 63 -1 10 -8 22
-16 27 -23 14 -3 24 25 12 17 -8 25 -8 25 -1 0 6 6 7 13 3 6 -4 9 -4 5 1 -4 4
-3 14 4 22 9 11 7 12 -8 7 -10 -4 -25 -12 -33 -18 -12 -9 -13 -6 -8 16 4 14
10 33 13 42 3 9 1 16 -5 16 -6 0 -11 7 -11 15 0 8 -7 15 -15 15 -8 0 -15 4
-15 9 0 5 9 7 20 4 11 -3 20 -9 20 -14 0 -5 4 -9 8 -9 5 0 9 7 9 14 0 8 -3 14
-6 13 -7 -2 -11 7 -11 25 0 9 3 9 11 1 6 -6 18 -9 25 -6 17 6 19 49 2 59 -8 5
-9 2 -5 -10 4 -10 3 -15 -4 -11 -5 4 -15 2 -22 -4 -10 -7 -12 -3 -11 16 0 14
8 31 17 37 10 8 13 17 6 27 -7 11 -9 11 -9 -4 0 -10 -4 -16 -10 -12 -5 3 -7
12 -4 20 4 9 -4 19 -21 27 l-26 12 21 16 c20 15 21 20 10 40 -11 20 -10 25 5
36 9 7 23 10 30 8 7 -3 15 4 17 14 4 15 1 18 -12 15 -20 -5 -36 27 -31 61 1
10 -3 23 -11 28 -10 8 -9 9 4 4 11 -3 22 2 28 14 11 20 10 21 -12 24 -7 0 -14
10 -16 21 -2 14 -1 16 6 7 7 -10 11 -10 22 3 8 10 9 15 1 15 -8 0 -8 5 1 19 7
11 15 18 19 15 13 -7 20 28 8 42 -8 10 -7 17 5 30 10 9 15 18 13 20 -7 7 -37
-7 -37 -17 0 -5 -4 -9 -8 -9 -5 0 -9 7 -9 15 0 8 4 15 9 15 14 0 31 21 46 53
15 34 15 40 2 32 -6 -4 -17 -1 -25 5 -17 14 -21 45 -5 35 6 -3 10 -1 10 4 0 6
6 11 13 11 8 0 14 6 14 14 0 8 -6 12 -14 9 -7 -3 -13 0 -13 5 0 6 -7 18 -16
26 -16 16 -10 41 7 31 5 -4 9 -1 9 4 0 6 -6 11 -14 11 -17 0 -29 41 -16 54 7
7 10 2 10 -12 0 -12 5 -22 10 -22 13 0 13 27 -1 35 -6 5 -4 12 8 21 25 18 8
18 -21 -1 -22 -15 -23 -15 -23 9 0 20 4 24 26 23 23 -2 26 2 27 30 0 32 0 32
-19 15 -19 -16 -20 -16 -15 5 4 13 2 26 -3 29 -13 8 0 26 15 21 6 -3 12 4 12
14 0 11 -4 19 -8 19 -4 0 -8 -4 -8 -10 0 -5 -7 -10 -15 -10 -18 0 -20 -21 -3
-38 9 -9 9 -12 -1 -12 -7 0 -11 -6 -8 -15 4 -8 2 -17 -2 -20 -14 -8 -21 21 -8
34 9 9 9 14 -1 20 -7 4 -10 15 -6 25 4 11 1 22 -7 28 -11 7 -11 11 -1 15 7 2
17 14 24 26 10 20 10 21 -6 7 -16 -13 -20 -12 -32 5 -16 21 -3 36 27 30 22 -4
34 24 14 31 -8 4 -15 10 -15 16 0 5 3 7 8 5 4 -3 13 2 21 10 12 14 12 15 0 11
-17 -6 -49 9 -49 23 0 6 5 7 11 4 13 -9 8 27 -6 38 -6 5 -3 7 8 3 11 -3 17 0
17 10 0 11 -6 14 -16 10 -9 -3 -12 -2 -9 5 4 5 2 16 -4 23 -9 10 -8 15 4 20
13 5 14 10 5 26 -9 16 -8 25 1 36 7 8 7 14 1 14 -5 0 -13 7 -16 16 -4 12 -1
14 14 9 17 -5 19 -2 15 30 -4 27 -2 34 7 29 7 -4 3 3 -10 15 -23 23 -22 44 2
35 9 -3 13 1 13 13 -2 12 4 17 17 15 11 -2 15 1 11 8 -4 6 -15 8 -25 5 -21 -7
-40 20 -40 54 0 24 25 28 34 6 3 -8 13 -15 23 -15 15 0 15 2 4 9 -13 8 -13 12
0 27 8 10 9 15 2 11 -6 -4 -15 -3 -18 3 -4 6 -15 8 -25 5 -14 -4 -17 0 -17 20
0 15 5 25 14 25 9 0 13 8 11 23 -2 12 4 29 13 38 13 13 16 29 12 68 -3 33 -1
51 6 51 6 0 11 5 11 10 0 16 -27 11 -34 -6 -12 -31 -17 -7 -7 35 7 35 7 41 -5
37 -7 -3 -16 -1 -19 4 -6 10 6 14 35 11 10 -1 8 4 -7 17 l-22 19 23 22 c12 12
26 18 29 14 4 -3 7 -1 7 5 0 15 -5 15 -29 0 -15 -9 -22 -8 -35 5 -22 21 -20
30 4 22 14 -4 20 -2 20 8 0 9 -6 17 -12 19 -9 3 -7 10 6 23 20 20 17 79 -5 99
-9 8 -10 7 -6 -7 8 -22 -12 -67 -30 -67 -7 0 -13 7 -13 16 0 9 6 14 13 11 10
-4 14 4 14 24 0 17 -6 29 -13 29 -8 0 -11 6 -8 15 4 8 11 12 17 8 6 -3 7 -1 3
6 -4 6 0 14 11 18 22 8 34 24 26 36 -3 5 -16 -4 -28 -19 l-23 -29 -15 35 c-8
20 -11 39 -6 45 5 5 9 14 9 20 0 5 -5 3 -10 -5 -12 -18 -12 -2 0 25 5 11 9 14
9 8 1 -7 8 -13 16 -13 19 0 8 29 -20 52 -16 14 -17 17 -4 18 9 0 22 7 29 15
11 13 10 14 -4 9 -12 -4 -16 0 -16 16 0 11 4 18 10 15 5 -3 7 0 4 9 -3 8 -12
17 -19 20 -9 3 -12 0 -8 -10 3 -8 -1 -14 -11 -14 -22 0 -20 16 4 33 11 8 17
17 14 20 -4 4 -1 13 5 21 14 16 -2 32 -20 20 -8 -4 -7 -9 2 -15 8 -5 9 -9 3
-9 -6 0 -17 7 -24 15 -10 11 -9 18 4 30 12 12 16 13 16 3 0 -10 3 -9 10 2 5 8
10 10 10 4 0 -6 6 -11 14 -11 8 0 12 6 9 14 -3 7 -11 13 -19 13 -8 0 -14 4
-14 9 0 4 13 8 30 7 19 -1 30 -6 30 -16 0 -9 3 -11 10 -4 14 14 1 46 -16 40
-7 -3 -16 -1 -19 4 -4 6 -1 10 6 10 7 0 10 3 7 6 -4 3 -15 1 -26 -5 -17 -9
-19 -7 -14 17 3 14 14 34 25 43 16 12 17 18 7 24 -9 5 -11 4 -6 -3 4 -7 5 -12
2 -12 -3 0 -12 13 -20 29 -14 26 -14 29 1 27 25 -2 28 45 3 51 -11 3 -20 9
-20 13 0 11 26 31 33 25 4 -3 5 -2 2 2 -3 3 0 12 7 20 9 11 7 15 -10 20 -25 6
-30 23 -7 23 8 0 12 6 9 14 -3 8 -1 17 5 21 6 3 11 1 11 -4 0 -6 5 -11 11 -11
8 0 7 5 -1 15 -7 9 -19 14 -26 11 -7 -3 -16 -1 -19 5 -4 5 -11 7 -16 4 -5 -3
-6 1 -3 8 5 14 23 22 48 25 5 0 12 6 17 13 10 16 -10 31 -32 24 -16 -5 -46 12
-51 30 -2 6 2 11 7 13 6 1 10 -3 10 -10 0 -20 22 -20 28 1 3 14 -2 21 -20 26
-20 5 -23 8 -13 20 7 8 16 13 20 10 5 -3 16 -2 25 1 13 5 14 9 3 15 -7 5 -22
2 -35 -6 -28 -19 -33 -19 -33 -1 0 7 -10 20 -22 29 -13 8 -20 18 -15 23 4 4
14 -2 23 -14 20 -29 42 -28 41 1 0 12 3 36 6 52 6 23 5 25 -2 10 -5 -11 -10
-16 -10 -11 -1 6 -7 1 -15 -10 -8 -10 -18 -16 -22 -11 -4 4 3 18 15 31 17 18
19 25 9 30 -9 4 -7 10 10 22 12 9 22 25 22 36 0 20 -22 48 -38 48 -8 0 -22 22
-22 36 0 2 9 4 20 4 11 0 20 5 20 11 0 6 -7 9 -15 5 -9 -3 -15 0 -15 9 0 8 -6
15 -13 15 -8 0 -14 12 -14 30 0 16 5 26 10 23 14 -8 27 19 16 33 -11 13 -8 72
5 92 5 8 0 12 -16 13 -13 0 -17 3 -10 6 17 7 15 24 -5 39 -17 12 -16 13 5 14
20 0 21 3 12 20 -6 11 -14 19 -18 16 -4 -2 -8 14 -8 35 -1 30 2 39 12 35 16
-6 16 0 4 29 -7 15 -9 16 -9 4 -1 -9 -7 -22 -15 -28 -21 -18 -14 43 8 65 12
12 14 20 7 27 -16 16 -14 50 1 41 7 -5 3 5 -10 20 -25 32 -28 47 -9 44 7 -2
11 5 9 16 -2 12 1 16 10 10 7 -4 10 -4 6 1 -4 4 -3 14 3 22 9 10 6 12 -20 7
-20 -4 -31 -3 -31 5 0 6 9 11 21 11 11 0 17 4 14 10 -3 5 -1 18 5 29 7 13 7
22 0 26 -15 10 -12 25 6 25 13 0 13 5 -5 33 -11 19 -18 37 -14 40 3 4 1 7 -7
7 -9 0 -11 9 -6 30 3 18 2 29 -3 25 -6 -3 -9 5 -7 17 1 13 6 24 12 25 5 1 8
-5 6 -13 -2 -8 2 -14 8 -14 15 0 12 22 -5 47 -8 12 -12 29 -9 38 4 10 1 21 -7
25 -9 6 -6 10 14 15 15 4 27 11 27 17 0 5 -4 6 -10 3 -6 -3 -7 1 -4 9 4 11 0
16 -11 16 -9 0 -15 6 -12 13 2 6 12 11 21 9 20 -4 34 27 16 38 -8 5 -10 15 -5
26 4 11 9 41 11 68 1 27 5 60 8 73 8 31 0 29 -18 -4 -14 -27 -15 -27 -10 22 2
27 8 53 13 58 5 5 7 16 4 24 -3 7 3 23 13 34 24 27 27 54 8 73 -17 17 -11 36
12 36 8 0 14 4 14 10 0 5 -7 7 -15 4 -8 -4 -15 -2 -15 4 0 5 7 13 16 16 14 5
14 7 0 22 -17 16 -21 35 -8 33 23 -4 30 4 27 29 -2 15 1 35 6 44 7 14 6 16 -6
12 -16 -7 -21 11 -6 20 5 3 7 14 4 24 -2 10 2 24 11 31 15 13 11 45 -5 35 -5
-3 -9 2 -9 10 0 9 4 16 8 16 5 0 9 6 9 13 0 6 4 21 8 32 5 14 4 16 -3 6 -5 -7
-12 -9 -15 -4 -4 6 0 18 7 29 8 10 12 24 9 30 -2 7 4 15 15 18 25 8 24 36 -2
37 -17 1 -18 2 -3 6 21 5 23 41 2 49 -19 8 -20 24 -1 24 8 0 17 6 19 13 4 10
6 10 6 0 1 -7 6 -13 12 -13 7 0 5 10 -5 25 -9 14 -13 25 -9 25 5 0 1 5 -7 11
-11 8 -12 12 -2 16 6 2 12 12 12 22 0 10 9 35 19 57 13 27 16 44 10 56 -7 13
-4 23 11 38 24 24 26 34 4 26 -14 -6 -15 -4 -4 10 10 11 11 17 2 23 -13 8 0
67 15 64 5 -1 14 7 21 18 10 16 9 19 -3 19 -8 0 -15 5 -15 11 0 5 5 7 10 4 6
-3 10 2 10 13 0 21 31 62 48 62 5 0 12 6 15 13 4 10 -2 13 -18 9 -18 -3 -23 0
-21 14 2 13 11 19 25 18 12 -1 20 3 18 10 -2 6 -13 10 -23 9 -10 -1 -13 0 -6
3 6 3 10 10 6 15 -3 5 2 9 11 9 12 0 15 8 12 35 -3 19 -1 35 2 35 3 0 11 8 18
19 9 14 9 18 0 17 -23 -2 -22 19 1 22 17 3 22 8 17 19 -3 9 0 20 7 24 9 6 8 9
-5 13 -49 16 -53 19 -28 24 19 3 21 6 10 14 -10 7 -6 8 14 4 18 -5 33 -1 43 9
14 13 13 15 -13 16 -27 0 -27 1 -5 9 24 10 29 25 10 36 -7 4 -8 3 -4 -4 4 -7
3 -12 -2 -12 -10 0 -19 16 -20 35 -1 6 11 9 26 7 18 -2 23 0 14 6 -9 6 -6 12
12 22 14 7 23 17 20 22 -3 4 -12 1 -20 -7 -9 -8 -21 -15 -27 -15 -7 0 -3 8 8
16 17 13 18 17 5 27 -17 14 -23 32 -22 65 1 12 -4 22 -11 22 -7 0 -21 18 -31
39 -9 22 -25 43 -35 46 -11 3 -24 19 -31 35 -8 19 -17 27 -27 23 -9 -4 -19 1
-25 10 -5 10 -18 17 -28 17 -11 0 -25 10 -31 23 -15 28 -30 38 -47 32 -7 -3
-35 11 -62 30 -28 19 -50 32 -50 28 0 -4 -7 2 -15 13 -9 10 -14 13 -13 5 2 -7
-3 -16 -9 -18 -7 -3 -13 0 -13 6 0 6 -8 11 -18 11 -10 0 -23 5 -30 12 -9 9
-12 8 -16 -3z m300 -1206 c-7 -7 -26 7 -26 19 0 6 6 6 15 -2 9 -7 13 -15 11
-17z m-107 -805 c-9 -16 -14 -19 -17 -9 -2 7 2 17 9 22 20 13 21 11 8 -13z
m-58 -351 c-10 -9 -11 -8 -5 6 3 10 9 15 12 12 3 -3 0 -11 -7 -18z m19 -357
c-15 -10 -40 -13 -40 -6 0 3 7 12 16 21 12 12 20 13 28 5 8 -8 7 -13 -4 -20z
m-6 -45 c3 -8 1 -15 -4 -15 -6 0 -10 7 -10 15 0 8 2 15 4 15 2 0 6 -7 10 -15z
m86 -805 c0 -19 -28 -10 -33 10 -4 17 -2 18 14 9 10 -5 19 -14 19 -19z m0
-400 c0 -5 -4 -10 -10 -10 -5 0 -10 5 -10 10 0 6 5 10 10 10 6 0 10 -4 10 -10z
m-10 -434 c0 -3 -4 -8 -10 -11 -5 -3 -10 -1 -10 4 0 6 5 11 10 11 6 0 10 -2
10 -4z m-10 -236 c0 -5 -4 -10 -10 -10 -5 0 -10 5 -10 10 0 6 5 10 10 10 6 0
10 -4 10 -10z m87 -499 c-1 -3 4 -15 10 -26 9 -17 7 -23 -15 -39 -25 -19 -25
-19 -20 2 4 13 -2 29 -15 43 -17 18 -18 21 -4 16 9 -3 17 -3 17 2 0 4 7 8 14
8 8 0 14 -3 13 -6z m-17 -111 c0 -5 -5 -10 -11 -10 -5 0 -7 5 -4 10 3 6 8 10
11 10 2 0 4 -4 4 -10z m-20 -30 c0 -5 -4 -10 -10 -10 -5 0 -10 5 -10 10 0 6 5
10 10 10 6 0 10 -4 10 -10z m20 -227 c0 -5 -7 -17 -15 -27 -15 -20 -15 -20
-15 0 0 12 3 24 7 27 9 9 23 9 23 0z m-16 -92 c3 -4 3 -11 0 -14 -8 -8 -34 3
-34 14 0 11 27 12 34 0z m1 -51 c3 -5 1 -10 -4 -10 -6 0 -11 5 -11 10 0 6 2
10 4 10 3 0 8 -4 11 -10z m-13 -122 c-7 -7 -12 -8 -12 -2 0 14 12 26 19 19 2
-3 -1 -11 -7 -17z m58 -503 c-7 -9 -15 -13 -17 -11 -6 6 20 36 26 30 2 -2 -2
-10 -9 -19z m30 -11 c0 -8 -5 -12 -10 -9 -6 4 -8 11 -5 16 9 14 15 11 15 -7z
m-40 -18 c0 -3 -4 -8 -10 -11 -5 -3 -10 -1 -10 4 0 6 5 11 10 11 6 0 10 -2 10
-4z m-36 -58 c-9 -14 -23 2 -17 18 4 12 8 13 14 3 4 -7 5 -17 3 -21z m46 14
c0 -13 -12 -22 -22 -16 -10 6 -1 24 13 24 5 0 9 -4 9 -8z m30 -11 c0 -6 -4
-13 -10 -16 -5 -3 -10 1 -10 9 0 9 5 16 10 16 6 0 10 -4 10 -9z m20 -21 c0
-14 -39 -32 -52 -24 -8 5 17 23 50 33 1 1 2 -3 2 -9z m-104 -268 c-17 -16 -18
-16 -5 5 7 12 15 20 18 17 3 -2 -3 -12 -13 -22z m44 -113 c0 -18 -18 -9 -23
12 -4 16 -3 18 9 8 8 -6 14 -15 14 -20z m-20 -79 c0 -5 -2 -10 -4 -10 -3 0 -8
5 -11 10 -3 6 -1 10 4 10 6 0 11 -4 11 -10z m-20 -125 c0 -8 -4 -15 -10 -15
-5 0 -7 7 -4 15 4 8 8 15 10 15 2 0 4 -7 4 -15z m20 -195 c0 -5 -4 -10 -10
-10 -5 0 -10 5 -10 10 0 6 5 10 10 10 6 0 10 -4 10 -10z m35 -620 c-3 -5 -16
-10 -28 -9 -20 1 -20 2 3 9 14 4 26 8 28 9 2 1 0 -3 -3 -9z m55 -280 c0 -5 -2
-10 -4 -10 -3 0 -8 5 -11 10 -3 6 -1 10 4 10 6 0 11 -4 11 -10z m42 -1162 c-7
-7 -12 -8 -12 -2 0 14 12 26 19 19 2 -3 -1 -11 -7 -17z m68 -249 c0 -5 -4 -7
-10 -4 -5 3 -10 1 -10 -6 0 -7 -3 -10 -6 -6 -8 7 4 27 17 27 5 0 9 -5 9 -11z
m-25 -58 c-3 -6 -11 -8 -17 -5 -6 4 -5 9 3 15 16 10 23 4 14 -10z m8 -266 c-5
-13 -23 -22 -23 -11 0 15 14 35 21 31 4 -3 6 -12 2 -20z m117 -317 c0 -11 -14
-10 -26 2 -13 13 -46 2 -37 -13 3 -6 1 -7 -5 -3 -18 11 -15 39 3 33 8 -4 17
-2 20 3 6 10 45 -9 45 -22z m-9180 -308 c0 -5 -2 -10 -4 -10 -3 0 -8 5 -11 10
-3 6 -1 10 4 10 6 0 11 -4 11 -10z m20 -30 c0 -5 -5 -10 -11 -10 -5 0 -7 5 -4
10 3 6 8 10 11 10 2 0 4 -4 4 -10z m64 2 c3 -5 -1 -9 -9 -9 -8 0 -15 4 -15 9
0 4 4 8 9 8 6 0 12 -4 15 -8z m1581 -82 c-3 -5 -10 -10 -16 -10 -5 0 -9 5 -9
10 0 6 7 10 16 10 8 0 12 -4 9 -10z m3792 4 c-3 -3 -12 -4 -19 -1 -8 3 -5 6 6
6 11 1 17 -2 13 -5z m2563 -18 c0 -3 -4 -8 -10 -11 -5 -3 -10 -1 -10 4 0 6 5
11 10 11 6 0 10 -2 10 -4z m195 -16 c4 -6 11 -8 16 -5 5 4 9 1 9 -4 0 -6 -11
-11 -25 -11 -16 0 -25 6 -25 15 0 17 16 20 25 5z m-7740 -30 c3 -5 1 -10 -4
-10 -6 0 -11 5 -11 10 0 6 2 10 4 10 3 0 8 -4 11 -10z m1567 -32 c-7 -7 -12
-8 -12 -2 0 14 12 26 19 19 2 -3 -1 -11 -7 -17z m6518 12 c0 -5 -4 -10 -10
-10 -5 0 -10 5 -10 10 0 6 5 10 10 10 6 0 10 -4 10 -10z m-6483 -22 c-3 -8 -6
-5 -6 6 -1 11 2 17 5 13 3 -3 4 -12 1 -19z m3863 -5 c0 -7 -4 -13 -9 -13 -5 0
-11 6 -14 13 -3 8 1 14 9 14 8 0 14 -6 14 -14z m-3820 3 c0 -3 -4 -8 -10 -11
-5 -3 -10 -1 -10 4 0 6 5 11 10 11 6 0 10 -2 10 -4z m140 -6 c0 -5 -4 -10 -10
-10 -5 0 -10 5 -10 10 0 6 5 10 10 10 6 0 10 -4 10 -10z m243 -19 c3 -14 1
-18 -9 -14 -8 3 -14 11 -14 19 0 21 17 17 23 -5z m917 13 c0 -8 -19 -13 -24
-6 -3 5 1 9 9 9 8 0 15 -2 15 -3z m2868 -39 c-3 -3 -9 2 -12 12 -6 14 -5 15 5
6 7 -7 10 -15 7 -18z m2572 10 c0 -8 -4 -15 -9 -15 -5 0 -11 7 -15 15 -3 9 0
15 9 15 8 0 15 -7 15 -15z m-1550 -15 c-19 -12 -30 -12 -30 -1 0 10 31 20 40
14 2 -2 -2 -8 -10 -13z m-1122 -15 c-1 -14 -6 -25 -11 -25 -5 0 -6 7 -3 16 3
9 6 20 6 25 0 5 2 9 5 9 3 0 4 -11 3 -25z m186 3 c-3 -4 -9 -8 -15 -8 -5 0 -9
4 -9 8 0 5 7 9 15 9 8 0 12 -4 9 -9z m-3633 -17 l24 -20 -22 6 c-13 3 -23 10
-23 15 0 5 -4 6 -10 3 -5 -3 -10 -1 -10 4 0 16 15 13 41 -8z m599 -1 c0 -5 -4
-10 -10 -10 -5 0 -10 5 -10 10 0 6 5 10 10 10 6 0 10 -4 10 -10z m3150 -11 c0
-4 -7 -6 -15 -3 -8 4 -15 10 -15 15 0 4 7 6 15 3 8 -4 15 -10 15 -15z m-3526
-23 c-3 -14 -10 -26 -14 -26 -5 0 -3 13 3 30 13 35 21 33 11 -4z m224 2 c-2
-6 -10 -13 -16 -14 -7 -1 -8 0 -2 3 5 2 8 9 4 14 -3 5 0 9 6 9 7 0 10 -5 8
-12z m92 2 c0 -5 -2 -10 -4 -10 -3 0 -8 5 -11 10 -3 6 -1 10 4 10 6 0 11 -4
11 -10z m3418 -61 c-7 -5 -10 -9 -5 -10 4 -1 12 -3 17 -4 6 -1 13 -3 17 -4 4
0 2 -6 -4 -12 -9 -9 -18 -5 -37 14 -32 32 -32 35 0 29 19 -3 22 -7 12 -13z
m47 11 c3 -5 1 -10 -4 -10 -6 0 -11 5 -11 10 0 6 2 10 4 10 3 0 8 -4 11 -10z
m115 0 c0 -5 -4 -10 -10 -10 -5 0 -10 5 -10 10 0 6 5 10 10 10 6 0 10 -4 10
-10z m260 -10 c0 -5 -4 -10 -10 -10 -5 0 -10 5 -10 10 0 6 5 10 10 10 6 0 10
-4 10 -10z m40 -4 c0 -3 -4 -8 -10 -11 -5 -3 -10 -1 -10 4 0 6 5 11 10 11 6 0
10 -2 10 -4z"/>
<path d="M14795 13810 c4 -6 11 -8 16 -5 14 9 11 15 -7 15 -8 0 -12 -5 -9 -10z"/>
<path d="M16264 13765 c-9 -14 -13 -29 -9 -33 7 -7 45 34 45 49 0 18 -20 9
-36 -16z"/>
<path d="M13775 13670 c-3 -5 1 -13 10 -16 22 -9 29 1 11 15 -10 8 -16 9 -21
1z"/>
<path d="M16075 13671 c-7 -12 12 -24 25 -16 11 7 4 25 -10 25 -5 0 -11 -4
-15 -9z"/>
<path d="M13734 13494 c3 -9 6 -18 6 -20 0 -2 4 -4 9 -4 5 0 7 9 4 20 -3 11
-10 20 -15 20 -6 0 -7 -7 -4 -16z"/>
<path d="M13680 13460 c0 -5 7 -10 15 -10 8 0 15 5 15 10 0 6 -7 10 -15 10 -8
0 -15 -4 -15 -10z"/>
<path d="M13716 13435 c-3 -8 -1 -15 4 -15 13 0 22 18 11 24 -5 3 -11 -1 -15
-9z"/>
<path d="M13700 13340 c0 -5 5 -10 11 -10 5 0 7 5 4 10 -3 6 -8 10 -11 10 -2
0 -4 -4 -4 -10z"/>
<path d="M13707 13264 c-6 -10 9 -42 16 -34 3 3 1 14 -3 24 -3 11 -9 15 -13
10z"/>
<path d="M14440 13236 c0 -9 5 -16 10 -16 6 0 10 4 10 9 0 6 -4 13 -10 16 -5
3 -10 -1 -10 -9z"/>
<path d="M16831 13224 c0 -11 3 -14 6 -6 3 7 2 16 -1 19 -3 4 -6 -2 -5 -13z"/>
<path d="M14895 13190 c-3 -5 -1 -10 4 -10 6 0 11 5 11 10 0 6 -2 10 -4 10 -3
0 -8 -4 -11 -10z"/>
<path d="M15246 13084 c-8 -21 -8 -24 3 -24 5 0 11 9 14 20 6 24 -8 27 -17 4z"/>
<path d="M13567 13024 c-14 -14 -7 -35 11 -32 9 2 17 10 17 17 0 16 -18 25
-28 15z"/>
<path d="M16520 12734 c0 -8 5 -12 10 -9 6 4 8 11 5 16 -9 14 -15 11 -15 -7z"/>
<path d="M15696 12575 c-3 -9 0 -15 9 -15 16 0 20 16 6 24 -5 3 -11 -1 -15 -9z"/>
<path d="M13480 12520 c0 -5 7 -10 16 -10 8 0 12 5 9 10 -3 6 -10 10 -16 10
-5 0 -9 -4 -9 -10z"/>
<path d="M13460 12301 c-12 -24 -13 -31 -2 -31 5 0 14 11 20 25 14 29 -2 34
-18 6z"/>
<path d="M15620 11970 c0 -5 5 -10 10 -10 6 0 10 5 10 10 0 6 -4 10 -10 10 -5
0 -10 -4 -10 -10z"/>
<path d="M12973 11905 c0 -22 2 -30 4 -17 2 12 2 30 0 40 -3 9 -5 -1 -4 -23z"/>
<path d="M12962 11785 c0 -16 2 -22 5 -12 2 9 2 23 0 30 -3 6 -5 -1 -5 -18z"/>
<path d="M13401 11750 c-13 -11 -21 -20 -18 -20 14 0 57 24 57 32 0 13 -13 9
-39 -12z"/>
<path d="M13355 11520 c-3 -5 -1 -10 4 -10 6 0 11 5 11 10 0 6 -2 10 -4 10 -3
0 -8 -4 -11 -10z"/>
<path d="M13397 11341 c-4 -17 -3 -21 5 -13 5 5 8 16 6 23 -3 8 -7 3 -11 -10z"/>
<path d="M16161 11053 c-1 -6 -4 -20 -7 -30 -5 -17 -5 -17 6 0 6 10 9 23 6 30
-3 9 -5 9 -5 0z"/>
<path d="M13472 10541 c4 -13 18 -16 19 -4 0 4 -5 9 -11 12 -7 2 -11 -2 -8 -8z"/>
<path d="M13450 10509 c0 -5 5 -7 10 -4 6 3 10 8 10 11 0 2 -4 4 -10 4 -5 0
-10 -5 -10 -11z"/>
<path d="M13485 10060 c3 -5 8 -10 11 -10 2 0 4 5 4 10 0 6 -5 10 -11 10 -5 0
-7 -4 -4 -10z"/>
<path d="M13493 10027 c-3 -5 -1 -13 5 -19 7 -7 13 -4 21 9 8 15 7 20 -5 20
-8 0 -17 -4 -21 -10z"/>
<path d="M13495 9960 c3 -5 8 -10 11 -10 2 0 4 5 4 10 0 6 -5 10 -11 10 -5 0
-7 -4 -4 -10z"/>
<path d="M13490 9906 c0 -22 17 -28 24 -10 9 22 8 24 -9 24 -8 0 -15 -6 -15
-14z"/>
<path d="M15902 9860 c-7 -11 -9 -20 -4 -20 10 0 32 22 32 32 0 15 -15 8 -28
-12z"/>
<path d="M13509 9743 c-13 -16 -12 -17 4 -4 9 7 17 15 17 17 0 8 -8 3 -21 -13z"/>
<path d="M13490 9641 c0 -13 -6 -21 -16 -21 -9 0 -14 -6 -11 -12 2 -8 16 -12
33 -10 28 3 28 3 10 -17 -11 -12 -15 -21 -11 -21 5 0 -1 -10 -12 -22 -25 -29
-35 -56 -23 -63 6 -4 14 5 20 19 11 31 18 32 36 9 7 -10 16 -14 21 -10 4 5 0
15 -10 22 -15 11 -17 20 -11 47 4 18 6 38 5 43 -2 6 -4 19 -5 29 -2 27 -26 33
-26 7z"/>
<path d="M13640 9560 c0 -9 31 -30 44 -30 4 0 1 9 -6 20 -13 21 -38 27 -38 10z"/>
<path d="M13920 9380 c0 -5 5 -10 10 -10 6 0 10 5 10 10 0 6 -4 10 -10 10 -5
0 -10 -4 -10 -10z"/>
<path d="M13557 9310 c10 -11 22 -20 27 -20 5 0 1 9 -9 20 -10 11 -22 20 -26
20 -5 0 -1 -9 8 -20z"/>
<path d="M15205 9300 c-3 -5 -2 -10 4 -10 5 0 13 5 16 10 3 6 2 10 -4 10 -5 0
-13 -4 -16 -10z"/>
<path d="M13543 8893 c-15 -5 -17 -23 -4 -23 5 0 11 7 15 15 3 8 4 15 3 14 -1
0 -8 -3 -14 -6z"/>
<path d="M13560 8863 c0 -13 5 -23 10 -23 13 0 13 11 0 30 -8 12 -10 11 -10
-7z"/>
<path d="M13490 8761 c0 -5 7 -11 14 -14 10 -4 13 -1 9 9 -6 15 -23 19 -23 5z"/>
<path d="M13526 8664 c-5 -14 -4 -15 9 -4 17 14 19 20 6 20 -5 0 -12 -7 -15
-16z"/>
<path d="M13530 8420 c0 -5 5 -10 10 -10 6 0 10 5 10 10 0 6 -4 10 -10 10 -5
0 -10 -4 -10 -10z"/>
<path d="M13551 8307 c-6 -8 -8 -17 -4 -20 12 -13 22 -7 20 13 -2 24 -1 24
-16 7z"/>
<path d="M13556 8251 c-4 -7 -5 -15 -2 -18 9 -9 19 4 14 18 -4 11 -6 11 -12 0z"/>
<path d="M13534 8208 c-4 -7 -4 -10 1 -6 4 4 14 3 22 -4 11 -8 12 -7 7 6 -7
19 -20 21 -30 4z"/>
<path d="M13590 7915 c0 -19 23 -55 34 -55 21 0 30 18 17 34 -11 13 -51 29
-51 21z"/>
<path d="M14050 7845 c-7 -9 -10 -18 -7 -21 10 -11 37 5 37 21 0 19 -14 19
-30 0z"/>
<path d="M13615 7750 c-3 -5 -1 -10 4 -10 6 0 11 5 11 10 0 6 -2 10 -4 10 -3
0 -8 -4 -11 -10z"/>
<path d="M14237 7649 c-23 -13 -22 -29 2 -29 23 0 33 11 23 27 -5 8 -13 8 -25
2z"/>
<path d="M13670 7633 c0 -5 5 -15 10 -23 7 -11 12 -12 21 -3 6 6 8 16 5 22 -8
12 -36 15 -36 4z"/>
<path d="M13552 7573 c1 -10 -1 -24 -6 -31 -9 -15 0 -29 11 -18 11 11 12 66 1
66 -5 0 -8 -8 -6 -17z"/>
<path d="M13561 7511 c-9 -6 -6 -8 13 -8 14 0 23 3 20 8 -7 11 -15 11 -33 0z"/>
<path d="M2505 7480 c3 -5 10 -10 16 -10 5 0 9 5 9 10 0 6 -7 10 -16 10 -8 0
-12 -4 -9 -10z"/>
<path d="M13525 7470 c-3 -5 -1 -10 4 -10 6 0 11 5 11 10 0 6 -2 10 -4 10 -3
0 -8 -4 -11 -10z"/>
<path d="M13547 7452 c-10 -10 -17 -22 -17 -27 0 -5 9 1 21 14 12 12 19 24 17
27 -3 2 -12 -4 -21 -14z"/>
<path d="M13541 7304 c0 -11 3 -14 6 -6 3 7 2 16 -1 19 -3 4 -6 -2 -5 -13z"/>
<path d="M13511 7286 c-8 -9 -11 -19 -7 -23 9 -9 29 13 24 27 -2 8 -8 7 -17
-4z"/>
<path d="M550 7215 c-7 -9 -11 -18 -8 -20 3 -3 11 1 18 10 7 9 11 18 8 20 -3
3 -11 -1 -18 -10z"/>
<path d="M2286 6893 c-11 -11 -6 -23 9 -23 8 0 15 4 15 9 0 13 -16 22 -24 14z"/>
<path d="M13575 6780 c-3 -5 -1 -10 4 -10 6 0 11 5 11 10 0 6 -2 10 -4 10 -3
0 -8 -4 -11 -10z"/>
<path d="M13585 6650 c-3 -5 -1 -10 4 -10 6 0 11 5 11 10 0 6 -2 10 -4 10 -3
0 -8 -4 -11 -10z"/>
<path d="M1752 6498 c-14 -14 -16 -44 -3 -53 11 -6 31 26 31 49 0 19 -11 21
-28 4z"/>
<path d="M13600 6016 c0 -2 6 -9 13 -15 10 -8 14 -7 14 4 0 8 -6 15 -14 15 -7
0 -13 -2 -13 -4z"/>
<path d="M13600 5912 c0 -4 12 -15 28 -24 15 -10 21 -18 15 -18 -15 0 -18 -20
-3 -20 20 0 21 28 3 49 -17 21 -43 28 -43 13z"/>
<path d="M15170 5866 c0 -9 5 -16 10 -16 6 0 10 4 10 9 0 6 -4 13 -10 16 -5 3
-10 -1 -10 -9z"/>
<path d="M3000 5769 c0 -5 5 -7 10 -4 6 3 10 8 10 11 0 2 -4 4 -10 4 -5 0 -10
-5 -10 -11z"/>
<path d="M2960 5730 c0 -13 7 -20 20 -20 13 0 20 7 20 20 0 13 -7 20 -20 20
-13 0 -20 -7 -20 -20z"/>
<path d="M2387 5693 c-12 -11 -8 -23 8 -23 8 0 15 7 15 15 0 16 -12 20 -23 8z"/>
<path d="M13894 5485 c-7 -18 3 -35 21 -35 15 0 28 27 19 41 -8 14 -34 11 -40
-6z"/>
<path d="M2717 5483 c-12 -11 -8 -23 8 -23 8 0 15 7 15 15 0 16 -12 20 -23 8z"/>
<path d="M13650 5470 c0 -5 9 -10 20 -10 11 0 20 5 20 10 0 6 -9 10 -20 10
-11 0 -20 -4 -20 -10z"/>
<path d="M15251 5396 c-7 -8 -11 -30 -9 -48 2 -25 8 -34 24 -36 18 -3 22 3 27
40 3 23 3 46 1 50 -8 13 -30 9 -43 -6z"/>
<path d="M13710 4689 c0 -5 5 -7 10 -4 6 3 10 8 10 11 0 2 -4 4 -10 4 -5 0
-10 -5 -10 -11z"/>
<path d="M13850 4625 c7 -8 16 -12 21 -9 13 8 1 24 -18 24 -13 0 -13 -3 -3
-15z"/>
<path d="M13927 4624 c-6 -10 9 -42 16 -34 3 3 1 14 -3 24 -3 11 -9 15 -13 10z"/>
<path d="M14055 4540 c-3 -5 -1 -10 4 -10 6 0 11 5 11 10 0 6 -2 10 -4 10 -3
0 -8 -4 -11 -10z"/>
<path d="M13794 4529 c-4 -8 -3 -9 4 -5 7 4 12 2 12 -3 0 -6 5 -11 11 -11 13
0 7 22 -8 27 -6 2 -15 -1 -19 -8z"/>
<path d="M13850 4500 c-13 -8 -12 -10 3 -10 9 0 17 5 17 10 0 12 -1 12 -20 0z"/>
<path d="M13776 4441 c-3 -5 3 -11 15 -14 16 -4 18 -3 8 9 -13 16 -16 17 -23
5z"/>
<path d="M697 4413 c-12 -11 -8 -23 8 -23 8 0 15 7 15 15 0 16 -12 20 -23 8z"/>
<path d="M13787 4293 c-4 -3 -7 -11 -7 -17 0 -6 5 -5 12 2 6 6 9 14 7 17 -3 3
-9 2 -12 -2z"/>
<path d="M13820 4101 c0 -6 4 -13 10 -16 6 -3 7 1 4 9 -7 18 -14 21 -14 7z"/>
<path d="M13790 4086 c0 -2 7 -9 15 -16 9 -7 15 -8 15 -2 0 5 -7 12 -15 16 -8
3 -15 4 -15 2z"/>
<path d="M13846 4062 c-3 -5 1 -9 9 -9 8 0 15 4 15 9 0 4 -4 8 -9 8 -6 0 -12
-4 -15 -8z"/>
<path d="M13885 4041 c-3 -5 -1 -12 5 -16 5 -3 10 1 10 9 0 18 -6 21 -15 7z"/>
<path d="M13825 4001 c-7 -12 2 -31 15 -31 9 0 8 26 -2 35 -3 4 -9 2 -13 -4z"/>
<path d="M9410 3710 c0 -5 7 -10 15 -10 8 0 15 5 15 10 0 6 -7 10 -15 10 -8 0
-15 -4 -15 -10z"/>
<path d="M4513 3695 c-14 -15 -17 -45 -5 -45 15 1 42 28 42 44 0 20 -20 20
-37 1z"/>
<path d="M13756 3698 c7 -11 34 -10 34 1 0 6 -9 9 -19 8 -11 0 -17 -5 -15 -9z"/>
<path d="M8297 3609 c-4 -16 -3 -18 9 -8 7 6 11 15 8 20 -8 13 -11 11 -17 -12z"/>
<path d="M13740 3605 c0 -8 2 -15 4 -15 2 0 6 7 10 15 3 8 1 15 -4 15 -6 0
-10 -7 -10 -15z"/>
<path d="M5976 3593 c-6 -14 -5 -15 5 -6 7 7 10 15 7 18 -3 3 -9 -2 -12 -12z"/>
<path d="M13699 3608 c-6 -21 -5 -38 2 -38 5 0 9 9 9 20 0 16 -7 28 -11 18z"/>
<path d="M4610 3581 c0 -6 4 -13 10 -16 6 -3 7 1 4 9 -7 18 -14 21 -14 7z"/>
<path d="M5655 3581 c-3 -5 -1 -12 5 -16 5 -3 10 1 10 9 0 18 -6 21 -15 7z"/>
<path d="M6160 3586 c0 -2 7 -6 15 -10 8 -3 15 -1 15 4 0 6 -7 10 -15 10 -8 0
-15 -2 -15 -4z"/>
<path d="M12575 3579 c-4 -6 -5 -12 -2 -15 2 -3 7 2 10 11 7 17 1 20 -8 4z"/>
<path d="M4707 3573 c-11 -11 -8 -41 6 -49 6 -4 9 -4 5 1 -4 4 -4 13 2 19 10
13 -2 40 -13 29z"/>
<path d="M4810 3541 c0 -5 7 -11 14 -14 10 -4 13 -1 9 9 -6 15 -23 19 -23 5z"/>
<path d="M10152 3538 c2 -6 10 -14 16 -16 7 -2 10 2 6 12 -7 18 -28 22 -22 4z"/>
<path d="M282 3528 c2 -6 10 -14 16 -16 7 -2 10 2 6 12 -7 18 -28 22 -22 4z"/>
<path d="M4867 3513 c-12 -11 -8 -23 8 -23 8 0 15 7 15 15 0 16 -12 20 -23 8z"/>
<path d="M4972 3500 c-7 -12 -8 -20 -2 -20 5 0 10 5 10 11 0 8 6 7 16 -2 14
-12 16 -11 13 5 -5 27 -22 30 -37 6z"/>
<path d="M4930 3480 c0 -5 5 -10 10 -10 6 0 10 5 10 10 0 6 -4 10 -10 10 -5 0
-10 -4 -10 -10z"/>
<path d="M13380 3470 c-13 -9 -12 -12 4 -25 23 -17 34 -12 18 8 -7 8 -9 17 -5
20 10 10 0 8 -17 -3z"/>
<path d="M6855 3460 c-3 -5 -1 -10 4 -10 6 0 11 5 11 10 0 6 -2 10 -4 10 -3 0
-8 -4 -11 -10z"/>
<path d="M6880 3461 c0 -6 10 -11 23 -11 13 0 28 -5 34 -11 7 -7 12 -6 16 3 3
8 -2 14 -12 15 -9 1 -26 4 -38 8 -15 5 -23 3 -23 -4z"/>
<path d="M13330 3460 c-9 -6 -10 -10 -3 -10 6 0 15 5 18 10 8 12 4 12 -15 0z"/>
<path d="M10615 3421 c-3 -5 -1 -12 5 -16 5 -3 10 1 10 9 0 18 -6 21 -15 7z"/>
<path d="M6870 3405 c0 -8 5 -15 10 -15 6 0 10 7 10 15 0 8 -4 15 -10 15 -5 0
-10 -7 -10 -15z"/>
<path d="M7157 3403 c-7 -12 4 -28 25 -36 14 -5 16 -2 9 15 -9 24 -26 34 -34
21z"/>
<path d="M13605 3390 c3 -5 16 -10 28 -10 18 0 19 2 7 10 -20 13 -43 13 -35 0z"/>
<path d="M10984 3382 c3 -6 2 -13 -3 -17 -13 -7 6 -52 25 -59 16 -6 19 10 4
19 -5 3 -7 12 -3 20 3 8 0 15 -7 15 -6 0 -9 4 -5 9 3 5 0 13 -6 17 -7 4 -9 3
-5 -4z"/>
<path d="M7215 3361 c-6 -11 13 -26 22 -17 4 3 1 6 -6 6 -7 0 -9 5 -6 10 3 6
4 10 1 10 -3 0 -7 -4 -11 -9z"/>
<path d="M7303 3363 c-7 -2 -13 -9 -13 -15 0 -6 7 -4 17 3 10 8 14 9 10 2 -4
-6 -3 -14 3 -18 5 -3 10 3 10 14 0 21 -5 24 -27 14z"/>
<path d="M11130 3359 c0 -5 5 -7 10 -4 6 3 10 8 10 11 0 2 -4 4 -10 4 -5 0
-10 -5 -10 -11z"/>
<path d="M11843 3364 c4 -4 2 -13 -4 -21 -9 -10 -8 -13 4 -13 21 0 29 27 9 35
-9 3 -13 3 -9 -1z"/>
<path d="M7511 3344 c0 -11 3 -14 6 -6 3 7 2 16 -1 19 -3 4 -6 -2 -5 -13z"/>
<path d="M10927 3353 c-10 -10 -8 -23 4 -23 5 0 8 4 5 9 -4 5 0 12 6 14 7 3 8
6 2 6 -6 1 -14 -2 -17 -6z"/>
<path d="M7593 3325 c0 -8 4 -12 9 -9 4 3 8 9 8 15 0 5 -4 9 -8 9 -5 0 -9 -7
-9 -15z"/>
<path d="M7490 3315 c0 -8 4 -15 10 -15 5 0 7 7 4 15 -4 8 -8 15 -10 15 -2 0
-4 -7 -4 -15z"/>
<path d="M7865 3320 c-3 -5 -1 -10 4 -10 6 0 11 5 11 10 0 6 -2 10 -4 10 -3 0
-8 -4 -11 -10z"/>
<path d="M7465 3309 c-4 -6 -5 -12 -2 -15 2 -3 7 2 10 11 7 17 1 20 -8 4z"/>
<path d="M7520 3284 c0 -7 27 -34 34 -34 11 0 -6 29 -20 34 -8 3 -14 3 -14 0z"/>
<path d="M11746 3274 c-8 -21 -8 -24 5 -24 5 0 7 5 4 10 -3 6 -1 10 4 10 6 0
11 5 11 10 0 16 -17 12 -24 -6z"/>
<path d="M7815 3260 c-3 -5 -1 -10 4 -10 6 0 11 5 11 10 0 6 -2 10 -4 10 -3 0
-8 -4 -11 -10z"/>
<path d="M11697 3263 c-4 -3 -7 -11 -7 -16 0 -6 3 -7 7 -4 3 4 12 2 20 -5 21
-17 25 -3 5 15 -10 10 -22 14 -25 10z"/>
<path d="M7375 3250 c3 -5 11 -10 16 -10 6 0 7 5 4 10 -3 6 -11 10 -16 10 -6
0 -7 -4 -4 -10z"/>
<path d="M11456 3192 c-2 -4 0 -14 6 -22 8 -12 9 -11 4 4 -5 14 -2 17 9 12 9
-3 13 -2 10 4 -7 12 -22 13 -29 2z"/>
<path d="M7860 3166 c0 -9 7 -16 16 -16 9 0 14 5 12 12 -6 18 -28 21 -28 4z"/>
<path d="M4815 3120 c-3 -5 0 -10 9 -10 8 0 17 -6 19 -12 4 -8 6 -9 6 -2 1 18
-26 37 -34 24z"/>
<path d="M4000 3100 c0 -13 18 -22 24 -11 3 5 -1 11 -9 15 -8 3 -15 1 -15 -4z"/>
<path d="M4907 3054 c6 -15 23 -19 23 -5 0 5 -7 11 -14 14 -10 4 -13 1 -9 -9z"/>
<path d="M11466 3001 c-7 -10 22 -37 30 -28 9 8 -3 37 -15 37 -5 0 -12 -4 -15
-9z"/>
<path d="M340 2980 c0 -13 5 -17 14 -14 24 9 28 34 6 34 -13 0 -20 -7 -20 -20z"/>
<path d="M11520 2935 c0 -8 5 -15 10 -15 6 0 10 7 10 15 0 8 -4 15 -10 15 -5
0 -10 -7 -10 -15z"/>
<path d="M9650 2575 c0 -8 5 -15 10 -15 6 0 10 7 10 15 0 8 -4 15 -10 15 -5 0
-10 -7 -10 -15z"/>
<path d="M9640 2379 c0 -5 5 -7 10 -4 6 3 10 8 10 11 0 2 -4 4 -10 4 -5 0 -10
-5 -10 -11z"/>
<path d="M10371 2116 c-8 -9 -20 -15 -28 -12 -15 6 -18 -21 -4 -42 6 -11 14
-6 30 17 24 34 25 65 2 37z"/>
<path d="M5917 2114 c-4 -4 -7 -14 -7 -23 0 -11 3 -12 11 -4 6 6 10 16 7 23
-2 6 -7 8 -11 4z"/>
<path d="M560 2085 c-7 -9 -11 -18 -8 -20 9 -10 38 7 38 21 0 18 -14 18 -30
-1z"/>
<path d="M6016 2065 c-4 -12 -1 -16 11 -13 18 3 21 20 5 26 -5 1 -12 -4 -16
-13z"/>
<path d="M5985 1890 c3 -5 8 -10 11 -10 2 0 4 5 4 10 0 6 -5 10 -11 10 -5 0
-7 -4 -4 -10z"/>
<path d="M1685 1881 c-3 -5 -1 -12 5 -16 5 -3 10 1 10 9 0 18 -6 21 -15 7z"/>
<path d="M8784 1739 c-10 -16 17 -60 35 -57 9 2 17 11 19 21 7 34 -37 63 -54
36z"/>
<path d="M5985 1701 c-3 -5 -1 -12 5 -16 5 -3 10 1 10 9 0 18 -6 21 -15 7z"/>
<path d="M9435 1497 c-4 -8 -1 -26 7 -39 l13 -23 3 29 c4 33 -14 59 -23 33z"/>
<path d="M6510 1439 c0 -11 5 -17 10 -14 6 3 10 13 10 21 0 8 -4 14 -10 14 -5
0 -10 -9 -10 -21z"/>
<path d="M2810 1430 c0 -5 7 -10 15 -10 8 0 15 5 15 10 0 6 -7 10 -15 10 -8 0
-15 -4 -15 -10z"/>
<path d="M5625 1240 c3 -5 8 -10 11 -10 2 0 4 5 4 10 0 6 -5 10 -11 10 -5 0
-7 -4 -4 -10z"/>
<path d="M10380 1209 c0 -5 5 -7 10 -4 6 3 10 8 10 11 0 2 -4 4 -10 4 -5 0
-10 -5 -10 -11z"/>
<path d="M5127 1123 c-14 -13 -7 -42 8 -37 8 4 15 15 15 25 0 19 -11 25 -23
12z"/>
<path d="M6235 1030 c-3 -5 -1 -10 4 -10 6 0 11 5 11 10 0 6 -2 10 -4 10 -3 0
-8 -4 -11 -10z"/>
<path d="M5344 905 c-4 -14 -3 -29 0 -33 9 -8 26 18 26 41 0 26 -19 20 -26 -8z"/>
<path d="M13446 905 c-3 -8 -1 -15 4 -15 6 0 10 7 10 15 0 8 -2 15 -4 15 -2 0
-6 -7 -10 -15z"/>
<path d="M920 891 c0 -25 6 -27 13 -6 4 8 2 17 -3 20 -6 4 -10 -3 -10 -14z"/>
<path d="M13351 896 c-18 -22 -10 -70 13 -74 24 -5 36 14 36 56 0 25 -4 32
-19 32 -10 0 -24 -6 -30 -14z"/>
<path d="M592 830 c-15 -24 2 -28 31 -6 16 12 16 14 1 20 -8 3 -16 6 -17 6 -1
0 -8 -9 -15 -20z"/>
<path d="M16831 754 c0 -11 3 -14 6 -6 3 7 2 16 -1 19 -3 4 -6 -2 -5 -13z"/>
<path d="M856 753 c-11 -11 -6 -23 9 -23 8 0 15 4 15 9 0 13 -16 22 -24 14z"/>
<path d="M595 660 c3 -5 8 -10 11 -10 2 0 4 5 4 10 0 6 -5 10 -11 10 -5 0 -7
-4 -4 -10z"/>
<path d="M2620 100 c0 -5 7 -7 15 -4 8 4 15 8 15 10 0 2 -7 4 -15 4 -8 0 -15
-4 -15 -10z"/>
</g>
</svg>
